<svg xmlns="http://www.w3.org/2000/svg" viewBox="0 0 400 400" role="img" aria-hidden="true">
  <path d="M 303.4 253.2 Q 299.9 261.8 296.8 265.2 Q 293.7 268.7 288.2 270.0 Q 282.8 271.3 281.0 275.6 Q 279.3 279.9 277.1 284.2 Q 275.0 288.6 270.3 289.8 Q 265.5 290.9 260.2 290.7 Q 254.9 290.4 252.6 295.0 Q 250.2 299.5 246.0 300.8 Q 241.8 302.0 237.8 303.9 Q 233.9 305.8 230.2 309.1 Q 226.5 312.3 221.8 311.9 Q 217.2 311.5 212.7 310.8 Q 208.2 310.0 203.9 309.7 Q 199.6 309.3 195.1 310.7 Q 190.7 312.2 186.3 311.8 Q 181.9 311.4 177.6 310.5 Q 173.2 309.6 168.8 308.9 Q 164.3 308.3 159.3 308.6 Q 154.4 308.9 152.4 302.6 Q 150.5 296.3 146.0 295.3 Q 141.6 294.4 136.7 293.8 Q 131.7 293.2 128.6 289.8 Q 125.5 286.5 124.2 281.4 Q 123.0 276.4 118.2 274.8 Q 113.5 273.3 110.0 270.3 Q 106.5 267.3 102.7 264.3 Q 98.9 261.4 99.8 255.7 Q 100.6 250.1 97.2 246.8 Q 93.7 243.5 92.5 239.2 Q 91.3 234.8 91.1 230.3 Q 90.8 225.7 88.2 221.7 Q 85.5 217.7 86.7 213.0 Q 87.9 208.4 87.9 204.0 Q 87.9 199.5 86.6 195.0 Q 85.4 190.5 89.5 186.6 Q 93.6 182.7 91.1 177.7 Q 88.7 172.8 90.1 168.5 Q 91.6 164.3 91.8 159.5 Q 91.9 154.7 96.6 151.9 Q 101.2 149.2 102.0 144.5 Q 102.7 139.8 104.3 135.5 Q 105.9 131.1 108.7 127.4 Q 111.5 123.8 116.8 122.6 Q 122.2 121.5 123.9 116.8 Q 125.6 112.1 130.0 110.5 Q 134.4 108.9 138.0 106.3 Q 141.6 103.8 144.7 100.1 Q 147.7 96.4 153.5 98.4 Q 159.2 100.3 162.3 96.2 Q 165.4 92.1 169.1 88.2 Q 172.7 84.2 177.8 86.4 Q 182.8 88.7 187.3 89.0 Q 191.7 89.3 196.1 88.0 Q 200.5 86.7 205.0 86.2 Q 209.5 85.7 213.6 88.3 Q 217.8 90.8 222.5 89.5 Q 227.3 88.2 230.9 91.8 Q 234.4 95.5 239.2 95.3 Q 244.0 95.1 247.6 97.8 Q 251.2 100.4 255.3 102.2 Q 259.4 103.9 263.4 106.0 Q 267.4 108.0 272.0 109.6 Q 276.5 111.2 277.9 116.3 Q 279.2 121.4 283.0 123.9 Q 286.8 126.5 288.9 130.5 Q 290.9 134.5 297.5 135.7 Q 304.0 136.9 303.3 142.5 Q 302.6 148.2 301.7 153.5 Q 300.7 158.8 303.5 162.4 Q 306.2 166.0 309.5 169.7 Q 312.8 173.4 311.9 178.1 Q 311.1 182.9 310.2 187.4 Q 309.4 191.8 311.2 196.1 Q 312.9 200.5 312.7 204.9 Q 312.4 209.3 312.0 213.7 Q 311.5 218.1 309.9 222.3 Q 308.3 226.5 307.2 230.7 Q 306.1 235.0 306.9 240.0 Q 307.6 245.1 305.5 249.2 T 303.4 253.2" fill="none" stroke="#1a1d1f" stroke-width="2.0" stroke-linecap="round" stroke-linejoin="round"/>
  <path d="M 323.4 225.4 Q 320.6 234.9 320.8 240.2 Q 321.0 245.5 317.7 249.6 Q 314.4 253.6 310.6 257.2 Q 306.8 260.7 305.5 265.7 Q 304.3 270.7 301.5 274.7 Q 298.6 278.7 294.6 281.8 Q 290.6 284.8 288.1 289.3 Q 285.6 293.8 281.7 296.9 Q 277.9 300.1 275.0 304.8 Q 272.1 309.4 266.7 310.2 Q 261.3 311.1 256.5 312.6 Q 251.7 314.1 247.3 316.3 Q 242.8 318.4 237.7 318.5 Q 232.6 318.5 228.4 322.0 Q 224.1 325.4 219.1 325.3 Q 214.0 325.1 209.1 326.5 Q 204.2 327.9 199.1 328.5 Q 194.1 329.1 188.8 330.5 Q 183.5 331.9 178.9 328.7 Q 174.2 325.6 169.0 325.5 Q 163.7 325.5 159.6 322.0 Q 155.4 318.6 151.1 315.9 Q 146.9 313.3 141.7 312.5 Q 136.5 311.6 133.5 307.1 Q 130.4 302.7 124.9 301.8 Q 119.4 300.9 116.5 296.6 Q 113.5 292.4 110.7 288.2 Q 107.9 284.0 103.3 281.5 Q 98.6 278.9 96.4 274.3 Q 94.2 269.7 90.0 266.3 Q 85.9 262.9 86.3 257.2 Q 86.6 251.4 82.9 247.5 Q 79.1 243.7 77.4 239.0 Q 75.6 234.2 76.3 228.9 Q 77.0 223.6 73.0 219.1 Q 68.9 214.7 70.0 209.4 Q 71.2 204.2 72.4 199.2 Q 73.6 194.2 73.5 189.2 Q 73.5 184.2 74.4 179.3 Q 75.3 174.4 78.9 170.2 Q 82.4 166.0 83.2 161.2 Q 83.9 156.3 86.4 152.1 Q 89.0 148.0 89.5 142.7 Q 90.0 137.5 90.0 131.5 Q 90.0 125.5 96.8 124.3 Q 103.7 123.0 103.8 116.5 Q 103.9 110.0 107.8 106.6 Q 111.7 103.2 116.8 101.4 Q 121.9 99.6 127.2 98.5 Q 132.4 97.4 134.9 92.0 Q 137.5 86.6 142.6 85.7 Q 147.8 84.8 152.9 84.2 Q 157.9 83.7 161.8 79.3 Q 165.6 75.0 170.7 74.4 Q 175.7 73.7 180.8 73.8 Q 185.9 73.8 190.9 73.6 Q 195.8 73.3 200.7 75.9 Q 205.6 78.6 210.9 74.4 Q 216.2 70.2 220.9 73.1 Q 225.5 75.9 230.1 78.0 Q 234.7 80.0 240.2 79.3 Q 245.7 78.6 250.5 80.4 Q 255.2 82.2 258.6 86.6 Q 261.9 91.0 266.2 93.5 Q 270.4 96.1 272.0 102.0 Q 273.6 107.9 280.0 107.8 Q 286.3 107.8 289.3 111.8 Q 292.3 115.8 295.2 119.8 Q 298.0 123.8 303.4 126.0 Q 308.8 128.3 310.7 133.1 Q 312.5 137.9 317.7 141.1 Q 322.8 144.3 321.7 150.4 Q 320.6 156.4 319.7 161.9 Q 318.7 167.3 321.6 171.7 Q 324.5 176.1 325.3 181.0 Q 326.0 185.9 326.2 190.9 Q 326.3 195.9 327.7 200.9 Q 329.1 205.9 325.6 210.6 Q 322.1 215.2 322.7 220.3 T 323.4 225.4" fill="none" stroke="#1a1d1f" stroke-width="2.0" stroke-linecap="round" stroke-linejoin="round"/>
  <path d="M 307.0 252.6 Q 291.4 254.3 294.2 261.4 Q 297.0 268.4 293.4 271.5 Q 289.9 274.6 285.6 276.9 Q 281.4 279.2 277.3 281.2 Q 273.2 283.3 271.7 288.5 Q 270.1 293.8 265.9 295.6 Q 261.6 297.5 258.0 300.3 Q 254.4 303.2 249.9 304.2 Q 245.3 305.3 241.1 306.7 Q 236.8 308.1 232.0 307.5 Q 227.2 306.9 223.1 308.4 Q 219.0 310.0 214.8 312.7 Q 210.7 315.4 206.1 314.7 Q 201.6 314.0 197.1 313.8 Q 192.6 313.6 188.6 310.3 Q 184.6 306.9 180.1 307.6 Q 175.6 308.3 170.9 308.8 Q 166.1 309.4 162.2 307.2 Q 158.2 305.1 154.5 302.5 Q 150.8 299.9 145.2 300.8 Q 139.6 301.8 137.5 296.6 Q 135.5 291.4 130.0 291.1 Q 124.6 290.9 120.9 288.0 Q 117.3 285.1 116.9 279.2 Q 116.6 273.3 114.4 269.5 Q 112.1 265.7 109.7 262.2 Q 107.2 258.6 103.1 255.9 Q 99.0 253.2 98.1 248.7 Q 97.3 244.2 96.3 239.9 Q 95.3 235.6 90.8 232.3 Q 86.3 229.0 89.9 223.7 Q 93.5 218.4 90.1 214.4 Q 86.6 210.5 84.4 206.1 Q 82.1 201.6 85.0 197.2 Q 87.8 192.7 89.9 188.6 Q 92.0 184.4 92.1 180.1 Q 92.1 175.7 91.4 170.9 Q 90.7 166.2 93.1 162.3 Q 95.4 158.4 94.7 153.1 Q 93.9 147.8 97.6 144.6 Q 101.4 141.4 103.4 137.3 Q 105.4 133.2 110.5 131.6 Q 115.6 130.0 118.1 126.3 Q 120.5 122.7 122.7 118.6 Q 124.9 114.5 127.2 110.1 Q 129.4 105.7 134.6 105.2 Q 139.8 104.7 142.5 100.4 Q 145.2 96.0 150.3 96.2 Q 155.4 96.4 159.3 94.0 Q 163.1 91.6 167.8 91.8 Q 172.5 92.0 176.6 90.4 Q 180.8 88.7 185.2 88.7 Q 189.7 88.7 194.1 88.5 Q 198.4 88.4 203.0 86.3 Q 207.5 84.2 211.1 90.8 Q 214.8 97.3 219.7 94.1 Q 224.6 91.0 228.9 91.9 Q 233.2 92.8 237.3 94.3 Q 241.5 95.8 246.0 96.5 Q 250.6 97.1 253.0 102.0 Q 255.3 106.9 261.2 105.8 Q 267.2 104.8 267.8 111.2 Q 268.4 117.7 273.9 118.0 Q 279.4 118.4 280.9 123.0 Q 282.3 127.7 286.3 130.1 Q 290.2 132.5 292.6 136.3 Q 294.9 140.0 296.5 144.1 Q 298.2 148.2 302.1 151.3 Q 305.9 154.4 306.5 159.0 Q 307.0 163.6 307.8 167.9 Q 308.6 172.3 310.4 176.5 Q 312.1 180.6 313.5 185.0 Q 314.8 189.4 314.5 193.9 Q 314.2 198.4 315.2 203.0 Q 316.1 207.5 315.4 212.0 Q 314.6 216.5 312.5 220.7 Q 310.3 224.9 309.4 229.2 Q 308.6 233.6 307.0 237.8 Q 305.3 241.9 306.2 247.3 T 307.0 252.6" fill="none" stroke="#1a1d1f" stroke-width="2.0" stroke-linecap="round" stroke-linejoin="round"/>
  <path d="M 323.8 224.7 Q 319.1 233.7 318.9 238.8 Q 318.6 243.9 315.4 247.8 Q 312.1 251.8 313.1 257.9 Q 314.1 264.0 308.1 266.2 Q 302.2 268.4 299.3 272.3 Q 296.5 276.1 294.0 280.4 Q 291.5 284.7 286.8 286.8 Q 282.1 288.9 278.5 292.1 Q 275.0 295.2 271.6 298.7 Q 268.2 302.2 264.0 304.6 Q 259.9 307.1 256.1 310.5 Q 252.4 313.9 247.2 314.0 Q 242.0 314.1 237.7 316.5 Q 233.4 318.8 228.9 320.7 Q 224.3 322.6 219.6 324.5 Q 214.9 326.3 209.8 325.3 Q 204.8 324.3 199.9 324.9 Q 195.0 325.6 190.1 325.3 Q 185.1 325.0 180.5 323.1 Q 175.8 321.1 171.7 317.8 Q 167.6 314.4 162.7 314.4 Q 157.7 314.4 152.7 313.8 Q 147.7 313.2 144.1 309.7 Q 140.4 306.3 136.3 303.8 Q 132.3 301.2 126.2 301.3 Q 120.1 301.3 118.1 295.9 Q 116.2 290.6 112.0 287.8 Q 107.8 285.1 106.0 280.3 Q 104.1 275.5 100.4 272.2 Q 96.6 269.0 95.6 264.0 Q 94.6 259.0 91.0 255.4 Q 87.5 251.8 84.9 247.6 Q 82.3 243.3 83.6 237.9 Q 84.9 232.4 81.8 228.2 Q 78.8 224.0 77.9 219.3 Q 77.0 214.5 75.9 209.7 Q 74.8 204.8 77.1 200.0 Q 79.3 195.2 79.1 190.4 Q 78.8 185.6 79.2 180.8 Q 79.5 175.9 83.0 171.9 Q 86.4 167.9 83.2 161.8 Q 80.0 155.6 80.6 150.4 Q 81.1 145.1 87.1 142.5 Q 93.0 140.0 93.0 134.2 Q 93.0 128.4 97.7 125.7 Q 102.3 122.9 103.8 117.7 Q 105.3 112.4 111.4 111.5 Q 117.4 110.5 119.5 105.4 Q 121.5 100.3 125.3 97.1 Q 129.1 93.8 135.2 94.3 Q 141.2 94.9 144.6 91.0 Q 148.0 87.1 153.8 88.5 Q 159.5 90.0 163.2 86.3 Q 167.0 82.6 171.3 79.9 Q 175.7 77.2 180.5 76.1 Q 185.3 75.1 190.3 77.4 Q 195.3 79.7 200.1 78.5 Q 204.9 77.3 210.3 73.0 Q 215.6 68.6 220.4 71.4 Q 225.1 74.3 228.9 79.1 Q 232.8 83.9 237.0 86.3 Q 241.1 88.7 246.8 87.5 Q 252.5 86.3 256.1 90.0 Q 259.6 93.6 264.7 94.7 Q 269.7 95.8 273.8 98.6 Q 277.8 101.4 279.7 106.6 Q 281.6 111.8 286.3 113.9 Q 291.0 116.0 293.7 120.0 Q 296.4 124.1 298.5 128.5 Q 300.5 132.9 304.1 136.3 Q 307.8 139.7 312.7 142.8 Q 317.7 145.8 317.7 151.3 Q 317.7 156.7 316.9 162.0 Q 316.1 167.3 319.3 171.5 Q 322.5 175.7 321.0 180.8 Q 319.4 185.9 320.6 190.6 Q 321.9 195.3 323.6 200.1 Q 325.3 205.0 324.9 209.9 Q 324.4 214.8 324.1 219.8 T 323.8 224.7" fill="none" stroke="#1a1d1f" stroke-width="2.0" stroke-linecap="round" stroke-linejoin="round"/>
  <path d="M 310.0 236.3 Q 308.4 245.5 305.3 249.1 Q 302.1 252.6 297.3 254.9 Q 292.4 257.3 293.5 263.3 Q 294.5 269.3 290.1 271.6 Q 285.7 273.9 281.5 275.9 Q 277.2 278.0 275.0 282.0 Q 272.7 286.0 268.7 287.9 Q 264.6 289.9 261.2 292.5 Q 257.7 295.2 254.3 298.2 Q 250.9 301.2 247.8 305.3 Q 244.7 309.4 239.7 308.9 Q 234.6 308.4 230.0 308.1 Q 225.3 307.9 221.5 311.7 Q 217.7 315.5 213.1 315.5 Q 208.5 315.6 204.0 314.6 Q 199.4 313.6 194.9 314.7 Q 190.3 315.8 185.7 315.8 Q 181.1 315.8 177.5 311.2 Q 173.8 306.7 168.5 309.1 Q 163.2 311.4 159.8 307.6 Q 156.5 303.7 152.3 302.1 Q 148.1 300.6 144.7 297.6 Q 141.4 294.6 137.9 292.0 Q 134.4 289.4 131.0 286.7 Q 127.6 284.0 123.0 282.4 Q 118.4 280.8 114.3 278.4 Q 110.2 276.0 109.5 270.8 Q 108.8 265.6 106.5 261.9 Q 104.1 258.1 101.1 254.7 Q 98.1 251.3 97.6 246.7 Q 97.1 242.1 93.6 238.6 Q 90.1 235.1 90.5 230.4 Q 90.9 225.6 87.5 221.7 Q 84.0 217.8 87.0 213.0 Q 90.0 208.1 88.5 203.8 Q 87.1 199.5 86.1 194.9 Q 85.2 190.4 88.0 186.3 Q 90.8 182.2 90.3 177.6 Q 89.8 173.0 92.3 169.1 Q 94.7 165.2 96.0 161.1 Q 97.3 156.9 97.1 151.9 Q 96.9 146.8 100.0 143.4 Q 103.0 139.9 107.5 137.7 Q 112.0 135.4 113.5 131.0 Q 114.9 126.6 117.5 123.0 Q 120.1 119.3 122.1 114.8 Q 124.2 110.4 128.5 108.4 Q 132.8 106.5 135.7 102.7 Q 138.7 98.8 144.2 99.5 Q 149.7 100.1 153.7 98.4 Q 157.8 96.6 160.7 91.5 Q 163.7 86.3 168.1 84.7 Q 172.5 83.1 177.5 84.6 Q 182.5 86.0 186.9 84.7 Q 191.4 83.3 196.0 84.2 Q 200.6 85.1 205.1 85.0 Q 209.6 84.8 214.2 85.2 Q 218.7 85.6 223.5 84.9 Q 228.4 84.3 231.8 88.9 Q 235.2 93.5 239.5 94.5 Q 243.9 95.4 248.9 95.5 Q 253.9 95.6 257.1 99.1 Q 260.3 102.6 263.8 105.4 Q 267.3 108.2 272.4 109.2 Q 277.5 110.1 277.9 116.3 Q 278.3 122.5 281.4 125.5 Q 284.6 128.5 288.8 130.8 Q 293.0 133.1 295.8 136.7 Q 298.7 140.2 301.0 144.1 Q 303.3 148.0 300.2 154.1 Q 297.2 160.3 301.1 163.4 Q 305.0 166.4 308.0 170.2 Q 311.1 173.9 310.9 178.5 Q 310.8 183.0 312.1 187.3 Q 313.4 191.6 313.8 196.1 Q 314.2 200.6 314.3 205.1 Q 314.4 209.6 314.3 214.1 Q 314.3 218.7 313.1 223.1 Q 311.9 227.4 310.9 231.9 T 310.0 236.3" fill="none" stroke="#1a1d1f" stroke-width="2.0" stroke-linecap="round" stroke-linejoin="round"/>
</svg>
