<svg xmlns="http://www.w3.org/2000/svg" viewBox="0 0 400 400" role="img" aria-hidden="true">
  <path d="M 198.1 202.4 Q 201.2 195.0 203.3 191.6 Q 205.4 188.2 206.2 184.3 Q 207.1 180.4 207.2 176.4 Q 207.3 172.4 204.4 169.7 Q 201.5 166.9 198.4 164.4 Q 195.3 161.9 192.4 159.1 Q 189.5 156.4 186.0 154.4 Q 182.4 152.5 178.8 150.9 Q 175.1 149.3 172.0 146.9 Q 168.8 144.4 166.6 141.0 Q 164.5 137.7 160.5 137.1 Q 156.6 136.5 157.4 132.6 Q 158.3 128.7 160.7 125.6 Q 163.1 122.4 167.1 122.1 Q 171.1 121.9 175.0 120.9 Q 178.9 119.9 182.4 117.9 Q 185.8 116.0 188.8 113.2 Q 191.7 110.5 195.7 110.4 Q 199.7 110.4 203.7 110.6 Q 207.7 110.8 211.3 112.4 Q 215.0 114.0 218.4 116.2 Q 221.8 118.3 225.2 120.4 Q 228.5 122.6 231.6 125.2 Q 234.6 127.8 238.6 128.1 Q 242.6 128.5 246.5 129.4 Q 250.4 130.3 253.6 132.6 Q 256.8 135.0 260.8 135.1 Q 264.8 135.1 268.5 133.5 Q 272.1 131.8 274.4 128.5 Q 276.6 125.2 277.6 121.3 Q 278.6 117.4 277.3 113.6 Q 276.1 109.8 273.6 106.7 Q 271.1 103.6 275.0 102.8 Q 278.9 102.1 281.2 105.3 Q 283.5 108.6 286.0 111.7 Q 288.4 114.9 291.2 117.7 Q 294.1 120.6 297.9 121.7 Q 301.8 122.8 305.5 124.1 Q 309.3 125.4 312.0 128.4 Q 314.7 131.4 313.9 135.3 Q 313.2 139.2 310.9 142.5 Q 308.5 145.7 309.8 149.5 Q 311.0 153.3 309.6 157.1 Q 308.2 160.8 311.0 163.6 Q 313.8 166.5 313.0 170.4 Q 312.1 174.3 311.3 178.2 Q 310.4 182.1 309.6 186.0 Q 308.8 190.0 306.7 193.4 Q 304.7 196.8 300.8 195.9 Q 296.9 194.9 296.3 198.9 Q 295.7 202.8 293.8 206.4 Q 292.0 210.0 290.9 213.8 Q 289.8 217.6 288.1 221.3 Q 286.5 224.9 287.6 228.8 Q 288.8 232.6 292.2 234.6 Q 295.7 236.6 299.2 238.5 Q 302.7 240.4 305.7 243.1 Q 308.6 245.8 312.6 245.7 Q 316.6 245.7 317.6 249.5 Q 318.6 253.4 319.5 257.3 Q 320.4 261.2 322.4 264.6 Q 324.5 268.1 326.5 271.5 Q 328.5 275.0 326.7 278.6 Q 325.0 282.2 321.0 282.7 Q 317.0 283.1 313.2 282.1 Q 309.3 281.0 306.1 278.7 Q 302.8 276.4 301.7 272.5 Q 300.7 268.7 298.3 265.5 Q 295.9 262.2 293.9 258.8 Q 292.0 255.3 289.9 251.8 Q 287.8 248.4 284.8 245.8 Q 281.7 243.2 278.3 241.2 Q 274.8 239.2 271.0 238.1 Q 267.1 237.0 263.1 237.3 Q 259.1 237.6 255.2 237.1 Q 251.2 236.6 247.2 236.9 Q 243.2 237.2 243.0 233.2 Q 242.7 229.3 243.1 225.3 Q 243.5 221.3 242.1 217.6 Q 240.6 213.9 240.3 209.9 Q 240.0 205.9 238.7 202.1 Q 237.4 198.3 233.5 197.2 Q 229.7 196.0 227.7 192.5 Q 225.6 189.1 223.0 186.1 Q 220.3 183.1 217.1 180.7 Q 213.9 178.3 211.9 174.8 Q 210.0 171.4 207.9 167.9 Q 205.8 164.5 203.6 161.2 Q 201.3 157.9 203.0 154.3 Q 204.7 150.6 205.5 146.7 Q 206.2 142.8 208.6 139.6 Q 211.0 136.4 214.0 133.8 Q 217.1 131.2 220.4 129.0 Q 223.8 126.8 226.0 123.5 Q 228.3 120.2 229.7 116.4 Q 231.2 112.7 230.8 108.7 Q 230.5 104.7 228.8 101.1 Q 227.1 97.5 223.3 98.7 Q 219.5 100.0 215.5 99.5 Q 211.6 99.0 208.4 101.4 Q 205.2 103.9 201.9 106.0 Q 198.5 108.2 194.7 109.5 Q 190.9 110.7 187.6 113.0 Q 184.3 115.3 180.4 114.7 Q 176.4 114.2 175.0 110.4 Q 173.7 106.7 173.0 102.7 Q 172.4 98.8 170.2 95.4 Q 168.0 92.1 167.1 88.2 Q 166.3 84.3 168.9 81.2 Q 171.5 78.2 175.0 76.2 Q 178.5 74.3 181.7 71.9 Q 184.9 69.5 188.3 71.5 Q 191.7 73.6 195.7 74.2 Q 199.6 74.8 203.4 73.4 Q 207.2 72.1 210.2 69.4 Q 213.1 66.7 216.5 64.5 Q 219.8 62.3 223.3 60.4 Q 226.8 58.5 230.8 58.2 Q 234.8 58.0 238.8 57.4 Q 242.7 56.7 246.5 58.1 Q 250.2 59.5 253.7 61.4 Q 257.2 63.4 259.8 66.4 Q 262.3 69.5 266.3 70.1 Q 270.3 70.7 273.4 73.1 Q 276.6 75.5 278.7 78.9 Q 280.8 82.3 283.1 85.6 Q 285.4 88.9 288.3 91.7 Q 291.2 94.4 293.9 97.4 Q 296.5 100.4 296.3 104.4 Q 296.1 108.4 294.1 111.8 Q 292.0 115.3 292.5 119.2 Q 293.0 123.2 294.5 126.9 Q 296.0 130.6 292.7 133.0 Q 289.5 135.4 286.2 137.6 Q 282.9 139.9 279.4 141.8 Q 275.9 143.7 272.5 145.8 Q 269.1 148.0 265.1 147.7 Q 261.2 147.4 257.5 145.8 Q 253.8 144.1 250.5 142.0 Q 247.1 139.9 243.1 139.8 Q 239.1 139.7 235.8 137.4 Q 232.5 135.1 230.3 131.8 Q 228.1 128.5 227.4 124.5 Q 226.8 120.6 230.4 118.9 Q 234.0 117.2 234.3 113.2 Q 234.6 109.2 233.0 105.6 Q 231.3 102.0 227.5 100.5 Q 223.8 99.1 219.8 98.7 Q 215.8 98.4 211.9 98.7 Q 207.9 99.1 203.9 98.9 Q 199.9 98.8 195.9 98.6 Q 191.9 98.4 189.2 95.4 Q 186.6 92.4 182.8 91.1 Q 179.0 89.7 175.5 87.9 Q 171.9 86.1 168.3 84.4 Q 164.6 82.7 160.6 82.8 Q 156.6 82.9 153.2 84.9 Q 149.7 86.9 146.4 89.2 Q 143.1 91.5 141.4 95.1 Q 139.7 98.7 137.1 101.8 Q 134.6 104.8 132.1 107.9 Q 129.5 111.0 130.5 114.9 Q 131.5 118.8 133.6 122.2 Q 135.6 125.7 134.6 129.5 Q 133.5 133.4 134.8 137.2 Q 136.0 141.0 138.3 144.3 Q 140.7 147.5 144.7 147.2 Q 148.7 146.9 152.3 148.5 Q 156.0 150.1 160.0 150.6 Q 163.9 151.1 167.6 149.6 Q 171.3 148.1 171.3 144.1 Q 171.4 140.1 173.0 136.5 Q 174.7 132.9 174.6 128.9 Q 174.5 124.9 175.6 121.0 Q 176.8 117.2 173.7 114.6 Q 170.6 112.1 166.6 112.3 Q 162.6 112.6 159.0 114.2 Q 155.3 115.9 153.2 119.3 Q 151.1 122.7 147.6 124.6 Q 144.1 126.4 140.9 128.9 Q 137.8 131.4 135.1 134.4 Q 132.4 137.3 134.2 140.9 Q 136.1 144.4 139.8 143.0 Q 143.5 141.6 147.3 142.9 Q 151.1 144.3 154.9 143.0 Q 158.7 141.8 160.6 138.3 Q 162.5 134.8 166.1 133.1 Q 169.8 131.4 171.9 128.0 Q 174.1 124.6 175.1 120.8 Q 176.1 116.9 177.6 113.2 Q 179.1 109.5 179.8 105.5 Q 180.5 101.6 181.2 97.7 Q 181.9 93.7 182.0 89.7 Q 182.1 85.7 180.1 82.3 Q 178.0 78.8 174.8 76.4 Q 171.6 74.1 168.7 71.3 Q 165.8 68.6 166.2 64.6 Q 166.6 60.7 162.6 60.5 Q 158.6 60.3 154.6 60.0 T 150.6 59.8" fill="none" stroke="#1a1d1f" stroke-width="1.8" stroke-linecap="round" stroke-linejoin="round"/>
  <path d="M 218.3 185.6 Q 225.2 189.7 228.7 191.7 Q 232.1 193.7 233.7 197.4 Q 235.3 201.0 234.6 205.0 Q 233.8 208.9 235.8 212.4 Q 237.8 215.8 235.9 219.3 Q 233.9 222.8 231.3 225.9 Q 228.8 229.0 225.6 226.6 Q 222.3 224.3 218.5 223.1 Q 214.6 222.0 212.6 218.6 Q 210.5 215.2 211.6 211.4 Q 212.7 207.5 212.3 203.5 Q 211.9 199.5 214.6 196.6 Q 217.3 193.6 218.5 189.8 Q 219.7 186.0 223.7 185.7 Q 227.7 185.3 231.5 186.5 Q 235.3 187.6 239.3 187.0 Q 243.3 186.4 246.9 184.8 Q 250.5 183.1 254.5 183.1 Q 258.5 183.1 260.4 186.7 Q 262.2 190.2 266.2 189.7 Q 270.2 189.1 272.8 186.2 Q 275.5 183.2 278.8 180.9 Q 282.0 178.6 279.9 175.2 Q 277.8 171.8 273.9 171.1 Q 270.0 170.4 266.0 171.3 Q 262.1 172.1 258.7 174.2 Q 255.4 176.3 252.8 179.4 Q 250.1 182.4 246.4 183.8 Q 242.7 185.2 239.2 187.2 Q 235.7 189.1 231.7 189.9 Q 227.8 190.8 228.2 194.7 Q 228.7 198.7 229.8 202.5 Q 231.0 206.4 233.2 209.7 Q 235.3 213.1 236.0 217.1 Q 236.6 221.0 239.9 223.3 Q 243.1 225.6 246.2 228.2 Q 249.3 230.7 251.9 233.8 Q 254.5 236.8 257.5 239.4 Q 260.5 242.1 263.6 244.6 Q 266.7 247.1 267.7 251.0 Q 268.7 254.9 270.9 258.2 Q 273.1 261.6 276.8 263.1 Q 280.5 264.6 284.3 265.8 Q 288.1 267.1 291.8 265.6 Q 295.5 264.0 295.7 260.0 Q 295.8 256.0 295.2 252.1 Q 294.6 248.1 296.1 244.4 Q 297.6 240.7 297.4 236.7 Q 297.2 232.7 296.0 228.9 Q 294.8 225.1 291.6 222.7 Q 288.4 220.3 284.5 219.4 Q 280.6 218.5 277.3 220.7 Q 274.0 223.0 270.1 223.9 Q 266.2 224.8 262.6 226.7 Q 259.1 228.6 255.7 230.6 Q 252.2 232.6 248.2 232.5 Q 244.2 232.4 240.2 232.3 Q 236.2 232.2 232.8 234.3 Q 229.3 236.3 225.5 237.4 Q 221.7 238.5 219.7 235.0 Q 217.7 231.6 214.1 229.9 Q 210.4 228.3 206.5 229.0 Q 202.5 229.8 198.6 230.7 Q 194.8 231.6 192.0 228.7 Q 189.3 225.8 189.2 221.8 Q 189.1 217.8 190.4 214.0 Q 191.7 210.2 195.0 208.0 Q 198.4 205.9 200.9 202.8 Q 203.4 199.7 207.0 197.9 Q 210.6 196.2 213.7 193.6 Q 216.8 191.0 220.5 189.5 Q 224.1 188.0 227.9 189.3 Q 231.7 190.6 235.2 192.5 Q 238.7 194.4 241.7 197.2 Q 244.6 199.9 248.6 199.6 Q 252.6 199.2 256.5 200.0 Q 260.4 200.8 262.3 204.3 Q 264.2 207.8 263.8 211.8 Q 263.5 215.8 262.3 219.6 Q 261.2 223.5 258.0 225.9 Q 254.8 228.3 255.9 232.1 Q 256.9 236.0 260.9 236.7 Q 264.8 237.4 268.4 239.2 Q 272.0 241.0 275.8 239.9 Q 279.7 238.9 283.5 237.8 Q 287.4 236.8 286.3 232.9 Q 285.2 229.1 281.4 227.7 Q 277.6 226.4 273.8 225.1 Q 270.1 223.8 266.3 225.2 Q 262.6 226.6 259.0 228.4 Q 255.5 230.3 254.5 234.2 Q 253.5 238.1 255.1 241.7 Q 256.6 245.4 254.9 249.1 Q 253.3 252.7 250.4 255.5 Q 247.6 258.3 247.4 262.3 Q 247.2 266.3 246.6 270.3 Q 246.0 274.2 245.6 278.2 Q 245.2 282.2 247.9 285.1 Q 250.6 288.1 253.3 291.0 Q 256.0 294.0 259.2 296.3 Q 262.4 298.7 264.8 301.9 Q 267.1 305.2 270.2 307.8 Q 273.2 310.4 277.2 310.9 Q 281.1 311.3 285.1 311.7 Q 289.1 312.1 293.0 313.1 Q 296.8 314.2 300.8 313.7 Q 304.8 313.3 307.4 310.3 Q 310.0 307.3 311.9 303.7 Q 313.7 300.2 314.8 296.3 Q 315.9 292.5 316.9 288.6 Q 317.8 284.7 320.5 281.7 Q 323.1 278.7 326.4 276.3 Q 329.6 273.9 332.0 270.7 Q 334.3 267.5 336.3 264.0 Q 338.2 260.5 339.3 256.7 Q 340.4 252.8 340.1 248.8 Q 339.9 244.8 341.7 241.3 Q 343.5 237.7 344.8 233.9 Q 346.1 230.1 342.7 228.1 Q 339.3 226.0 336.0 223.6 Q 332.8 221.3 329.3 219.4 Q 325.7 217.5 322.0 218.9 Q 318.2 220.3 314.6 218.5 Q 311.0 216.8 308.4 213.8 Q 305.8 210.7 303.4 207.5 Q 301.0 204.3 297.3 202.9 Q 293.5 201.6 289.8 200.1 Q 286.1 198.6 282.4 197.0 Q 278.7 195.5 275.3 197.7 Q 271.9 199.8 269.8 203.2 Q 267.7 206.6 265.2 209.8 Q 262.8 212.9 260.1 215.9 Q 257.5 219.0 253.8 220.5 Q 250.1 222.0 246.5 220.3 Q 242.8 218.6 240.0 215.8 Q 237.2 213.0 236.8 209.0 Q 236.4 205.0 239.7 202.7 Q 242.9 200.4 245.9 197.7 Q 248.8 195.0 251.3 191.9 Q 253.8 188.7 253.2 184.8 Q 252.6 180.8 252.1 176.9 Q 251.5 172.9 253.5 169.4 Q 255.5 166.0 258.1 163.0 Q 260.7 159.9 264.7 160.5 Q 268.7 161.1 272.4 162.4 Q 276.2 163.7 277.7 167.4 Q 279.2 171.1 280.7 174.8 Q 282.1 178.6 279.3 181.4 Q 276.4 184.2 273.9 187.3 Q 271.4 190.4 268.6 193.3 Q 265.8 196.2 261.9 196.5 Q 257.9 196.7 254.0 195.6 Q 250.2 194.5 247.1 191.9 Q 244.1 189.4 243.5 185.4 Q 242.9 181.4 239.6 179.2 Q 236.3 177.0 234.8 173.3 Q 233.3 169.6 231.9 165.8 Q 230.4 162.1 228.2 158.8 Q 226.0 155.5 222.9 152.9 Q 219.8 150.4 218.0 146.8 Q 216.2 143.2 212.2 143.6 Q 208.2 144.0 205.0 146.4 Q 201.8 148.8 199.0 151.7 Q 196.3 154.7 192.6 156.2 Q 189.0 157.8 186.8 161.2 Q 184.6 164.5 181.8 167.4 Q 179.0 170.3 175.3 171.7 Q 171.5 173.1 167.7 172.0 Q 163.8 171.0 162.4 167.2 Q 161.1 163.5 157.3 162.3 Q 153.5 161.1 149.6 160.1 Q 145.7 159.2 143.2 156.0 Q 140.8 152.9 137.4 155.0 Q 134.0 157.2 130.3 158.5 Q 126.5 159.9 122.6 159.0 Q 118.7 158.1 116.3 154.8 Q 114.0 151.6 110.1 150.7 Q 106.2 149.9 102.6 151.6 Q 99.0 153.3 95.0 152.8 Q 91.0 152.3 87.1 151.3 Q 83.3 150.3 79.9 148.1 Q 76.6 145.9 74.9 142.3 Q 73.2 138.7 72.3 134.8 Q 71.3 130.9 73.2 127.4 Q 75.1 123.9 78.8 122.5 Q 82.5 121.1 86.5 121.0 Q 90.5 120.9 94.5 120.6 Q 98.5 120.2 99.9 116.5 Q 101.4 112.7 101.1 108.8 Q 100.9 104.8 98.4 101.6 Q 96.0 98.4 92.2 99.9 Q 88.5 101.3 86.3 104.7 Q 84.0 108.0 82.2 111.5 Q 80.4 115.1 78.0 118.3 Q 75.6 121.5 74.1 125.2 Q 72.7 129.0 70.0 131.9 Q 67.3 134.8 68.5 138.6 Q 69.7 142.4 70.1 146.4 Q 70.6 150.4 70.6 154.4 T 70.5 158.4" fill="none" stroke="#1a1d1f" stroke-width="1.8" stroke-linecap="round" stroke-linejoin="round"/>
  <path d="M 202.8 205.3 Q 205.0 197.6 208.6 195.9 Q 212.2 194.2 215.6 196.4 Q 218.9 198.5 222.8 197.5 Q 226.7 196.5 230.6 196.8 Q 234.6 197.2 237.2 200.3 Q 239.7 203.4 243.4 204.8 Q 247.2 206.2 251.1 205.7 Q 255.1 205.3 258.4 207.5 Q 261.7 209.8 265.3 211.5 Q 268.9 213.3 271.4 210.1 Q 273.9 207.0 277.5 205.3 Q 281.1 203.7 284.1 200.9 Q 287.0 198.2 288.6 194.6 Q 290.3 190.9 291.0 187.0 Q 291.7 183.0 294.7 180.3 Q 297.6 177.6 301.6 177.8 Q 305.6 177.9 309.4 179.1 Q 313.3 180.3 317.1 181.3 Q 321.0 182.3 324.7 180.8 Q 328.4 179.3 332.1 180.8 Q 335.8 182.4 338.8 179.7 Q 341.8 177.1 341.7 173.1 Q 341.7 169.1 340.4 165.3 Q 339.1 161.5 338.5 157.5 Q 337.8 153.6 337.7 149.6 Q 337.5 145.6 336.5 141.7 Q 335.4 137.9 334.1 134.1 Q 332.8 130.3 330.4 127.1 Q 328.0 123.9 327.2 120.0 Q 326.4 116.1 323.5 113.3 Q 320.7 110.5 317.1 108.7 Q 313.5 106.9 309.7 105.8 Q 305.8 104.7 302.7 102.2 Q 299.6 99.7 296.4 97.2 Q 293.3 94.7 290.3 92.1 Q 287.4 89.4 283.5 88.5 Q 279.6 87.6 275.6 87.0 Q 271.7 86.4 267.7 87.0 Q 263.8 87.6 259.8 87.2 Q 255.8 86.9 251.9 86.1 Q 247.9 85.3 244.1 84.1 Q 240.3 82.9 238.1 79.5 Q 236.0 76.2 232.1 75.0 Q 228.3 73.9 224.3 73.9 Q 220.3 74.0 216.3 74.4 Q 212.3 74.9 208.4 74.6 Q 204.4 74.4 200.5 73.2 Q 196.7 72.0 192.8 71.1 Q 188.9 70.2 185.3 68.6 Q 181.6 67.0 177.8 65.6 Q 174.1 64.3 171.1 61.6 Q 168.2 58.8 164.3 58.0 Q 160.4 57.2 156.4 56.6 Q 152.5 56.0 150.0 59.1 Q 147.6 62.3 144.6 65.0 Q 141.7 67.7 140.2 71.4 Q 138.8 75.1 135.5 77.5 Q 132.3 79.8 128.8 81.8 Q 125.3 83.7 123.2 87.1 Q 121.1 90.5 117.4 92.0 Q 113.7 93.6 109.7 94.0 Q 105.7 94.4 103.1 97.4 Q 100.5 100.4 96.5 100.9 Q 92.6 101.5 93.2 97.5 Q 93.8 93.6 97.0 91.2 Q 100.2 88.8 104.2 89.3 Q 108.2 89.7 112.1 90.4 Q 116.0 91.1 119.8 89.9 Q 123.6 88.7 127.6 88.2 Q 131.6 87.7 134.9 89.9 Q 138.2 92.1 142.2 92.1 Q 146.2 92.0 150.0 93.4 Q 153.8 94.8 156.1 98.0 Q 158.4 101.3 161.1 104.2 Q 163.8 107.2 166.8 109.9 Q 169.8 112.5 170.3 116.5 Q 170.9 120.4 169.8 124.3 Q 168.7 128.1 168.0 132.0 Q 167.2 136.0 169.0 139.5 Q 170.8 143.1 174.4 144.9 Q 178.0 146.7 180.7 149.6 Q 183.5 152.5 186.5 155.2 Q 189.5 157.8 188.0 161.5 Q 186.5 165.2 183.1 167.2 Q 179.6 169.2 176.5 171.8 Q 173.4 174.3 169.5 174.7 Q 165.5 175.0 161.5 175.1 Q 157.5 175.1 153.5 174.5 Q 149.6 173.8 145.8 175.2 Q 142.0 176.5 138.0 176.7 Q 134.0 176.8 130.1 176.0 Q 126.2 175.2 122.2 175.3 Q 118.2 175.3 115.4 178.2 Q 112.7 181.1 110.6 184.4 Q 108.4 187.8 104.5 188.6 Q 100.5 189.3 96.6 189.6 Q 92.6 189.9 92.8 193.9 Q 93.1 197.9 92.1 201.8 Q 91.2 205.7 92.4 209.5 Q 93.6 213.3 92.9 217.2 Q 92.1 221.2 95.7 223.0 Q 99.2 224.9 100.8 228.6 Q 102.4 232.2 106.0 233.9 Q 109.7 235.6 113.6 234.8 Q 117.5 234.1 120.9 232.0 Q 124.3 229.9 128.3 229.7 Q 132.3 229.4 135.3 226.7 Q 138.2 224.0 141.0 221.1 Q 143.7 218.2 145.0 214.4 Q 146.3 210.6 148.9 207.6 Q 151.6 204.7 155.0 202.5 Q 158.3 200.3 159.5 196.4 Q 160.7 192.6 160.4 188.7 Q 160.1 184.7 160.3 180.7 Q 160.4 176.7 162.0 173.0 Q 163.6 169.3 166.0 166.1 Q 168.3 162.9 170.5 159.5 Q 172.6 156.1 176.6 155.7 Q 180.6 155.4 184.0 153.3 Q 187.4 151.2 184.7 148.3 Q 182.0 145.3 178.0 145.6 Q 174.0 145.8 170.0 146.1 Q 166.0 146.5 162.0 147.1 Q 158.1 147.7 154.4 146.0 Q 150.8 144.4 146.9 143.6 Q 143.0 142.8 141.3 139.2 Q 139.7 135.6 136.3 133.3 Q 133.0 131.1 130.0 128.5 Q 126.9 125.9 124.3 122.9 Q 121.6 119.9 122.8 116.1 Q 124.0 112.3 125.7 108.7 Q 127.4 105.1 129.4 101.6 Q 131.5 98.2 132.1 94.3 Q 132.6 90.3 134.7 86.9 Q 136.9 83.6 140.1 81.2 Q 143.4 78.8 147.1 77.5 Q 150.9 76.3 152.1 72.4 Q 153.3 68.6 157.2 67.8 Q 161.1 66.9 161.9 63.0 Q 162.6 59.1 166.1 57.0 Q 169.5 54.9 172.3 52.1 Q 175.2 49.3 179.2 49.0 Q 183.2 48.8 186.9 50.3 Q 190.6 51.8 192.9 55.0 Q 195.3 58.3 199.1 59.4 Q 203.0 60.6 206.9 61.2 Q 210.9 61.9 214.5 63.5 Q 218.1 65.2 222.1 65.9 Q 226.0 66.5 229.2 68.9 Q 232.5 71.3 236.5 71.2 Q 240.5 71.1 244.5 71.1 Q 248.5 71.1 252.4 71.4 Q 256.4 71.7 260.2 72.9 Q 264.1 74.1 267.7 75.7 Q 271.4 77.3 274.5 79.8 Q 277.5 82.4 279.0 86.2 Q 280.4 89.9 280.4 93.9 Q 280.4 97.9 277.7 100.9 Q 275.0 103.8 271.1 104.0 Q 267.1 104.2 264.0 106.8 Q 260.9 109.3 258.3 112.4 Q 255.8 115.5 254.2 119.1 Q 252.6 122.8 252.2 126.8 Q 251.9 130.8 250.7 134.6 Q 249.4 138.4 248.1 142.1 Q 246.7 145.9 246.5 149.9 Q 246.2 153.9 244.2 157.3 Q 242.1 160.7 240.1 164.2 Q 238.0 167.6 234.6 169.6 Q 231.1 171.6 227.6 173.5 Q 224.0 175.3 220.6 177.4 Q 217.2 179.5 215.5 183.1 Q 213.7 186.7 211.3 189.9 Q 208.9 193.1 207.1 196.7 Q 205.4 200.3 201.5 201.0 Q 197.5 201.7 193.6 202.3 Q 189.6 202.9 185.6 202.8 Q 181.6 202.7 179.2 199.5 Q 176.8 196.3 179.5 193.4 Q 182.2 190.5 184.4 187.1 Q 186.6 183.8 189.6 181.1 Q 192.5 178.4 196.5 178.8 Q 200.5 179.2 204.5 179.0 Q 208.5 178.8 212.0 180.6 Q 215.6 182.4 219.4 183.7 Q 223.2 184.9 226.9 186.4 Q 230.6 187.9 234.5 188.8 Q 238.4 189.7 242.2 190.9 Q 246.0 192.1 246.8 196.0 Q 247.6 200.0 251.4 201.2 Q 255.2 202.5 259.1 203.3 Q 263.0 204.1 266.1 201.5 Q 269.1 198.9 273.1 199.3 Q 277.0 199.7 279.7 202.6 Q 282.4 205.6 283.8 209.3 Q 285.1 213.1 285.9 217.0 Q 286.7 221.0 285.9 224.9 Q 285.2 228.8 282.8 232.0 Q 280.4 235.2 279.5 239.1 T 278.6 243.0" fill="none" stroke="#1a1d1f" stroke-width="1.8" stroke-linecap="round" stroke-linejoin="round"/>
</svg>
