<svg xmlns="http://www.w3.org/2000/svg" viewBox="0 0 400 400" role="img" aria-hidden="true">
  <path d="M 319.4 250.4 Q 318.1 256.2 316.5 258.7 Q 315.0 261.2 313.2 263.6 Q 311.4 265.9 309.5 268.1 Q 307.5 270.3 306.6 273.2 Q 305.7 276.1 303.6 278.2 Q 301.6 280.3 299.8 282.6 Q 297.9 284.8 295.8 286.8 Q 293.7 288.8 291.6 290.8 Q 289.5 292.8 287.8 295.2 Q 286.1 297.7 283.7 299.4 Q 281.4 301.1 279.3 303.3 Q 277.3 305.4 274.6 306.7 Q 272.0 308.0 269.7 309.9 Q 267.4 311.8 264.5 312.4 Q 261.5 313.1 259.3 315.1 Q 257.1 317.2 254.2 318.0 Q 251.4 318.7 248.7 320.0 Q 246.1 321.3 243.5 322.6 Q 240.9 323.9 238.0 324.7 Q 235.2 325.4 232.2 325.3 Q 229.1 325.2 226.5 326.6 Q 223.8 328.0 221.0 328.8 Q 218.1 329.5 215.2 329.8 Q 212.3 330.1 209.4 330.2 Q 206.4 330.2 203.5 329.5 Q 200.6 328.8 197.7 329.1 Q 194.8 329.4 191.8 329.4 Q 188.9 329.4 186.0 328.9 Q 183.2 328.4 180.1 329.1 Q 177.0 329.8 174.6 326.9 Q 172.3 324.1 169.1 324.7 Q 166.0 325.3 163.5 323.6 Q 161.0 321.9 157.9 322.1 Q 154.7 322.2 152.2 320.8 Q 149.6 319.4 147.0 318.2 Q 144.3 316.9 141.6 315.9 Q 138.8 314.8 136.3 313.5 Q 133.7 312.1 131.7 309.9 Q 129.7 307.6 126.6 307.0 Q 123.5 306.3 121.2 304.5 Q 118.9 302.6 116.8 300.5 Q 114.7 298.5 113.2 295.9 Q 111.6 293.3 108.3 292.5 Q 105.0 291.7 103.0 289.5 Q 101.0 287.2 99.0 285.1 Q 97.0 282.9 95.8 280.1 Q 94.5 277.3 92.3 275.3 Q 90.2 273.2 89.6 270.1 Q 89.0 267.0 86.8 264.9 Q 84.6 262.8 84.1 259.7 Q 83.6 256.7 82.0 254.2 Q 80.4 251.7 78.8 249.2 Q 77.2 246.7 77.0 243.7 Q 76.7 240.7 76.7 237.6 Q 76.8 234.6 76.2 231.8 Q 75.5 229.0 72.9 226.6 Q 70.3 224.1 70.1 221.2 Q 69.9 218.2 70.1 215.2 Q 70.3 212.2 69.7 209.3 Q 69.1 206.5 69.4 203.5 Q 69.7 200.6 69.6 197.6 Q 69.5 194.7 70.0 191.8 Q 70.5 188.9 69.5 185.8 Q 68.5 182.8 70.4 180.1 Q 72.2 177.4 72.8 174.5 Q 73.3 171.7 74.1 168.9 Q 74.9 166.1 76.4 163.5 Q 77.9 160.9 77.8 157.8 Q 77.8 154.7 78.6 151.9 Q 79.5 149.1 80.8 146.5 Q 82.1 143.9 82.8 140.9 Q 83.5 138.0 85.3 135.6 Q 87.0 133.2 88.1 130.4 Q 89.2 127.6 92.4 126.2 Q 95.6 124.9 96.8 122.1 Q 98.0 119.4 100.5 117.7 Q 102.9 115.9 103.8 112.8 Q 104.7 109.7 107.1 107.9 Q 109.4 106.1 111.7 104.2 Q 114.0 102.4 116.9 101.3 Q 119.8 100.3 121.4 97.7 Q 123.0 95.0 125.5 93.4 Q 127.9 91.8 129.8 89.3 Q 131.6 86.7 134.4 85.6 Q 137.2 84.5 140.0 83.4 Q 142.7 82.3 145.4 81.1 Q 148.1 80.0 151.4 80.4 Q 154.7 80.8 156.9 78.5 Q 159.2 76.2 161.9 75.2 Q 164.7 74.2 167.5 73.5 Q 170.4 72.7 173.3 72.4 Q 176.2 72.1 179.1 71.9 Q 182.1 71.8 184.9 71.1 Q 187.8 70.4 190.7 70.2 Q 193.6 69.9 196.5 69.5 Q 199.4 69.2 202.3 69.7 Q 205.3 70.3 208.1 71.0 Q 211.0 71.6 213.9 71.4 Q 216.9 71.1 219.9 70.6 Q 223.0 70.1 225.7 71.7 Q 228.3 73.3 231.0 74.5 Q 233.7 75.6 236.6 76.3 Q 239.4 77.0 242.2 77.7 Q 245.1 78.3 248.3 78.2 Q 251.5 78.1 254.0 79.8 Q 256.5 81.4 259.0 82.9 Q 261.6 84.4 263.8 86.4 Q 266.1 88.3 268.9 89.4 Q 271.6 90.4 273.6 92.8 Q 275.5 95.1 278.1 96.5 Q 280.7 97.8 282.8 99.9 Q 284.9 102.0 287.1 103.9 Q 289.3 105.8 291.6 107.6 Q 294.0 109.3 295.8 111.6 Q 297.6 114.0 300.2 115.6 Q 302.9 117.2 304.4 119.8 Q 305.9 122.4 306.3 125.6 Q 306.7 128.9 308.9 130.9 Q 311.2 132.9 312.8 135.4 Q 314.3 137.8 315.3 140.6 Q 316.2 143.4 318.3 145.7 Q 320.3 147.9 320.8 150.9 Q 321.2 153.9 321.7 156.8 Q 322.2 159.7 323.8 162.2 Q 325.5 164.8 325.7 167.7 Q 325.9 170.7 325.9 173.6 Q 325.9 176.6 327.7 179.2 Q 329.5 181.9 330.5 184.7 Q 331.5 187.6 330.3 190.6 Q 329.0 193.6 329.7 196.5 Q 330.4 199.4 330.9 202.4 Q 331.5 205.3 329.6 208.1 Q 327.7 210.9 328.6 214.0 Q 329.6 217.0 328.4 219.7 Q 327.2 222.5 327.9 225.6 Q 328.6 228.8 326.5 231.3 Q 324.4 233.8 325.1 237.0 Q 325.7 240.2 323.6 242.6 Q 321.6 245.0 320.5 247.7 T 319.4 250.4" fill="none" stroke="#1a1d1f" stroke-width="2.4" stroke-linecap="round" stroke-linejoin="round"/>
</svg>
