<svg xmlns="http://www.w3.org/2000/svg" viewBox="0 0 400 400" role="img" aria-hidden="true">
  <path d="M 182.7 193.0 Q 187.5 191.8 188.8 194.0 Q 190.0 196.1 191.8 197.8 Q 193.6 199.5 196.1 199.3 Q 198.6 199.0 201.1 198.9 Q 203.6 198.7 205.1 196.6 Q 206.5 194.6 208.9 194.0 Q 211.4 193.4 212.6 191.3 Q 213.8 189.1 216.1 188.1 Q 218.5 187.2 220.8 188.1 Q 223.1 189.1 225.1 187.8 Q 227.2 186.4 229.5 185.3 Q 231.8 184.3 234.2 183.9 Q 236.7 183.5 238.0 185.6 Q 239.2 187.8 239.9 190.2 Q 240.6 192.6 239.8 194.9 Q 238.9 197.3 238.0 199.6 Q 237.0 201.9 234.9 203.2 Q 232.8 204.5 230.3 204.5 Q 227.8 204.5 226.9 202.1 Q 226.1 199.8 225.0 197.5 Q 223.9 195.3 222.5 193.3 Q 221.0 191.2 219.0 189.7 Q 217.1 188.1 214.9 186.9 Q 212.7 185.7 210.2 185.7 Q 207.7 185.6 205.7 187.1 Q 203.7 188.6 204.6 190.9 Q 205.5 193.2 207.2 195.1 Q 208.8 197.1 209.9 199.3 Q 211.1 201.5 213.6 201.2 Q 216.1 200.9 218.5 200.4 Q 221.0 199.9 223.4 200.3 Q 225.9 200.6 227.8 199.0 Q 229.7 197.4 230.6 195.0 Q 231.5 192.7 233.9 192.9 Q 236.4 193.1 237.9 191.1 Q 239.4 189.0 241.4 187.6 Q 243.4 186.1 245.9 186.4 Q 248.4 186.7 250.8 186.5 Q 253.3 186.3 254.9 184.4 Q 256.5 182.5 258.3 180.8 Q 260.2 179.1 261.9 177.3 Q 263.7 175.5 262.4 173.4 Q 261.2 171.2 261.8 168.8 Q 262.5 166.4 264.8 165.4 Q 267.1 164.4 266.3 162.0 Q 265.5 159.6 264.8 157.3 Q 264.0 154.9 263.0 152.6 Q 261.9 150.3 259.9 148.9 Q 257.9 147.4 256.1 145.7 Q 254.3 144.0 252.0 142.8 Q 249.8 141.7 248.3 139.7 Q 246.7 137.8 244.3 138.4 Q 241.9 139.1 240.5 141.1 Q 239.1 143.2 240.3 145.4 Q 241.4 147.7 242.4 149.9 Q 243.5 152.2 245.9 152.9 Q 248.3 153.6 250.7 153.2 Q 253.2 152.9 255.2 154.3 Q 257.3 155.8 259.2 157.3 Q 261.2 158.9 261.8 161.3 Q 262.4 163.7 264.4 165.2 Q 266.4 166.7 267.6 168.9 Q 268.9 171.1 270.4 169.1 Q 272.0 167.2 272.7 169.6 Q 273.3 172.0 273.2 174.5 Q 273.1 177.0 273.2 179.5 Q 273.2 182.0 273.3 184.5 Q 273.3 187.0 272.9 189.5 Q 272.5 192.0 270.3 193.1 Q 268.1 194.3 269.3 196.5 Q 270.4 198.7 270.7 201.2 Q 270.9 203.7 273.0 205.1 Q 275.0 206.6 274.6 209.0 Q 274.3 211.5 275.3 209.2 Q 276.4 207.0 277.1 204.6 Q 277.7 202.2 277.3 199.7 Q 276.9 197.2 276.3 194.8 Q 275.7 192.4 275.5 189.9 Q 275.3 187.4 274.3 185.1 Q 273.2 182.8 270.8 182.1 Q 268.4 181.4 268.8 179.0 Q 269.2 176.5 269.2 174.0 Q 269.1 171.5 269.3 169.0 Q 269.5 166.5 271.1 168.4 Q 272.8 170.3 272.6 172.7 Q 272.4 175.2 269.9 175.7 Q 267.4 176.2 268.0 178.6 Q 268.5 181.0 269.9 183.1 Q 271.2 185.2 271.3 187.7 Q 271.3 190.2 271.5 192.7 Q 271.8 195.2 272.6 197.6 Q 273.5 199.9 275.1 201.8 Q 276.7 203.7 276.6 206.2 Q 276.4 208.7 275.1 210.8 Q 273.7 212.9 271.3 212.3 Q 268.9 211.6 266.6 210.6 Q 264.3 209.6 266.7 208.8 Q 269.1 208.0 270.7 206.1 Q 272.4 204.3 271.8 201.8 Q 271.3 199.4 269.9 197.3 Q 268.5 195.2 266.4 194.0 Q 264.2 192.7 262.4 191.0 Q 260.5 189.4 258.6 187.8 Q 256.6 186.2 256.5 183.7 Q 256.3 181.2 254.9 179.2 Q 253.5 177.1 251.0 176.7 Q 248.5 176.3 246.3 177.4 Q 244.0 178.4 242.3 180.2 Q 240.5 182.0 238.3 183.2 Q 236.1 184.4 235.2 186.7 Q 234.2 189.0 231.8 189.7 Q 229.4 190.3 227.6 192.1 Q 225.9 193.9 223.7 192.6 Q 221.6 191.4 219.3 190.3 Q 217.1 189.2 214.7 188.5 Q 212.3 187.8 212.2 185.3 Q 212.2 182.8 214.1 181.2 Q 216.0 179.5 217.0 177.3 Q 218.1 175.0 218.9 172.6 Q 219.7 170.3 218.2 168.3 Q 216.7 166.3 214.8 164.6 Q 213.0 163.0 210.8 161.8 Q 208.6 160.6 206.2 161.5 Q 203.9 162.5 201.5 163.1 Q 199.1 163.8 196.7 164.5 Q 194.3 165.3 192.3 163.8 Q 190.3 162.4 187.9 162.8 Q 185.4 163.3 183.1 164.3 Q 180.9 165.4 178.4 165.9 Q 176.0 166.3 173.9 165.0 Q 171.8 163.6 171.8 161.1 Q 171.8 158.6 170.6 156.4 Q 169.4 154.2 166.9 153.6 Q 164.5 153.1 162.3 151.8 Q 160.2 150.5 158.3 148.9 Q 156.5 147.2 154.1 146.4 Q 151.8 145.5 149.4 144.6 Q 147.1 143.7 145.3 145.4 Q 143.4 147.0 141.3 148.3 Q 139.1 149.7 138.3 152.0 Q 137.4 154.4 136.4 156.6 Q 135.3 158.9 134.2 161.1 Q 133.0 163.3 132.2 165.7 Q 131.3 168.0 131.0 170.5 Q 130.7 173.0 128.8 174.7 Q 127.0 176.4 124.9 177.8 Q 122.9 179.2 121.6 181.4 Q 120.3 183.5 120.1 186.0 Q 119.9 188.5 121.1 190.7 Q 122.3 192.9 123.9 194.8 Q 125.4 196.8 123.4 198.3 Q 121.5 199.9 122.2 202.3 Q 123.0 204.7 123.3 207.1 Q 123.6 209.6 123.7 212.1 Q 123.7 214.6 126.1 215.4 Q 128.5 216.2 130.9 215.4 Q 133.2 214.6 135.7 214.6 Q 138.2 214.5 140.0 212.7 Q 141.8 211.0 143.4 209.0 Q 144.9 207.1 145.9 204.8 Q 146.9 202.5 149.2 201.4 Q 151.4 200.3 153.5 201.7 Q 155.6 203.1 157.0 205.1 Q 158.5 207.2 160.3 208.9 Q 162.2 210.5 163.7 212.5 Q 165.2 214.5 167.1 216.2 Q 168.9 217.9 170.3 220.0 Q 171.6 222.1 174.1 222.1 Q 176.6 222.0 179.1 222.0 Q 181.6 221.9 183.9 223.0 Q 186.2 224.0 188.5 224.9 Q 190.9 225.7 192.4 223.7 Q 193.9 221.7 193.9 219.2 Q 194.0 216.8 194.2 214.3 Q 194.4 211.8 196.4 210.3 Q 198.4 208.8 199.8 206.8 Q 201.3 204.7 202.3 202.4 Q 203.3 200.2 200.9 199.3 Q 198.6 198.5 197.1 196.5 Q 195.5 194.5 197.4 192.8 Q 199.2 191.1 198.9 188.6 Q 198.7 186.1 200.9 185.0 Q 203.1 183.8 205.4 182.8 Q 207.7 181.9 210.0 180.8 Q 212.2 179.7 213.3 177.5 Q 214.3 175.2 215.6 173.0 Q 216.8 170.9 219.3 171.2 Q 221.8 171.6 223.4 169.7 Q 225.0 167.8 227.1 169.1 Q 229.2 170.5 231.7 170.2 Q 234.2 170.0 234.7 172.5 Q 235.2 174.9 236.2 177.2 Q 237.3 179.4 239.7 180.3 Q 242.0 181.2 244.5 181.2 Q 247.0 181.2 246.7 178.7 Q 246.4 176.2 245.8 173.8 Q 245.3 171.4 243.3 169.7 Q 241.4 168.1 241.3 165.6 Q 241.1 163.1 242.6 161.2 Q 244.1 159.2 245.7 157.3 Q 247.4 155.4 246.5 153.1 Q 245.5 150.7 244.9 148.3 Q 244.2 145.9 246.2 144.4 Q 248.2 142.8 249.7 140.9 Q 251.3 139.0 249.2 137.7 Q 247.1 136.4 244.6 136.0 Q 242.1 135.6 240.7 137.7 Q 239.4 139.8 237.7 141.7 Q 236.0 143.5 234.4 145.4 Q 232.8 147.3 230.4 146.5 Q 228.1 145.6 225.6 145.7 Q 223.1 145.7 220.7 145.0 Q 218.3 144.3 216.3 142.7 Q 214.3 141.2 211.9 141.5 Q 209.4 141.8 207.4 140.3 Q 205.5 138.7 203.0 138.8 Q 200.5 138.9 198.2 140.0 Q 196.0 141.1 193.5 140.8 Q 191.0 140.4 189.0 141.8 Q 187.0 143.3 187.1 145.8 Q 187.3 148.3 189.0 150.1 Q 190.8 151.8 192.0 154.0 Q 193.3 156.2 195.3 157.7 Q 197.3 159.2 197.6 161.7 Q 198.0 164.1 197.2 166.5 Q 196.5 168.9 194.2 170.0 Q 191.9 171.0 192.7 173.4 Q 193.6 175.7 195.3 177.5 Q 197.1 179.3 199.0 180.9 Q 200.9 182.5 203.3 181.7 Q 205.7 180.9 205.9 178.4 Q 206.0 176.0 206.2 173.5 Q 206.3 171.0 205.3 168.7 Q 204.2 166.4 205.3 164.1 Q 206.3 161.9 207.9 159.9 Q 209.4 158.0 211.1 156.1 Q 212.8 154.3 215.3 154.0 Q 217.8 153.6 220.2 153.3 Q 222.7 152.9 222.9 150.4 Q 223.0 147.9 220.5 147.9 Q 218.0 147.8 216.2 149.5 Q 214.3 151.2 212.7 153.1 Q 211.1 155.0 210.5 157.4 Q 209.8 159.9 210.6 162.2 Q 211.3 164.6 211.0 167.1 Q 210.8 169.6 208.7 171.1 Q 206.7 172.6 204.8 174.2 Q 202.9 175.8 201.4 177.8 Q 199.9 179.8 197.9 178.3 T 195.9 176.8" fill="none" stroke="#1a1d1f" stroke-width="1.7" stroke-linecap="round" stroke-linejoin="round"/>
  <path d="M 197.4 209.0 Q 195.9 213.8 195.1 216.1 Q 194.3 218.5 192.8 220.5 Q 191.2 222.4 190.4 220.1 Q 189.7 217.7 188.1 215.7 Q 186.5 213.8 184.8 211.9 Q 183.2 210.1 181.5 208.3 Q 179.7 206.5 177.3 205.9 Q 174.8 205.3 174.5 202.9 Q 174.1 200.4 173.3 198.0 Q 172.4 195.7 173.0 193.3 Q 173.6 190.8 175.6 192.3 Q 177.6 193.8 180.1 193.3 Q 182.5 192.7 182.5 195.2 Q 182.6 197.7 181.1 199.7 Q 179.5 201.7 177.9 203.6 Q 176.4 205.5 175.8 208.0 Q 175.2 210.4 175.8 212.8 Q 176.4 215.3 177.4 217.6 Q 178.4 219.8 178.6 222.3 Q 178.9 224.8 181.3 225.4 Q 183.7 226.1 185.6 224.5 Q 187.5 222.8 188.7 220.6 Q 189.8 218.4 192.3 218.4 Q 194.8 218.5 195.7 216.2 Q 196.6 213.8 196.9 211.3 Q 197.2 208.9 199.5 207.8 Q 201.7 206.7 203.9 205.5 Q 206.2 204.4 207.3 202.1 Q 208.5 199.9 210.8 199.0 Q 213.1 198.0 214.3 195.8 Q 215.5 193.6 213.6 195.3 Q 211.7 196.9 209.2 197.0 Q 206.7 197.1 204.3 197.3 Q 201.8 197.6 201.6 195.1 Q 201.4 192.6 203.6 191.3 Q 205.7 190.0 208.2 189.5 Q 210.6 189.0 212.1 191.0 Q 213.5 193.0 213.6 195.5 Q 213.7 198.0 212.1 199.9 Q 210.5 201.8 209.5 204.2 Q 208.6 206.5 211.1 206.5 Q 213.6 206.5 215.8 205.2 Q 217.9 204.0 220.4 204.3 Q 222.9 204.6 225.1 205.7 Q 227.4 206.8 229.6 205.8 Q 231.9 204.7 234.4 205.0 Q 236.8 205.3 238.9 206.6 Q 241.0 208.0 243.0 209.6 Q 244.9 211.1 243.9 213.4 Q 242.8 215.6 242.2 218.1 Q 241.6 220.5 241.7 223.0 Q 241.8 225.5 244.2 225.9 Q 246.7 226.3 249.2 226.7 Q 251.6 227.1 253.3 229.0 Q 255.0 230.8 257.4 230.2 Q 259.8 229.6 261.1 227.4 Q 262.3 225.3 262.5 222.8 Q 262.6 220.3 264.6 218.8 Q 266.6 217.2 268.1 215.2 Q 269.6 213.3 271.1 211.2 Q 272.6 209.2 275.0 208.6 Q 277.4 207.9 277.0 205.4 Q 276.6 203.0 277.7 200.7 Q 278.7 198.4 277.6 196.1 Q 276.6 193.9 277.4 191.5 Q 278.2 189.2 277.4 186.8 Q 276.6 184.4 275.1 182.4 Q 273.5 180.5 272.8 178.1 Q 272.2 175.7 272.5 173.2 Q 272.9 170.7 274.4 172.7 Q 276.0 174.6 273.5 175.2 Q 271.1 175.7 268.9 174.5 Q 266.8 173.2 265.0 175.0 Q 263.2 176.7 260.9 175.7 Q 258.6 174.7 256.4 173.6 Q 254.1 172.6 251.8 171.7 Q 249.4 170.8 247.0 171.2 Q 244.5 171.6 242.1 172.2 Q 239.6 172.8 237.7 171.1 Q 235.8 169.5 233.3 169.4 Q 230.9 169.3 228.7 168.1 Q 226.5 166.8 224.9 168.7 Q 223.3 170.6 222.1 172.8 Q 221.0 175.0 219.4 177.0 Q 217.8 178.9 219.9 180.4 Q 221.9 181.9 223.6 183.7 Q 225.3 185.6 227.6 186.4 Q 230.0 187.3 232.5 187.1 Q 234.9 186.9 237.1 185.7 Q 239.3 184.5 240.2 182.2 Q 241.0 179.8 241.3 177.3 Q 241.6 174.8 243.5 173.3 Q 245.5 171.7 246.6 169.5 Q 247.8 167.3 247.3 164.8 Q 246.8 162.4 246.6 159.9 Q 246.4 157.4 244.1 156.4 Q 241.8 155.4 239.4 154.6 Q 237.0 153.8 237.6 151.4 Q 238.2 148.9 240.7 149.0 Q 243.2 149.0 245.3 147.6 Q 247.4 146.3 249.5 144.8 Q 251.5 143.4 253.5 144.9 Q 255.6 146.3 257.8 147.3 Q 260.1 148.3 261.3 150.6 Q 262.4 152.8 263.3 155.1 Q 264.2 157.5 264.4 159.9 Q 264.6 162.4 265.1 164.9 Q 265.6 167.3 263.9 169.2 Q 262.3 171.1 262.2 173.6 Q 262.1 176.1 262.5 178.6 Q 262.9 181.1 265.0 182.5 Q 267.0 183.9 269.5 184.1 Q 272.0 184.4 273.3 186.5 Q 274.5 188.7 276.5 190.2 Q 278.5 191.7 276.9 193.5 Q 275.2 195.3 276.6 197.4 Q 278.0 199.5 277.7 201.9 Q 277.4 204.4 277.1 206.9 Q 276.8 209.4 275.8 211.7 Q 274.8 214.0 274.6 216.5 Q 274.3 219.0 274.0 221.4 Q 273.6 223.9 272.7 226.2 Q 271.8 228.6 270.4 230.7 Q 269.1 232.8 266.6 233.1 Q 264.1 233.4 261.7 234.0 Q 259.3 234.5 258.4 236.9 Q 257.5 239.2 255.3 240.2 Q 253.0 241.3 250.6 242.1 Q 248.3 243.0 245.8 242.9 Q 243.3 242.8 241.0 241.8 Q 238.7 240.7 236.7 239.3 Q 234.7 237.8 232.5 236.6 Q 230.3 235.4 229.0 233.3 Q 227.8 231.1 225.5 230.2 Q 223.2 229.3 221.1 227.9 Q 219.0 226.5 218.4 224.0 Q 217.9 221.6 216.0 220.0 Q 214.1 218.3 213.7 215.8 Q 213.4 213.4 211.4 211.8 Q 209.5 210.3 209.4 212.8 Q 209.4 215.3 211.2 217.0 Q 213.0 218.8 210.9 220.1 Q 208.8 221.5 206.3 221.2 Q 203.8 220.8 201.5 219.9 Q 199.1 219.1 196.7 218.7 Q 194.2 218.3 192.6 216.4 Q 191.0 214.5 189.8 212.3 Q 188.6 210.1 186.9 208.2 Q 185.3 206.4 186.3 204.1 Q 187.3 201.8 186.7 199.3 Q 186.1 196.9 188.1 195.3 Q 190.0 193.8 190.4 191.3 Q 190.7 188.8 190.9 186.3 Q 191.2 183.8 191.6 181.4 Q 191.9 178.9 194.4 178.3 Q 196.8 177.6 199.3 177.9 Q 201.7 178.2 203.2 180.2 Q 204.6 182.3 205.3 184.7 Q 206.0 187.1 204.1 188.8 Q 202.3 190.4 201.2 192.7 Q 200.2 195.0 201.1 197.3 Q 202.0 199.6 202.4 202.1 Q 202.8 204.6 205.3 204.9 Q 207.8 205.2 208.9 207.4 Q 210.0 209.6 210.3 212.1 Q 210.5 214.6 212.8 215.6 Q 215.1 216.6 217.4 217.5 Q 219.8 218.4 220.7 216.1 Q 221.7 213.8 223.2 211.8 Q 224.8 209.9 226.1 207.8 Q 227.5 205.7 225.8 203.8 Q 224.1 202.0 223.9 199.5 Q 223.8 197.0 224.7 194.6 Q 225.5 192.3 227.2 190.4 Q 228.8 188.5 229.8 190.8 Q 230.8 193.1 232.4 195.0 Q 234.1 196.9 235.9 198.5 Q 237.8 200.2 239.6 201.9 Q 241.5 203.5 243.6 204.9 Q 245.7 206.2 248.2 206.6 Q 250.7 207.0 253.0 208.0 Q 255.3 209.0 256.3 211.3 Q 257.3 213.6 256.0 215.6 Q 254.6 217.7 252.3 218.7 Q 250.0 219.7 247.9 221.1 Q 245.8 222.4 243.6 223.6 Q 241.4 224.8 242.5 222.6 Q 243.6 220.3 246.1 221.0 Q 248.5 221.6 250.8 220.8 Q 253.2 219.9 255.6 219.2 Q 258.0 218.6 259.8 216.8 Q 261.5 215.1 263.9 214.2 Q 266.2 213.4 268.7 212.9 Q 271.1 212.4 273.5 211.5 Q 275.8 210.6 276.1 208.1 Q 276.3 205.6 276.4 203.1 Q 276.5 200.6 276.0 198.2 Q 275.6 195.7 275.6 193.2 Q 275.7 190.7 275.4 188.2 Q 275.2 185.8 274.6 183.3 Q 274.0 180.9 271.8 179.7 Q 269.6 178.5 267.7 176.9 Q 265.8 175.3 264.4 177.4 Q 263.1 179.5 262.9 182.0 Q 262.7 184.5 264.2 186.5 Q 265.7 188.5 268.1 188.0 Q 270.6 187.5 271.7 185.2 Q 272.9 183.0 275.4 182.9 Q 277.8 182.8 278.2 185.3 Q 278.6 187.7 277.3 189.9 Q 276.1 192.0 273.7 192.9 Q 271.4 193.7 270.3 191.4 Q 269.3 189.2 269.0 186.7 Q 268.7 184.2 266.5 183.0 Q 264.3 181.9 262.8 179.9 Q 261.3 177.9 258.9 177.1 Q 256.5 176.3 254.2 177.1 Q 251.8 177.9 251.3 180.3 Q 250.7 182.8 248.3 183.3 Q 245.8 183.8 243.8 185.3 Q 241.7 186.7 239.3 186.2 Q 236.8 185.7 234.5 186.6 Q 232.2 187.5 229.8 188.2 Q 227.4 189.0 226.4 186.7 Q 225.4 184.4 223.8 182.5 Q 222.1 180.6 221.8 178.1 Q 221.4 175.6 220.4 173.4 Q 219.4 171.1 217.7 169.2 Q 216.0 167.4 214.3 169.1 Q 212.5 170.9 213.8 173.1 Q 215.1 175.2 217.5 174.5 Q 219.8 173.7 221.8 172.1 Q 223.7 170.5 225.6 172.1 Q 227.5 173.8 229.9 174.0 Q 232.4 174.2 233.4 176.6 Q 234.3 178.9 235.0 181.3 Q 235.6 183.7 235.6 186.2 Q 235.5 188.7 238.0 189.3 Q 240.4 190.0 242.9 189.8 Q 245.4 189.6 247.8 189.2 Q 250.3 188.9 251.2 191.2 Q 252.2 193.5 250.2 195.0 Q 248.2 196.6 247.2 194.3 Q 246.2 192.0 244.1 190.6 Q 242.0 189.2 241.9 186.7 Q 241.7 184.2 242.0 181.7 Q 242.2 179.2 244.6 178.3 Q 246.9 177.4 248.0 179.7 Q 249.1 181.9 248.6 184.4 T 248.1 186.8" fill="none" stroke="#1a1d1f" stroke-width="1.7" stroke-linecap="round" stroke-linejoin="round"/>
</svg>
