<svg xmlns="http://www.w3.org/2000/svg" viewBox="0 0 400 400" role="img" aria-hidden="true">
  <path d="M 193.0 186.0 Q 193.9 180.1 195.4 177.5 Q 197.0 175.0 198.1 172.2 Q 199.2 169.4 200.8 166.8 Q 202.3 164.3 203.4 161.5 Q 204.5 158.7 205.5 155.9 Q 206.6 153.1 206.9 150.1 Q 207.2 147.1 207.9 144.2 Q 208.6 141.2 210.8 139.2 Q 213.0 137.2 215.9 136.2 Q 218.7 135.3 221.6 134.8 Q 224.6 134.3 227.3 132.9 Q 229.9 131.5 232.8 130.5 Q 235.6 129.6 238.0 131.4 Q 240.4 133.2 240.5 136.2 Q 240.7 139.2 241.7 142.0 Q 242.8 144.8 245.6 143.9 Q 248.5 143.0 250.5 145.3 Q 252.4 147.5 250.7 150.0 Q 249.0 152.5 246.5 154.1 Q 243.9 155.7 241.6 157.5 Q 239.2 159.3 236.3 160.2 Q 233.4 161.0 230.5 160.5 Q 227.5 160.0 225.0 158.4 Q 222.4 156.8 220.2 154.8 Q 218.0 152.7 215.2 151.7 Q 212.4 150.7 209.8 152.2 Q 207.2 153.7 205.6 156.3 Q 204.1 158.8 204.2 161.8 Q 204.4 164.8 202.8 167.3 Q 201.2 169.9 199.0 172.0 Q 196.9 174.1 194.5 175.9 Q 192.2 177.8 189.4 178.9 Q 186.6 180.1 184.2 178.3 Q 181.8 176.5 178.8 176.3 Q 175.8 176.1 173.0 175.0 Q 170.2 174.0 167.3 174.9 Q 164.5 175.8 162.2 177.8 Q 159.9 179.7 158.5 182.4 Q 157.1 185.0 154.1 184.7 Q 151.1 184.4 148.1 184.6 Q 145.1 184.8 142.6 186.5 Q 140.1 188.1 139.3 191.0 Q 138.6 193.9 139.0 196.9 Q 139.5 199.8 137.6 202.2 Q 135.8 204.6 136.2 207.5 Q 136.6 210.5 138.3 213.0 Q 140.0 215.4 137.1 216.2 Q 134.2 217.0 131.4 216.2 Q 128.5 215.5 126.3 213.4 Q 124.1 211.3 122.0 209.2 Q 119.8 207.1 117.0 206.0 Q 114.3 204.9 111.3 204.4 Q 108.4 203.8 105.4 203.3 Q 102.5 202.7 103.1 205.6 Q 103.7 208.6 106.6 209.5 Q 109.4 210.5 111.1 208.0 Q 112.9 205.6 112.8 202.6 Q 112.7 199.6 111.5 196.8 Q 110.2 194.1 111.8 191.6 Q 113.3 189.0 112.7 186.1 Q 112.1 183.2 110.1 180.9 Q 108.1 178.7 105.4 180.0 Q 102.7 181.3 102.5 184.2 Q 102.4 187.2 103.3 190.1 Q 104.3 192.9 105.9 195.4 Q 107.6 197.9 109.6 200.2 Q 111.5 202.4 113.9 204.2 Q 116.3 206.0 119.2 207.0 Q 122.0 208.0 124.4 206.3 Q 126.9 204.5 129.2 206.4 Q 131.6 208.2 134.0 210.0 Q 136.5 211.7 139.1 213.1 Q 141.8 214.4 143.1 217.1 Q 144.3 219.9 145.7 222.5 Q 147.2 225.1 149.0 227.6 Q 150.7 230.0 153.3 231.5 Q 155.9 233.0 158.3 234.8 Q 160.8 236.5 162.8 238.7 Q 164.9 240.9 166.6 243.3 Q 168.3 245.8 169.9 248.4 Q 171.5 250.9 173.9 252.7 Q 176.2 254.5 178.6 256.4 Q 181.0 258.2 181.6 261.1 Q 182.3 264.1 182.3 267.1 Q 182.4 270.1 183.0 273.0 Q 183.7 275.9 186.3 277.4 Q 188.9 278.8 191.1 281.0 Q 193.2 283.1 192.7 286.0 Q 192.1 289.0 194.0 291.3 Q 196.0 293.6 196.9 296.5 Q 197.8 299.3 200.6 298.3 Q 203.4 297.2 205.2 294.8 Q 207.0 292.4 209.5 290.7 Q 212.0 289.0 214.3 291.0 Q 216.5 293.0 219.2 291.7 Q 221.9 290.4 224.8 289.8 Q 227.8 289.2 230.8 289.6 Q 233.7 290.1 236.6 290.8 Q 239.6 291.4 242.0 289.6 Q 244.4 287.9 244.5 284.9 Q 244.5 281.9 244.8 278.9 Q 245.1 275.9 245.4 272.9 Q 245.7 269.9 246.2 267.0 Q 246.6 264.0 245.4 261.3 Q 244.1 258.5 243.8 255.6 Q 243.5 252.6 240.6 252.9 Q 237.6 253.2 235.5 255.4 Q 233.5 257.6 232.1 260.3 Q 230.8 263.0 231.8 265.8 Q 232.8 268.7 235.5 270.0 Q 238.2 271.3 241.1 270.6 Q 244.0 269.8 245.2 272.6 Q 246.4 275.4 246.1 278.3 Q 245.8 281.3 244.8 284.1 Q 243.7 287.0 245.9 284.9 Q 248.1 282.8 250.6 281.3 Q 253.2 279.7 254.3 276.9 Q 255.3 274.1 255.6 271.1 Q 255.9 268.1 256.7 265.3 Q 257.6 262.4 257.9 259.4 Q 258.3 256.4 258.1 253.4 Q 257.9 250.4 259.0 247.6 Q 260.1 244.8 261.7 242.3 Q 263.3 239.8 265.7 237.9 Q 268.0 236.1 271.0 235.7 Q 274.0 235.3 276.9 235.0 Q 279.9 234.6 282.9 234.3 Q 285.9 234.0 288.9 234.3 Q 291.9 234.5 292.9 231.7 Q 293.9 228.9 294.7 226.0 Q 295.4 223.0 296.5 220.3 Q 297.6 217.5 297.1 214.5 Q 296.5 211.5 294.3 209.6 Q 292.0 207.6 290.5 205.0 Q 288.9 202.5 288.6 199.5 Q 288.2 196.5 286.8 193.9 Q 285.4 191.2 285.5 188.2 Q 285.7 185.2 288.3 183.7 Q 290.8 182.1 293.6 183.3 Q 296.3 184.5 297.5 187.3 Q 298.6 190.1 297.1 192.6 Q 295.6 195.2 294.9 198.2 Q 294.2 201.1 293.4 204.0 Q 292.6 206.9 290.5 209.0 Q 288.4 211.2 285.7 212.4 Q 282.9 213.6 280.4 215.1 Q 277.8 216.6 275.6 214.5 Q 273.5 212.4 271.5 210.1 Q 269.6 207.9 267.9 205.4 Q 266.2 202.9 266.9 200.0 Q 267.6 197.0 267.5 194.0 Q 267.4 191.0 268.9 188.4 Q 270.3 185.8 273.1 184.7 Q 275.9 183.6 278.6 185.0 Q 281.3 186.3 283.7 188.1 Q 286.1 189.8 284.9 192.6 Q 283.6 195.3 282.9 198.2 Q 282.2 201.1 282.0 204.1 Q 281.8 207.1 283.1 209.8 Q 284.4 212.5 286.4 214.7 Q 288.4 216.9 289.7 219.7 Q 290.9 222.4 291.8 225.3 Q 292.7 228.2 291.6 231.0 Q 290.6 233.8 289.2 236.5 Q 287.9 239.1 288.3 242.1 Q 288.7 245.1 286.1 246.5 Q 283.5 248.0 281.3 246.0 Q 279.1 244.0 280.6 241.4 Q 282.2 238.8 283.4 236.1 Q 284.6 233.3 286.8 231.3 Q 289.1 229.4 288.0 226.6 Q 287.0 223.7 285.8 221.0 Q 284.7 218.2 282.3 216.3 Q 280.0 214.4 277.0 214.4 Q 274.0 214.3 271.0 214.4 Q 268.0 214.6 265.0 214.2 Q 262.1 213.8 259.1 213.4 Q 256.1 213.0 253.1 212.8 Q 250.1 212.7 247.6 211.0 Q 245.1 209.4 242.1 209.5 Q 239.1 209.6 239.4 212.6 Q 239.8 215.6 242.8 215.3 Q 245.7 215.0 248.4 216.3 Q 251.2 217.6 249.4 220.1 Q 247.7 222.5 246.3 225.2 Q 245.0 227.8 244.5 230.8 Q 244.0 233.8 242.5 236.4 Q 241.0 239.0 239.4 241.4 Q 237.7 243.9 235.1 245.4 Q 232.5 246.9 229.6 247.6 Q 226.6 248.4 224.3 246.4 Q 222.0 244.5 222.7 241.6 Q 223.3 238.7 221.7 236.1 Q 220.0 233.6 217.0 233.7 Q 214.0 233.7 211.1 233.3 Q 208.1 233.0 205.1 232.4 Q 202.2 231.8 199.2 232.0 Q 196.2 232.2 194.3 234.5 Q 192.5 236.9 194.2 239.3 Q 195.9 241.7 197.1 244.5 Q 198.2 247.3 201.2 247.4 Q 204.2 247.6 207.0 246.4 Q 209.7 245.3 212.6 244.3 Q 215.4 243.4 218.4 242.8 Q 221.3 242.3 223.4 240.2 Q 225.5 238.0 228.5 237.4 Q 231.4 236.9 230.3 234.1 Q 229.1 231.3 226.6 229.6 Q 224.1 227.9 222.6 225.3 Q 221.1 222.8 222.6 220.2 Q 224.1 217.6 224.6 214.6 Q 225.0 211.7 226.0 208.8 Q 227.0 206.0 228.8 203.6 Q 230.7 201.2 233.7 201.1 Q 236.7 201.0 237.7 203.8 Q 238.8 206.6 239.5 209.5 Q 240.2 212.5 241.9 214.9 Q 243.6 217.4 242.7 220.3 Q 241.8 223.1 244.8 223.5 Q 247.7 223.9 250.7 223.3 Q 253.6 222.6 255.8 220.6 Q 257.9 218.5 259.2 215.8 Q 260.6 213.1 261.6 210.3 Q 262.6 207.4 265.0 209.2 Q 267.4 210.9 269.5 213.1 Q 271.6 215.2 274.5 216.1 Q 277.4 216.9 280.2 215.7 Q 282.9 214.6 285.8 215.4 Q 288.7 216.2 291.7 216.1 Q 294.7 216.1 293.2 218.7 Q 291.7 221.2 292.9 224.0 Q 294.1 226.7 292.0 228.9 Q 289.9 231.0 287.0 231.8 Q 284.1 232.6 281.4 233.8 Q 278.6 235.0 275.6 234.8 Q 272.7 234.5 269.9 235.6 Q 267.1 236.7 264.7 238.6 Q 262.3 240.4 260.7 242.9 Q 259.0 245.4 256.9 247.5 Q 254.8 249.7 251.9 250.4 Q 249.0 251.2 246.5 252.9 Q 244.1 254.5 243.8 257.5 Q 243.6 260.5 242.6 263.4 Q 241.7 266.2 239.3 268.0 Q 236.9 269.9 235.5 272.5 Q 234.0 275.1 231.2 276.1 Q 228.4 277.1 226.2 279.2 Q 224.0 281.2 224.1 284.2 Q 224.1 287.2 224.7 290.2 Q 225.2 293.1 222.3 292.7 Q 219.3 292.2 216.4 291.5 Q 213.5 290.8 210.6 290.1 Q 207.7 289.3 204.8 288.3 Q 202.0 287.4 199.3 286.1 Q 196.6 284.8 193.6 284.7 Q 190.6 284.6 189.1 287.2 Q 187.7 289.8 185.8 292.1 Q 183.9 294.5 186.8 294.9 Q 189.8 295.3 192.8 295.0 Q 195.8 294.8 197.5 292.3 Q 199.2 289.9 200.7 287.2 Q 202.1 284.6 203.7 282.1 Q 205.4 279.6 206.1 276.7 Q 206.9 273.8 206.1 270.8 Q 205.4 267.9 204.2 265.2 Q 202.9 262.5 201.1 260.1 Q 199.3 257.7 200.9 255.1 Q 202.4 252.6 201.4 249.7 Q 200.4 246.9 199.2 244.2 Q 198.1 241.4 197.2 238.5 Q 196.3 235.6 193.4 236.4 Q 190.5 237.2 189.4 240.0 Q 188.2 242.8 186.2 245.0 Q 184.2 247.2 184.5 250.2 Q 184.8 253.2 185.2 256.2 Q 185.6 259.1 186.7 261.9 Q 187.9 264.7 190.6 266.0 Q 193.3 267.3 196.2 266.3 Q 199.0 265.3 201.6 263.9 Q 204.3 262.4 206.9 263.9 Q 209.5 265.4 212.5 265.8 Q 215.4 266.2 216.2 269.1 Q 216.9 272.0 219.9 272.4 Q 222.9 272.9 225.9 273.1 Q 228.9 273.4 230.5 275.9 Q 232.1 278.4 230.3 280.8 Q 228.4 283.1 227.8 286.1 Q 227.2 289.0 225.9 291.7 Q 224.6 294.4 221.7 293.7 Q 218.8 293.1 215.8 293.2 Q 212.8 293.2 209.8 293.0 Q 206.8 292.8 203.8 292.6 Q 200.8 292.3 198.0 291.2 Q 195.2 290.2 192.3 290.9 Q 189.4 291.6 188.6 294.5 Q 187.8 297.4 185.0 296.3 Q 182.2 295.3 179.2 295.0 Q 176.2 294.6 173.2 295.0 Q 170.2 295.3 167.5 294.2 Q 164.7 293.0 163.8 290.2 Q 163.0 287.3 165.2 285.3 Q 167.5 283.3 170.4 282.6 Q 173.3 281.9 176.1 280.9 Q 179.0 279.9 181.8 280.9 Q 184.6 281.8 187.6 282.2 Q 190.6 282.6 189.4 279.9 Q 188.1 277.1 187.4 274.2 Q 186.7 271.3 186.5 268.3 Q 186.4 265.3 185.2 262.5 Q 184.1 259.8 181.3 258.6 Q 178.5 257.4 176.4 255.4 Q 174.2 253.3 171.5 251.9 Q 168.9 250.4 167.1 248.1 Q 165.2 245.7 162.5 244.5 Q 159.7 243.2 159.4 240.2 Q 159.0 237.3 161.1 235.1 Q 163.2 232.9 165.4 231.0 Q 167.7 229.0 169.8 226.8 Q 171.8 224.6 174.0 222.5 Q 176.1 220.4 177.0 217.6 Q 178.0 214.7 180.7 213.6 Q 183.5 212.4 185.9 210.5 Q 188.2 208.7 190.6 206.8 Q 192.9 205.0 195.5 206.5 Q 198.0 208.1 200.7 209.4 Q 203.5 210.6 205.6 212.7 Q 207.8 214.8 210.1 216.7 Q 212.4 218.7 214.7 220.5 Q 217.0 222.4 218.9 224.8 Q 220.9 227.1 222.5 229.6 Q 224.2 232.1 226.9 233.3 Q 229.6 234.6 231.4 237.0 Q 233.2 239.4 233.5 242.4 Q 233.8 245.4 231.2 247.0 Q 228.7 248.6 227.8 251.5 Q 226.9 254.3 226.0 257.2 Q 225.1 260.1 223.2 262.4 Q 221.3 264.7 218.3 265.0 Q 215.3 265.2 212.7 266.7 Q 210.1 268.2 207.7 270.0 Q 205.2 271.7 203.4 274.1 Q 201.5 276.4 198.6 276.2 Q 195.6 275.9 192.9 274.5 Q 190.2 273.2 187.3 272.5 Q 184.4 271.8 181.6 270.8 Q 178.7 269.7 177.9 266.9 Q 177.0 264.0 175.1 261.7 Q 173.2 259.3 171.6 256.8 Q 169.9 254.3 167.6 252.4 Q 165.4 250.4 163.4 248.1 Q 161.5 245.8 159.1 244.0 Q 156.8 242.1 155.6 239.3 Q 154.4 236.6 151.9 234.9 Q 149.4 233.3 146.5 232.9 Q 143.5 232.6 141.5 230.3 Q 139.6 228.0 138.9 225.1 Q 138.3 222.2 137.0 219.5 Q 135.7 216.8 136.1 213.8 Q 136.5 210.8 138.5 208.7 Q 140.6 206.5 142.7 204.3 Q 144.8 202.2 147.5 200.9 Q 150.2 199.6 153.0 198.6 Q 155.8 197.6 158.8 197.1 Q 161.8 196.7 164.8 196.8 Q 167.8 196.9 170.2 198.6 Q 172.7 200.3 175.6 201.0 Q 178.5 201.6 179.3 204.5 Q 180.0 207.4 181.3 210.1 Q 182.6 212.8 181.6 215.6 Q 180.6 218.5 178.8 220.9 Q 177.1 223.3 174.3 224.4 Q 171.4 225.4 168.5 224.9 Q 165.5 224.4 162.6 223.8 Q 159.7 223.1 159.1 220.1 Q 158.4 217.2 158.1 214.2 Q 157.8 211.2 156.3 208.6 Q 154.8 206.1 152.9 203.7 Q 151.0 201.4 148.8 203.3 Q 146.5 205.3 143.8 206.7 Q 141.2 208.0 138.6 206.4 Q 136.1 204.8 135.4 201.9 Q 134.8 198.9 132.3 197.2 Q 129.9 195.5 128.1 193.1 Q 126.4 190.6 125.6 187.7 Q 124.8 184.8 122.5 182.9 Q 120.2 180.9 117.4 182.0 Q 114.6 183.1 111.9 184.3 Q 109.1 185.5 106.2 184.8 Q 103.3 184.1 102.8 187.1 Q 102.3 190.0 103.5 192.8 Q 104.6 195.6 107.5 196.3 Q 110.4 197.0 113.3 196.3 Q 116.2 195.6 118.4 193.5 Q 120.5 191.4 122.4 189.1 Q 124.2 186.7 126.5 184.7 Q 128.8 182.8 131.4 181.2 Q 134.0 179.7 136.8 178.7 Q 139.6 177.7 142.4 176.7 Q 145.2 175.6 147.1 173.2 T 148.9 170.9" fill="none" stroke="#1a1d1f" stroke-width="2.0" stroke-linecap="round" stroke-linejoin="round"/>
</svg>
