<svg xmlns="http://www.w3.org/2000/svg" viewBox="0 0 400 400" role="img" aria-hidden="true">
  <path d="M 297.9 200.0 Q 307.1 211.3 310.5 217.7 Q 313.8 224.2 310.6 229.5 Q 307.4 234.9 305.3 240.4 Q 303.2 245.9 303.1 252.7 Q 303.0 259.5 301.1 265.8 Q 299.2 272.1 291.0 273.3 Q 282.7 274.5 281.5 281.8 Q 280.2 289.1 274.1 291.3 Q 267.9 293.4 259.3 290.7 Q 250.8 288.0 244.8 287.5 Q 238.8 287.1 233.3 286.4 Q 227.9 285.7 223.0 285.6 Q 218.2 285.6 213.3 282.5 Q 208.4 279.5 204.2 278.8 Q 200.0 278.1 195.6 280.5 Q 191.3 282.8 186.5 284.3 Q 181.8 285.7 177.1 285.3 Q 172.5 284.8 167.4 284.8 Q 162.3 284.7 155.5 286.7 Q 148.8 288.7 143.7 286.6 Q 138.6 284.5 131.2 284.5 Q 123.9 284.6 119.5 280.5 Q 115.1 276.4 105.2 276.3 Q 95.3 276.1 98.2 266.6 Q 101.0 257.1 93.5 253.9 Q 86.1 250.7 88.2 243.2 Q 90.3 235.6 87.2 230.1 Q 84.1 224.6 90.3 217.8 Q 96.5 210.9 95.9 205.4 Q 95.4 200.0 100.7 195.1 Q 106.0 190.1 111.2 186.2 Q 116.5 182.2 117.1 177.7 Q 117.7 173.3 124.0 171.1 Q 130.3 169.0 130.5 164.5 Q 130.7 160.0 133.3 156.7 Q 135.8 153.4 136.2 148.1 Q 136.6 142.9 139.8 139.8 Q 143.0 136.7 143.5 129.8 Q 144.0 122.9 146.9 117.9 Q 149.8 113.0 153.4 108.3 Q 157.1 103.6 160.7 97.0 Q 164.4 90.5 169.7 86.6 Q 175.1 82.7 181.2 80.7 Q 187.3 78.8 193.6 78.6 Q 200.0 78.3 206.1 81.4 Q 212.1 84.5 217.1 90.6 Q 222.0 96.6 228.2 95.5 Q 234.4 94.3 238.9 98.3 Q 243.5 102.4 245.8 109.5 Q 248.2 116.6 251.9 120.0 Q 255.6 123.4 256.5 129.9 Q 257.3 136.4 261.6 138.5 Q 266.0 140.6 264.6 147.3 Q 263.2 154.1 267.3 156.4 Q 271.3 158.8 271.8 163.3 Q 272.3 167.8 273.9 171.7 Q 275.5 175.5 279.3 178.9 Q 283.1 182.3 287.4 186.3 Q 291.7 190.4 294.8 195.2 T 297.9 200.0" fill="none" stroke="#1a1d1f" stroke-width="2.2" stroke-linecap="round" stroke-linejoin="round"/>
</svg>
