<svg xmlns="http://www.w3.org/2000/svg" viewBox="0 0 400 400" role="img" aria-hidden="true">
  <path d="M 232.4 200.0 Q 233.3 202.0 232.3 202.8 Q 231.2 203.7 228.2 204.1 Q 225.2 204.5 227.7 205.9 Q 230.1 207.2 228.5 207.7 Q 226.8 208.1 229.1 209.8 Q 231.3 211.6 228.6 211.5 Q 225.9 211.3 229.1 213.9 Q 232.2 216.4 231.2 217.0 Q 230.2 217.7 232.2 220.3 Q 234.3 222.9 231.6 222.4 Q 228.9 221.8 228.5 223.0 Q 228.2 224.1 226.2 223.6 Q 224.1 223.2 223.1 223.6 Q 222.1 224.0 224.0 227.7 Q 225.8 231.5 223.5 230.4 Q 221.2 229.2 220.8 230.6 Q 220.5 232.0 219.4 232.3 Q 218.3 232.6 217.8 234.1 Q 217.2 235.6 214.5 231.9 Q 211.7 228.2 210.9 228.7 Q 210.1 229.1 210.4 233.7 Q 210.8 238.2 210.4 241.8 Q 209.9 245.3 207.4 238.1 Q 204.9 230.8 204.2 233.3 Q 203.5 235.9 202.5 237.8 Q 201.6 239.8 200.4 238.6 Q 199.3 237.4 198.1 237.9 Q 197.0 238.4 195.8 238.3 Q 194.7 238.2 193.1 240.6 Q 191.5 243.0 190.6 241.2 Q 189.7 239.5 188.4 239.5 Q 187.1 239.6 186.8 237.0 Q 186.6 234.3 184.1 237.2 Q 181.6 240.0 179.4 241.3 Q 177.2 242.6 177.0 240.3 Q 176.7 238.0 176.5 236.0 Q 176.3 234.0 176.3 232.0 Q 176.3 230.1 173.2 231.9 Q 170.1 233.6 169.1 232.8 Q 168.0 232.0 167.9 230.3 Q 167.8 228.6 169.9 225.4 Q 171.9 222.1 168.8 223.0 Q 165.8 223.9 165.5 222.6 Q 165.2 221.3 164.1 220.6 Q 163.0 219.8 160.4 219.6 Q 157.8 219.5 159.3 217.4 Q 160.8 215.3 158.9 214.7 Q 156.9 214.0 153.6 213.5 Q 150.3 213.0 153.6 210.8 Q 156.8 208.6 155.1 207.5 Q 153.5 206.4 151.9 205.2 Q 150.3 203.9 152.3 202.4 Q 154.4 200.9 155.9 199.6 Q 157.4 198.3 154.0 196.7 Q 150.7 195.1 149.6 193.5 Q 148.5 191.8 153.3 191.3 Q 158.2 190.8 155.8 188.8 Q 153.4 186.9 154.0 185.6 Q 154.5 184.2 151.9 181.6 Q 149.2 178.9 154.5 179.7 Q 159.8 180.5 158.1 178.0 Q 156.4 175.6 158.9 175.4 Q 161.4 175.3 161.3 173.6 Q 161.2 171.8 160.5 169.4 Q 159.8 167.0 161.2 166.2 Q 162.6 165.4 163.2 163.9 Q 163.9 162.5 165.6 162.1 Q 167.4 161.8 169.3 162.0 Q 171.3 162.1 169.8 157.3 Q 168.3 152.6 169.1 150.6 Q 169.9 148.7 172.7 150.2 Q 175.4 151.6 177.0 151.4 Q 178.6 151.1 178.9 147.4 Q 179.3 143.8 181.3 144.5 Q 183.4 145.2 185.1 145.0 Q 186.8 144.9 188.2 143.2 Q 189.6 141.5 191.7 144.4 Q 193.8 147.2 195.3 146.8 Q 196.8 146.4 198.4 144.5 Q 200.0 142.5 201.6 144.7 Q 203.1 146.8 205.0 144.6 Q 206.8 142.5 208.6 142.2 Q 210.4 141.9 212.3 141.5 Q 214.1 141.1 215.9 141.5 Q 217.6 141.9 218.2 145.6 Q 218.7 149.3 221.2 147.6 Q 223.7 145.9 225.7 145.7 Q 227.8 145.5 230.0 145.2 Q 232.3 144.8 234.0 145.7 Q 235.7 146.6 235.9 149.4 Q 236.2 152.2 237.7 153.1 Q 239.3 154.0 239.5 156.4 Q 239.7 158.7 241.9 158.9 Q 244.2 159.2 245.0 160.8 Q 245.8 162.4 246.3 164.2 Q 246.7 166.0 249.4 166.4 Q 252.1 166.7 255.3 167.0 Q 258.5 167.3 260.4 168.5 Q 262.4 169.7 261.3 172.4 Q 260.2 175.1 260.3 177.1 Q 260.4 179.1 261.9 180.6 Q 263.4 182.1 264.9 183.8 Q 266.3 185.4 266.4 187.5 Q 266.5 189.5 266.7 191.4 Q 266.8 193.4 266.1 195.4 Q 265.3 197.4 265.3 199.4 Q 265.4 201.3 270.0 203.6 Q 274.6 205.9 272.4 207.8 Q 270.2 209.7 266.6 211.1 Q 263.0 212.5 265.7 215.2 Q 268.4 217.8 265.3 219.0 Q 262.1 220.2 263.4 222.7 Q 264.6 225.3 262.7 226.7 Q 260.8 228.0 261.4 230.6 Q 261.9 233.1 259.7 234.2 Q 257.6 235.3 257.1 237.4 Q 256.6 239.4 256.6 242.0 Q 256.6 244.6 255.5 246.5 Q 254.4 248.4 250.0 246.9 Q 245.5 245.5 247.9 251.1 Q 250.4 256.7 245.0 253.4 Q 239.6 250.2 238.8 252.4 Q 238.1 254.6 237.4 257.3 Q 236.8 260.0 236.0 262.9 Q 235.1 265.8 232.8 265.9 Q 230.5 266.1 228.3 266.3 Q 226.0 266.5 225.0 270.1 Q 223.9 273.7 221.4 272.8 Q 218.8 271.9 216.6 272.4 Q 214.5 272.9 212.6 275.0 Q 210.7 277.1 208.2 274.7 Q 205.7 272.4 203.7 277.9 Q 201.6 283.4 199.2 282.0 Q 196.8 280.5 194.7 278.1 Q 192.5 275.8 190.3 275.8 Q 188.0 275.9 185.7 275.8 Q 183.4 275.8 180.8 276.4 Q 178.3 277.0 176.2 275.9 Q 174.1 274.8 172.7 272.1 Q 171.3 269.3 169.4 268.2 Q 167.4 267.1 163.5 269.7 Q 159.6 272.2 159.8 267.2 Q 160.1 262.3 157.6 262.0 Q 155.1 261.8 150.9 263.4 Q 146.7 265.0 147.9 260.0 Q 149.2 255.0 144.9 256.1 Q 140.6 257.2 138.1 256.1 Q 135.6 255.0 131.9 254.7 Q 128.2 254.3 128.2 251.2 Q 128.2 248.0 128.5 244.9 Q 128.7 241.8 129.4 238.7 Q 130.1 235.6 124.9 235.4 Q 119.7 235.1 118.8 232.7 Q 117.9 230.3 116.3 228.1 Q 114.8 225.9 114.0 223.4 Q 113.1 220.9 115.2 217.8 Q 117.2 214.8 117.3 212.3 Q 117.5 209.8 118.5 207.3 Q 119.5 204.7 116.5 202.4 Q 113.4 200.0 112.6 197.4 Q 111.8 194.8 114.5 192.5 Q 117.2 190.2 115.9 187.5 Q 114.5 184.7 113.5 181.9 Q 112.5 179.0 112.0 176.1 Q 111.6 173.2 116.2 172.0 Q 120.8 170.8 120.8 168.0 Q 120.7 165.3 122.8 163.5 Q 124.9 161.7 126.0 159.5 Q 127.0 157.2 125.5 153.2 Q 123.9 149.2 125.2 146.7 Q 126.4 144.3 129.9 143.7 Q 133.3 143.1 134.7 140.8 Q 136.1 138.6 138.3 137.1 Q 140.5 135.7 139.6 130.4 Q 138.6 125.2 143.3 126.9 Q 148.1 128.6 149.9 126.5 Q 151.7 124.5 154.3 123.8 Q 156.9 123.1 158.0 119.3 Q 159.0 115.5 162.3 116.1 Q 165.5 116.8 168.8 118.0 Q 172.0 119.2 173.3 114.6 Q 174.6 110.0 177.3 109.4 Q 180.0 108.7 182.7 108.6 Q 185.5 108.5 188.2 107.6 Q 190.8 106.6 193.5 105.9 Q 196.3 105.2 199.1 104.8 Q 201.9 104.4 204.8 102.9 Q 207.8 101.5 210.6 102.4 Q 213.4 103.4 216.3 103.1 Q 219.3 102.9 222.1 103.9 Q 224.8 105.0 227.5 105.9 Q 230.2 106.9 232.6 108.8 Q 235.0 110.7 237.8 111.3 Q 240.6 112.0 242.1 115.2 Q 243.6 118.5 248.3 116.0 Q 253.0 113.5 256.6 113.6 Q 260.2 113.7 260.4 118.4 Q 260.5 123.2 261.8 126.1 Q 263.1 129.0 266.9 129.1 Q 270.7 129.3 272.0 132.1 Q 273.3 134.9 277.0 135.6 Q 280.7 136.3 278.9 141.3 Q 277.1 146.3 283.7 145.5 Q 290.3 144.7 291.7 147.4 Q 293.2 150.2 293.1 153.7 Q 293.0 157.1 290.1 161.5 Q 287.1 165.9 291.3 167.4 Q 295.5 169.0 299.7 170.9 Q 304.0 172.9 302.4 176.4 Q 300.8 179.9 299.6 183.2 Q 298.4 186.4 300.8 189.1 Q 303.1 191.9 303.2 194.9 Q 303.3 198.0 301.2 200.9 Q 299.1 203.9 301.2 207.0 Q 303.2 210.2 304.8 213.5 Q 306.4 216.9 306.0 220.0 Q 305.6 223.2 305.1 226.3 Q 304.6 229.5 302.7 232.2 Q 300.7 234.9 298.0 237.2 Q 295.4 239.5 295.3 242.8 Q 295.2 246.2 297.1 250.8 Q 299.1 255.5 295.4 257.1 Q 291.7 258.7 290.3 261.6 Q 288.8 264.5 284.5 265.1 Q 280.1 265.7 281.1 270.8 Q 282.2 275.9 278.8 277.2 Q 275.4 278.4 274.8 282.6 Q 274.2 286.8 269.5 286.2 Q 264.8 285.6 262.6 288.0 Q 260.4 290.4 257.6 292.0 Q 254.9 293.6 251.8 294.7 Q 248.8 295.8 246.2 297.8 Q 243.6 299.8 241.0 301.9 Q 238.4 304.1 235.3 305.0 Q 232.1 306.0 229.2 307.6 Q 226.2 309.2 223.5 313.0 Q 220.8 316.7 217.1 315.0 Q 213.4 313.2 210.1 313.6 Q 206.7 314.0 203.4 312.0 Q 200.0 310.0 196.5 314.7 Q 193.0 319.4 190.0 314.6 Q 187.0 309.7 184.2 307.0 Q 181.4 304.2 177.3 307.7 Q 173.3 311.3 169.9 310.9 Q 166.4 310.6 164.0 307.5 Q 161.5 304.4 156.7 307.1 Q 152.0 309.8 151.2 303.6 Q 150.4 297.3 147.4 296.1 Q 144.4 294.9 140.1 295.5 Q 135.8 296.1 133.2 293.9 Q 130.7 291.6 127.8 289.8 Q 124.9 288.0 121.1 286.9 Q 117.4 285.9 115.9 282.6 Q 114.3 279.2 109.7 278.6 Q 105.1 277.9 107.0 272.0 Q 109.0 266.1 103.8 265.5 Q 98.6 264.9 94.2 263.3 Q 89.8 261.7 91.0 257.0 Q 92.2 252.3 89.6 249.6 Q 86.9 246.8 84.6 243.8 Q 82.2 240.8 83.1 236.8 Q 83.9 232.7 83.6 229.2 Q 83.2 225.6 86.5 221.5 Q 89.8 217.5 85.9 214.5 Q 82.0 211.6 78.3 208.3 Q 74.6 204.9 76.3 201.3 Q 78.1 197.6 79.7 194.1 Q 81.3 190.7 79.2 186.8 Q 77.1 183.0 78.0 179.5 Q 78.8 175.9 78.8 172.1 Q 78.8 168.4 80.8 165.1 Q 82.8 161.9 82.6 157.9 Q 82.4 154.0 85.7 151.4 Q 89.1 148.9 86.4 143.4 Q 83.8 137.9 87.6 135.6 Q 91.3 133.4 94.7 131.1 Q 98.0 128.9 98.6 124.7 Q 99.3 120.6 102.4 118.3 Q 105.5 116.1 107.7 112.9 Q 109.8 109.8 113.4 108.2 Q 117.0 106.6 119.5 103.8 Q 121.9 101.0 124.9 98.8 Q 128.0 96.7 131.0 94.5 Q 134.0 92.3 136.4 89.0 Q 138.9 85.6 143.1 85.7 Q 147.3 85.7 150.6 84.0 Q 153.9 82.3 156.9 79.5 Q 159.9 76.7 164.2 77.8 Q 168.4 78.9 171.6 76.1 Q 174.8 73.4 178.5 72.1 Q 182.1 70.8 185.9 70.1 Q 189.7 69.5 193.6 69.8 Q 197.4 70.1 201.1 74.8 Q 204.7 79.4 208.8 74.3 Q 212.9 69.2 216.8 69.1 Q 220.7 69.1 224.2 71.6 Q 227.6 74.1 232.1 72.1 Q 236.6 70.2 239.9 72.9 Q 243.1 75.6 246.3 78.2 Q 249.4 80.7 253.3 81.3 Q 257.3 81.9 261.2 82.8 Q 265.1 83.7 268.0 86.6 Q 270.8 89.4 274.2 91.3 Q 277.6 93.2 282.2 93.8 Q 286.7 94.3 290.9 95.7 Q 295.2 97.1 295.4 102.5 Q 295.7 108.0 298.3 110.9 Q 300.9 113.9 306.8 114.3 Q 312.7 114.7 312.3 120.0 Q 311.9 125.2 314.3 128.4 Q 316.6 131.7 318.7 135.0 Q 320.9 138.4 323.5 141.6 Q 326.1 144.9 327.9 148.5 Q 329.7 152.1 331.7 155.8 Q 333.6 159.5 336.3 163.1 Q 338.9 166.7 339.0 170.9 Q 339.1 175.2 340.3 179.2 Q 341.5 183.3 337.6 187.7 T 333.6 192.1" fill="none" stroke="#1a1d1f" stroke-width="2.2" stroke-linecap="round" stroke-linejoin="round"/>
</svg>
