<svg xmlns="http://www.w3.org/2000/svg" viewBox="0 0 400 400" role="img" aria-hidden="true">
  <path d="M 205.6 181.0 Q 203.5 187.7 200.2 189.0 Q 196.9 190.3 194.8 193.0 Q 192.6 195.7 193.8 199.0 Q 195.0 202.3 194.6 205.7 Q 194.1 209.2 192.7 212.4 Q 191.2 215.6 188.7 218.0 Q 186.2 220.4 183.5 222.6 Q 180.8 224.9 178.4 227.4 Q 176.0 230.0 173.6 232.5 Q 171.2 235.1 168.3 237.0 Q 165.3 238.9 161.9 238.2 Q 158.5 237.6 155.0 238.2 Q 151.6 238.9 148.2 239.9 Q 144.9 240.9 143.4 244.1 Q 142.0 247.3 142.3 250.8 Q 142.7 254.3 140.0 256.5 Q 137.3 258.7 134.5 260.8 Q 131.7 262.9 129.2 265.4 Q 126.8 267.9 125.8 271.2 Q 124.8 274.6 121.7 276.3 Q 118.6 278.0 115.8 275.9 Q 113.0 273.8 110.0 272.1 Q 106.9 270.3 104.3 268.0 Q 101.7 265.7 101.8 262.2 Q 101.9 258.7 104.0 255.9 Q 106.0 253.1 105.5 249.6 Q 104.9 246.2 102.5 243.6 Q 100.1 241.1 97.5 238.8 Q 94.9 236.5 91.4 236.3 Q 87.9 236.1 84.9 234.2 Q 82.0 232.3 78.9 230.7 Q 75.8 229.1 72.7 230.7 Q 69.6 232.4 69.7 235.9 Q 69.8 239.4 72.4 241.8 Q 75.0 244.1 78.5 244.1 Q 82.0 244.1 84.5 241.7 Q 87.0 239.3 88.4 236.1 Q 89.8 232.9 92.3 230.5 Q 94.8 228.0 97.6 225.8 Q 100.3 223.7 102.9 221.3 Q 105.6 219.0 108.6 217.3 Q 111.7 215.6 114.8 214.0 Q 117.9 212.4 121.3 211.6 Q 124.7 210.8 128.0 209.6 Q 131.3 208.4 134.5 209.7 Q 137.7 211.1 141.2 211.3 Q 144.7 211.5 147.8 213.1 Q 151.0 214.6 153.9 216.5 Q 156.9 218.4 158.8 221.3 Q 160.8 224.2 160.3 227.6 Q 159.8 231.1 160.3 234.6 Q 160.9 238.0 162.3 241.2 Q 163.8 244.4 165.8 247.2 Q 167.9 250.0 170.1 252.7 Q 172.3 255.5 175.3 257.3 Q 178.2 259.2 181.0 257.1 Q 183.8 255.0 186.9 256.7 Q 190.0 258.4 193.5 258.6 Q 197.0 258.7 200.1 257.1 Q 203.2 255.5 205.3 252.7 Q 207.5 249.9 206.4 246.6 Q 205.3 243.3 204.5 239.9 Q 203.6 236.5 201.5 233.7 Q 199.4 230.8 198.9 227.4 Q 198.3 223.9 198.0 220.5 Q 197.8 217.0 197.4 213.5 Q 197.0 210.0 197.9 206.6 Q 198.8 203.2 202.2 202.4 Q 205.5 201.5 208.3 199.4 Q 211.1 197.2 213.1 194.4 Q 215.1 191.5 218.5 190.7 Q 221.9 189.9 223.2 186.6 Q 224.5 183.4 227.6 181.8 Q 230.7 180.3 233.0 177.6 Q 235.3 174.9 237.8 172.5 Q 240.3 170.1 242.9 167.7 Q 245.5 165.4 249.0 165.2 Q 252.5 165.1 255.9 164.7 Q 259.4 164.4 262.3 166.5 Q 265.1 168.5 266.8 171.6 Q 268.4 174.7 271.0 177.0 Q 273.6 179.4 275.2 182.5 Q 276.7 185.7 273.3 186.2 Q 269.8 186.8 266.6 188.2 Q 263.4 189.5 260.2 191.0 Q 257.0 192.4 253.5 193.0 Q 250.1 193.5 246.6 193.8 Q 243.1 194.2 240.6 196.6 Q 238.1 199.0 237.7 202.5 Q 237.3 206.0 237.6 209.5 Q 237.8 212.9 237.8 216.4 Q 237.7 219.9 241.1 220.8 Q 244.5 221.6 244.8 225.1 Q 245.1 228.6 248.6 228.8 Q 252.1 228.9 255.5 228.2 Q 258.9 227.4 262.3 226.8 Q 265.8 226.2 269.2 225.4 Q 272.6 224.6 275.8 223.3 Q 279.1 222.0 280.4 218.8 Q 281.6 215.5 281.4 212.0 Q 281.3 208.5 280.7 205.1 Q 280.2 201.6 279.1 198.3 Q 278.0 194.9 276.2 191.9 Q 274.5 188.9 271.4 187.3 Q 268.3 185.6 265.7 183.3 Q 263.1 181.0 263.9 177.6 Q 264.7 174.2 264.4 170.7 Q 264.1 167.2 263.6 163.7 Q 263.1 160.3 264.8 157.2 Q 266.5 154.1 269.5 152.3 Q 272.5 150.5 275.4 152.4 Q 278.4 154.2 280.7 156.9 Q 282.9 159.6 285.9 161.4 Q 288.9 163.1 292.4 163.3 Q 295.9 163.5 299.0 161.7 Q 302.0 160.0 305.5 160.0 Q 309.0 160.0 311.5 162.5 Q 314.0 164.9 317.5 164.4 Q 320.9 163.9 324.2 162.5 Q 327.4 161.2 328.3 157.8 Q 329.2 154.5 327.8 151.2 Q 326.5 148.0 325.0 144.8 Q 323.5 141.7 322.3 138.4 Q 321.1 135.1 320.5 131.6 Q 320.0 128.2 318.0 125.4 Q 315.9 122.5 313.1 120.5 Q 310.3 118.4 306.8 117.6 Q 303.4 116.8 302.4 113.4 Q 301.5 110.1 299.5 107.2 Q 297.5 104.3 296.1 101.1 Q 294.8 97.8 291.8 96.1 Q 288.7 94.3 285.4 93.2 Q 282.1 92.1 278.8 91.0 Q 275.5 89.8 272.3 88.4 Q 269.1 87.1 266.0 88.9 Q 263.0 90.6 259.5 91.0 Q 256.1 91.4 252.8 90.2 Q 249.5 89.0 246.0 89.2 Q 242.5 89.4 239.1 90.1 Q 235.6 90.8 232.2 90.0 Q 228.8 89.3 225.4 90.0 Q 221.9 90.8 218.4 90.9 Q 214.9 91.1 212.1 89.1 Q 209.2 87.0 206.3 85.1 Q 203.4 83.2 199.9 82.5 Q 196.5 81.8 193.4 83.4 Q 190.3 85.0 189.0 81.7 Q 187.7 78.5 185.4 75.8 Q 183.0 73.2 179.8 72.0 Q 176.5 70.7 173.0 70.4 Q 169.5 70.1 166.0 69.9 Q 162.5 69.7 159.1 69.2 Q 155.6 68.8 152.1 69.2 Q 148.6 69.7 145.5 71.2 Q 142.4 72.8 139.7 75.0 Q 136.9 77.2 134.1 79.3 Q 131.3 81.3 128.1 82.8 Q 124.9 84.3 122.3 86.5 Q 119.6 88.8 117.7 91.7 Q 115.7 94.6 112.3 94.9 Q 108.8 95.2 106.1 97.5 Q 103.4 99.7 101.3 102.5 Q 99.2 105.3 96.7 107.7 Q 94.1 110.1 92.1 113.0 Q 90.0 115.8 89.0 119.2 Q 88.0 122.5 84.8 123.9 Q 81.6 125.3 78.4 126.6 Q 75.1 128.0 74.7 131.5 Q 74.3 134.9 74.9 138.4 Q 75.4 141.9 75.2 145.4 Q 74.9 148.9 77.7 151.0 Q 80.5 153.1 83.0 155.5 Q 85.6 157.9 87.6 160.8 Q 89.5 163.7 92.6 165.3 Q 95.8 166.8 98.5 169.1 Q 101.1 171.3 104.6 170.7 Q 108.0 170.1 111.5 170.2 Q 115.0 170.2 117.7 167.9 Q 120.3 165.6 118.5 162.6 Q 116.6 159.6 116.3 156.2 Q 115.9 152.7 116.7 149.3 Q 117.5 145.9 116.3 142.6 Q 115.0 139.3 116.9 136.3 Q 118.8 133.4 120.7 130.5 Q 122.6 127.5 125.4 125.4 Q 128.2 123.3 129.5 120.1 Q 130.8 116.8 132.7 113.9 Q 134.6 110.9 136.2 107.8 Q 137.9 104.7 140.6 102.6 Q 143.4 100.4 146.8 99.9 Q 150.3 99.4 153.5 98.0 Q 156.7 96.6 160.2 96.7 Q 163.7 96.8 166.7 95.1 Q 169.8 93.4 170.1 96.9 Q 170.4 100.4 168.5 103.3 Q 166.6 106.3 163.2 107.2 Q 159.9 108.1 159.6 111.5 Q 159.4 115.0 156.4 116.8 Q 153.4 118.6 151.5 121.6 Q 149.7 124.6 147.0 126.9 Q 144.3 129.1 140.9 129.7 Q 137.4 130.2 133.9 130.3 Q 130.4 130.4 127.4 128.6 Q 124.3 126.9 122.5 123.9 Q 120.7 121.0 119.4 117.7 Q 118.2 114.4 118.4 110.9 Q 118.7 107.4 118.8 103.9 Q 118.9 100.4 119.4 97.0 Q 120.0 93.5 121.5 90.4 Q 123.0 87.2 119.5 87.5 Q 116.0 87.9 112.7 88.8 Q 109.3 89.8 106.1 91.1 Q 102.8 92.4 100.8 95.3 Q 98.9 98.2 98.4 101.7 Q 97.9 105.2 98.5 108.6 Q 99.1 112.1 101.1 115.0 Q 103.0 117.9 100.5 120.3 Q 98.1 122.8 97.4 126.2 Q 96.7 129.7 97.2 133.1 Q 97.7 136.6 98.2 140.1 Q 98.7 143.5 99.8 146.8 Q 101.0 150.1 103.7 152.3 Q 106.4 154.5 109.7 155.7 Q 113.0 156.9 116.0 158.7 Q 119.0 160.6 122.3 161.6 Q 125.7 162.5 128.8 164.2 Q 131.8 165.9 135.0 167.5 Q 138.1 169.0 140.7 171.3 Q 143.3 173.7 143.8 177.2 Q 144.3 180.6 145.5 183.9 Q 146.6 187.2 148.9 189.9 Q 151.1 192.6 150.6 196.1 Q 150.0 199.5 147.2 201.6 Q 144.4 203.7 141.5 205.7 Q 138.6 207.7 135.2 207.2 Q 131.7 206.8 128.3 207.8 Q 125.0 208.8 122.3 211.0 Q 119.6 213.2 118.5 216.5 Q 117.4 219.9 117.5 223.4 Q 117.6 226.9 116.5 230.2 Q 115.4 233.5 114.8 237.0 Q 114.3 240.4 114.0 243.9 Q 113.7 247.4 114.8 250.7 Q 115.9 254.1 118.8 256.0 Q 121.6 258.0 123.2 261.2 Q 124.8 264.3 126.8 267.1 Q 128.8 270.0 129.4 273.5 Q 129.9 276.9 130.5 280.4 Q 131.0 283.8 132.3 287.1 Q 133.6 290.3 136.2 288.1 Q 138.9 285.8 142.3 285.1 Q 145.7 284.4 149.2 284.5 Q 152.7 284.5 156.2 284.6 Q 159.7 284.6 163.2 285.0 Q 166.7 285.4 169.7 287.2 Q 172.7 288.9 172.7 292.4 Q 172.7 295.9 174.3 299.1 Q 175.9 302.2 176.2 305.7 Q 176.5 309.2 178.0 312.3 Q 179.5 315.5 179.0 318.9 Q 178.6 322.4 175.7 324.3 Q 172.7 326.2 170.3 328.7 Q 167.8 331.2 170.4 333.6 Q 173.0 335.9 175.7 338.1 Q 178.5 340.2 182.0 340.2 Q 185.5 340.2 188.9 341.1 Q 192.3 342.0 195.7 341.2 Q 199.1 340.4 202.2 338.8 Q 205.3 337.1 208.6 338.1 Q 212.0 339.1 215.4 338.8 Q 218.9 338.4 222.4 337.7 Q 225.8 336.9 228.8 335.2 Q 231.8 333.4 235.1 332.1 Q 238.3 330.9 240.8 328.4 Q 243.3 325.9 245.4 323.1 Q 247.5 320.3 247.4 316.9 Q 247.2 313.4 245.3 310.4 Q 243.4 307.5 242.2 304.2 Q 240.9 300.9 242.3 297.7 Q 243.6 294.5 244.8 291.2 Q 245.9 287.9 248.8 285.9 Q 251.7 283.9 255.1 284.9 Q 258.4 285.8 261.7 284.8 Q 265.1 283.7 268.5 284.3 Q 272.0 284.8 275.1 286.5 Q 278.2 288.1 281.3 289.7 Q 284.4 291.3 287.4 293.0 Q 290.5 294.8 293.3 296.8 Q 296.1 298.9 298.6 296.4 Q 301.0 293.8 303.2 291.1 Q 305.5 288.4 308.1 286.2 Q 310.7 283.9 311.8 280.5 Q 312.8 277.2 313.3 273.7 Q 313.7 270.2 314.8 266.9 Q 316.0 263.6 317.2 260.3 Q 318.4 257.0 321.7 255.9 Q 325.0 254.7 326.5 251.6 Q 327.9 248.4 326.1 245.4 Q 324.2 242.5 321.5 240.2 Q 318.9 237.9 315.7 236.4 Q 312.6 234.9 309.2 233.9 Q 305.8 232.9 303.0 230.9 Q 300.1 228.9 298.1 226.1 Q 296.1 223.2 296.7 219.8 Q 297.3 216.3 295.9 213.1 Q 294.5 209.9 295.7 206.6 Q 296.9 203.3 295.0 200.3 Q 293.2 197.4 291.6 194.2 Q 290.1 191.1 289.9 187.6 Q 289.7 184.1 292.0 181.4 Q 294.3 178.8 297.7 177.8 Q 301.0 176.8 304.5 177.3 Q 308.0 177.8 311.4 177.0 Q 314.8 176.2 317.9 174.6 Q 321.0 173.0 323.7 170.8 Q 326.4 168.6 329.8 169.6 Q 333.1 170.7 335.6 173.1 Q 338.2 175.6 337.5 179.0 Q 336.9 182.4 336.7 185.9 Q 336.6 189.4 336.2 192.9 Q 335.7 196.4 335.6 199.9 Q 335.4 203.4 335.4 206.9 Q 335.4 210.4 337.0 213.5 Q 338.7 216.5 337.3 219.8 Q 335.9 223.0 335.9 226.5 Q 336.0 230.0 333.8 232.8 Q 331.7 235.5 332.1 239.0 Q 332.5 242.5 331.0 245.7 Q 329.6 248.9 326.2 249.6 Q 322.7 250.2 320.0 248.0 Q 317.3 245.8 316.6 242.4 Q 315.9 239.0 316.1 235.5 Q 316.3 232.0 315.5 228.6 Q 314.6 225.2 314.6 221.7 Q 314.6 218.2 312.8 215.2 Q 310.9 212.2 308.2 210.0 Q 305.5 207.8 305.6 204.3 Q 305.7 200.8 305.8 197.4 Q 306.0 193.9 306.6 190.4 Q 307.1 187.0 308.3 183.6 Q 309.5 180.3 312.0 177.9 Q 314.5 175.5 317.9 176.1 Q 321.4 176.7 323.5 173.9 Q 325.7 171.1 327.4 168.1 Q 329.1 165.0 330.3 161.8 Q 331.6 158.5 328.8 156.3 Q 326.1 154.1 326.1 150.6 Q 326.2 147.1 322.9 146.0 Q 319.6 144.9 316.1 144.8 T 312.6 144.8" fill="none" stroke="#1a1d1f" stroke-width="2.0" stroke-linecap="round" stroke-linejoin="round"/>
</svg>
