<svg xmlns="http://www.w3.org/2000/svg" viewBox="0 0 400 400" role="img" aria-hidden="true">
  <path d="M 30.0 194.9 Q 33.8 201.1 35.7 204.7 Q 37.6 208.3 39.4 207.8 Q 41.3 207.4 43.2 208.1 Q 45.1 208.8 47.0 209.4 Q 48.9 210.0 50.8 216.1 Q 52.7 222.2 54.6 221.9 Q 56.4 221.5 58.3 222.0 Q 60.2 222.5 62.1 223.1 Q 64.0 223.8 65.9 222.0 Q 67.8 220.2 69.7 226.4 Q 71.6 232.5 73.4 231.5 Q 75.3 230.4 77.2 232.9 Q 79.1 235.5 81.0 239.2 Q 82.9 242.9 84.8 239.8 Q 86.7 236.7 88.6 237.5 Q 90.4 238.3 92.3 240.7 Q 94.2 243.1 96.1 240.9 Q 98.0 238.7 99.9 239.3 Q 101.8 239.9 103.7 237.1 Q 105.6 234.3 107.4 234.4 Q 109.3 234.6 111.2 232.6 Q 113.1 230.7 115.0 235.2 Q 116.9 239.7 118.8 239.5 Q 120.7 239.2 122.6 234.9 Q 124.4 230.5 126.3 230.2 Q 128.2 229.8 130.1 228.1 Q 132.0 226.5 133.9 231.3 Q 135.8 236.2 137.7 231.5 Q 139.6 226.8 141.4 223.1 Q 143.3 219.4 145.2 219.5 Q 147.1 219.6 149.0 219.3 Q 150.9 219.0 152.8 212.7 Q 154.7 206.3 156.6 207.9 Q 158.4 209.5 160.3 207.7 Q 162.2 205.9 164.1 203.0 Q 166.0 200.1 167.9 199.9 Q 169.8 199.7 171.7 198.8 Q 173.6 197.9 175.4 193.9 Q 177.3 189.8 179.2 187.4 Q 181.1 185.0 183.0 185.9 Q 184.9 186.9 186.8 183.8 Q 188.7 180.8 190.6 179.8 Q 192.4 178.8 194.3 180.5 Q 196.2 182.2 198.1 177.8 Q 200.0 173.4 201.9 171.3 Q 203.8 169.3 205.7 165.7 Q 207.6 162.1 209.4 164.5 Q 211.3 167.0 213.2 166.2 Q 215.1 165.3 217.0 165.2 Q 218.9 165.0 220.8 164.4 Q 222.7 163.7 224.6 163.7 Q 226.4 163.6 228.3 162.4 Q 230.2 161.3 232.1 161.0 Q 234.0 160.8 235.9 161.7 Q 237.8 162.7 239.7 160.4 Q 241.6 158.1 243.4 157.9 Q 245.3 157.7 247.2 158.2 Q 249.1 158.7 251.0 161.5 Q 252.9 164.4 254.8 161.5 Q 256.7 158.6 258.6 162.0 Q 260.4 165.5 262.3 167.2 Q 264.2 168.8 266.1 171.0 Q 268.0 173.1 269.9 171.8 Q 271.8 170.4 273.7 174.0 Q 275.6 177.5 277.4 178.9 Q 279.3 180.4 281.2 180.8 Q 283.1 181.2 285.0 184.0 Q 286.9 186.8 288.8 188.0 Q 290.7 189.2 292.6 189.0 Q 294.4 188.9 296.3 192.1 Q 298.2 195.4 300.1 196.0 Q 302.0 196.7 303.9 203.9 Q 305.8 211.2 307.7 208.7 Q 309.6 206.2 311.4 207.2 Q 313.3 208.1 315.2 208.1 Q 317.1 208.2 319.0 212.6 Q 320.9 217.1 322.8 219.4 Q 324.7 221.7 326.6 222.5 Q 328.4 223.3 330.3 221.9 Q 332.2 220.5 334.1 222.5 Q 336.0 224.4 337.9 225.5 Q 339.8 226.6 341.7 230.2 Q 343.6 233.7 345.4 232.6 Q 347.3 231.5 349.2 233.8 Q 351.1 236.1 353.0 240.5 Q 354.9 244.9 356.8 238.2 Q 358.7 231.5 360.6 235.0 Q 362.4 238.6 364.3 239.3 T 366.2 239.9" fill="none" stroke="#1a1d1f" stroke-width="2.0" stroke-linecap="round" stroke-linejoin="round"/>
</svg>
