<svg xmlns="http://www.w3.org/2000/svg" viewBox="0 0 400 400" role="img" aria-hidden="true">
  <path d="M 305.0 200.0 Q 304.2 208.2 303.5 212.2 Q 302.8 216.3 301.8 220.2 Q 300.8 224.2 299.4 228.0 Q 298.1 231.9 296.5 235.6 Q 294.9 239.3 293.0 242.9 Q 291.1 246.4 289.0 249.8 Q 286.8 253.2 284.4 256.4 Q 282.0 259.6 279.4 262.5 Q 276.7 265.5 273.9 268.3 Q 271.0 271.0 268.0 273.5 Q 264.9 276.0 261.7 278.3 Q 258.5 280.5 255.1 282.5 Q 251.8 284.5 248.3 286.2 Q 244.8 287.9 241.2 289.3 Q 237.6 290.7 233.9 291.8 Q 230.2 292.9 226.4 293.7 Q 222.7 294.6 218.9 295.1 Q 215.1 295.6 211.3 295.8 Q 207.6 296.0 203.8 295.9 Q 200.0 295.9 196.3 295.5 Q 192.5 295.1 188.8 294.5 Q 185.1 293.8 181.5 292.8 Q 177.9 291.9 174.4 290.7 Q 170.9 289.4 167.6 288.0 Q 164.2 286.5 161.0 284.7 Q 157.7 283.0 154.6 281.0 Q 151.6 279.0 148.7 276.8 Q 145.8 274.6 143.1 272.2 Q 140.4 269.8 137.9 267.2 Q 135.4 264.6 133.2 261.8 Q 130.9 259.0 128.9 256.1 Q 126.9 253.1 125.1 250.1 Q 123.3 247.0 121.8 243.8 Q 120.3 240.6 119.0 237.3 Q 117.8 234.1 116.8 230.7 Q 115.8 227.4 115.0 224.0 Q 114.3 220.6 113.9 217.1 Q 113.4 213.7 113.3 210.3 Q 113.1 206.8 113.2 203.4 Q 113.3 200.0 113.6 196.6 Q 114.0 193.2 114.6 189.9 Q 115.2 186.6 116.1 183.3 Q 117.0 180.1 118.1 176.9 Q 119.2 173.8 120.6 170.7 Q 122.0 167.7 123.6 164.8 Q 125.2 161.9 127.0 159.1 Q 128.8 156.3 130.8 153.8 Q 132.8 151.2 135.0 148.7 Q 137.2 146.3 139.5 144.1 Q 141.9 141.9 144.4 139.9 Q 146.9 137.9 149.6 136.1 Q 152.2 134.3 155.0 132.7 Q 157.8 131.1 160.7 129.8 Q 163.5 128.4 166.5 127.3 Q 169.4 126.2 172.4 125.3 Q 175.5 124.5 178.5 123.8 Q 181.6 123.2 184.6 122.8 Q 187.7 122.4 190.8 122.3 Q 193.9 122.2 196.9 122.3 Q 200.0 122.4 203.0 122.7 Q 206.1 123.1 209.0 123.7 Q 212.0 124.2 214.9 125.1 Q 217.8 125.9 220.6 126.9 Q 223.4 127.9 226.1 129.2 Q 228.8 130.4 231.4 131.8 Q 234.0 133.3 236.4 134.9 Q 238.9 136.6 241.2 138.4 Q 243.5 140.2 245.6 142.1 Q 247.7 144.1 249.7 146.2 Q 251.6 148.4 253.4 150.6 Q 255.2 152.9 256.8 155.2 Q 258.4 157.6 259.7 160.1 Q 261.1 162.6 262.3 165.1 Q 263.5 167.7 264.4 170.3 Q 265.4 172.9 266.1 175.6 Q 266.9 178.3 267.4 181.0 Q 267.9 183.7 268.2 186.4 Q 268.5 189.1 268.6 191.9 Q 268.7 194.6 268.6 197.3 Q 268.5 200.0 268.1 202.7 Q 267.8 205.3 267.3 208.0 Q 266.7 210.6 266.0 213.1 Q 265.3 215.7 264.3 218.1 Q 263.4 220.6 262.3 223.0 Q 261.2 225.3 259.9 227.6 Q 258.6 229.8 257.1 232.0 Q 255.7 234.1 254.1 236.1 Q 252.4 238.1 250.7 240.0 Q 248.9 241.8 247.1 243.5 Q 245.2 245.2 243.2 246.7 Q 241.2 248.3 239.1 249.6 Q 237.0 251.0 234.9 252.1 Q 232.7 253.3 230.4 254.3 Q 228.2 255.3 225.9 256.1 Q 223.6 256.9 221.2 257.6 Q 218.9 258.2 216.5 258.6 Q 214.2 259.0 211.8 259.3 Q 209.4 259.5 207.1 259.6 Q 204.7 259.6 202.3 259.5 Q 200.0 259.3 197.7 259.0 Q 195.4 258.7 193.1 258.2 Q 190.9 257.7 188.7 257.0 Q 186.5 256.4 184.3 255.5 Q 182.2 254.7 180.2 253.7 Q 178.2 252.7 176.2 251.6 Q 174.3 250.4 172.5 249.2 Q 170.7 247.9 169.0 246.5 Q 167.3 245.1 165.7 243.5 Q 164.1 242.0 162.7 240.4 Q 161.3 238.7 160.0 237.0 Q 158.7 235.3 157.6 233.5 Q 156.4 231.7 155.4 229.8 Q 154.5 227.9 153.6 226.0 Q 152.8 224.0 152.2 222.1 Q 151.5 220.1 151.0 218.1 Q 150.5 216.1 150.2 214.1 Q 149.8 212.0 149.7 210.0 Q 149.5 208.0 149.5 206.0 Q 149.5 204.0 149.6 202.0 Q 149.8 200.0 150.1 198.0 Q 150.4 196.1 150.8 194.2 Q 151.3 192.3 151.9 190.4 Q 152.5 188.6 153.2 186.8 Q 154.0 185.0 154.8 183.4 Q 155.7 181.7 156.7 180.1 Q 157.7 178.4 158.8 176.9 Q 159.9 175.4 161.1 174.0 Q 162.3 172.6 163.6 171.3 Q 164.9 170.1 166.3 168.9 Q 167.7 167.7 169.2 166.7 Q 170.6 165.6 172.2 164.7 Q 173.7 163.8 175.3 163.0 Q 176.9 162.2 178.5 161.6 Q 180.1 161.0 181.8 160.4 Q 183.4 159.9 185.1 159.6 Q 186.7 159.2 188.4 159.0 Q 190.1 158.7 191.8 158.6 Q 193.4 158.5 195.1 158.6 Q 196.7 158.6 198.4 158.7 Q 200.0 158.9 201.6 159.2 Q 203.2 159.5 204.7 159.9 Q 206.3 160.3 207.8 160.9 Q 209.3 161.4 210.7 162.0 Q 212.1 162.7 213.5 163.4 Q 214.8 164.1 216.1 165.0 Q 217.4 165.8 218.6 166.8 Q 219.8 167.7 220.9 168.7 Q 222.0 169.7 223.0 170.8 Q 224.0 171.9 224.9 173.0 Q 225.8 174.2 226.6 175.4 Q 227.4 176.6 228.1 177.8 Q 228.8 179.1 229.4 180.4 Q 230.0 181.6 230.4 182.9 Q 230.9 184.2 231.3 185.6 Q 231.6 186.9 231.9 188.2 Q 232.1 189.6 232.3 190.9 Q 232.4 192.2 232.4 193.5 Q 232.5 194.9 232.4 196.2 Q 232.3 197.5 232.1 198.7 Q 232.0 200.0 231.7 201.2 Q 231.4 202.5 231.0 203.7 Q 230.7 204.9 230.2 206.0 Q 229.7 207.1 229.2 208.2 Q 228.7 209.3 228.0 210.3 Q 227.4 211.4 226.7 212.3 Q 226.0 213.3 225.3 214.1 Q 224.5 215.0 223.7 215.8 Q 222.9 216.6 222.0 217.4 Q 221.2 218.1 220.3 218.7 Q 219.4 219.4 218.4 219.9 Q 217.5 220.5 216.5 221.0 Q 215.6 221.4 214.6 221.8 Q 213.6 222.2 212.6 222.5 Q 211.6 222.8 210.6 223.0 Q 209.6 223.2 208.6 223.3 Q 207.6 223.4 206.6 223.5 Q 205.6 223.5 204.7 223.5 Q 203.7 223.4 202.8 223.3 Q 201.8 223.2 200.9 223.0 Q 200.0 222.8 199.1 222.6 Q 198.2 222.3 197.4 222.0 Q 196.6 221.6 195.8 221.3 Q 195.0 220.9 194.3 220.4 Q 193.5 220.0 192.8 219.5 Q 192.1 219.0 191.5 218.4 Q 190.9 217.9 190.3 217.3 Q 189.7 216.7 189.2 216.1 Q 188.7 215.5 188.3 214.9 Q 187.8 214.2 187.5 213.6 Q 187.1 212.9 186.8 212.2 Q 186.5 211.6 186.2 210.9 Q 186.0 210.2 185.8 209.5 Q 185.6 208.8 185.5 208.1 Q 185.4 207.5 185.3 206.8 Q 185.2 206.1 185.2 205.5 Q 185.2 204.8 185.3 204.2 Q 185.4 203.5 185.5 202.9 Q 185.6 202.3 185.7 201.7 Q 185.9 201.1 185.9 201.1 Q 185.9 201.1 188.5 201.1 Q 191.1 201.0 193.7 201.2 Q 196.3 201.5 198.9 201.9 Q 201.4 202.3 204.0 202.8 Q 206.6 203.3 209.1 203.8 Q 211.7 204.2 214.3 204.5 Q 216.9 204.7 219.5 204.6 Q 222.1 204.5 224.8 204.0 Q 227.4 203.5 230.1 202.4 Q 232.7 201.4 235.3 200.0 Q 237.8 198.5 240.3 196.7 Q 242.7 194.8 245.1 192.8 Q 247.4 190.7 249.7 188.7 Q 251.9 186.6 254.1 184.8 Q 256.4 182.9 258.7 181.4 Q 261.0 180.0 263.4 179.1 Q 265.9 178.3 268.6 178.2 Q 271.2 178.1 274.1 178.8 Q 277.0 179.5 279.9 181.0 Q 282.9 182.6 285.9 184.9 Q 289.0 187.2 291.9 190.0 Q 294.8 192.9 297.5 196.1 Q 300.3 199.3 302.8 202.4 Q 305.4 205.6 307.8 208.3 Q 310.3 211.1 312.7 213.2 Q 315.1 215.3 317.6 216.4 Q 320.1 217.5 322.7 217.4 Q 325.4 217.3 328.1 215.9 Q 330.9 214.5 333.7 211.9 Q 336.5 209.3 339.2 205.5 Q 341.9 201.7 344.4 197.1 Q 346.9 192.5 349.0 187.4 Q 351.2 182.3 353.1 177.2 Q 355.0 172.1 356.8 167.4 Q 358.5 162.8 360.3 159.0 Q 362.0 155.3 364.1 152.8 Q 366.1 150.3 368.5 149.4 Q 370.9 148.4 373.8 149.1 Q 376.7 149.9 380.0 152.3 Q 383.3 154.7 386.8 158.7 Q 390.3 162.7 393.8 167.9 Q 397.3 173.2 400.5 179.3 Q 403.7 185.4 406.6 191.8 Q 409.5 198.2 412.0 204.2 T 414.5 210.2" fill="none" stroke="#1a1d1f" stroke-width="2.0" stroke-linecap="round" stroke-linejoin="round"/>
</svg>
