<?plantuml 1.2026.1?><svg xmlns="http://www.w3.org/2000/svg" xmlns:xlink="http://www.w3.org/1999/xlink" contentStyleType="text/css" data-diagram-type="SEQUENCE" height="800px" preserveAspectRatio="none" style="width:824px;height:800px;background:#FFFFFF;" version="1.1" viewBox="0 0 824 800" width="824px" zoomAndPan="magnify"><title>Sync staging after a prod merge</title><defs/><g><text fill="#000000" font-family="sans-serif" font-size="14" font-weight="bold" lengthAdjust="spacing" textLength="256.2725" x="280.1643" y="27.9951">Sync staging after a prod merge</text><g><title>Local git</title><rect fill="#FFFFFF" height="145.5313" style="stroke:#181818;stroke-width:1;" width="10" x="304.064" y="405.9219"/></g><g><title>origin.main</title><rect fill="#FFFFFF" height="30" style="stroke:#181818;stroke-width:1;" width="10" x="513.6909" y="192.8594"/></g><g><title>origin.staging</title><rect fill="#FFFFFF" height="30" style="stroke:#181818;stroke-width:1;" width="10" x="617.707" y="521.4531"/></g><g class="participant-lifeline" data-entity-uid="part1" data-qualified-name="Dev" id="part1-lifeline"><g><title>Developer</title><rect fill="#000000" fill-opacity="0.00000" height="601.5234" width="8" x="40.0015" y="118.5938"/><line style="stroke:#181818;stroke-width:0.5;stroke-dasharray:5,5;" x1="44" x2="44" y1="118.5938" y2="720.1172"/></g></g><g class="participant-lifeline" data-entity-uid="part2" data-qualified-name="Local" id="part2-lifeline"><g><title>Local git</title><rect fill="#000000" fill-opacity="0.00000" height="601.5234" width="8" x="305.064" y="118.5938"/><line style="stroke:#181818;stroke-width:0.5;stroke-dasharray:5,5;" x1="308.4404" x2="308.4404" y1="118.5938" y2="720.1172"/></g></g><g class="participant-lifeline" data-entity-uid="part3" data-qualified-name="Main" id="part3-lifeline"><g><title>origin.main</title><rect fill="#000000" fill-opacity="0.00000" height="601.5234" width="8" x="514.6909" y="118.5938"/><line style="stroke:#181818;stroke-width:0.5;stroke-dasharray:5,5;" x1="517.9126" x2="517.9126" y1="118.5938" y2="720.1172"/></g></g><g class="participant-lifeline" data-entity-uid="part4" data-qualified-name="Staging" id="part4-lifeline"><g><title>origin.staging</title><rect fill="#000000" fill-opacity="0.00000" height="601.5234" width="8" x="618.707" y="118.5938"/><line style="stroke:#181818;stroke-width:0.5;stroke-dasharray:5,5;" x1="622.4692" x2="622.4692" y1="118.5938" y2="720.1172"/></g></g><g class="participant participant-head" data-entity-uid="part1" data-qualified-name="Dev" id="part1-head"><text fill="#000000" font-family="sans-serif" font-size="14" lengthAdjust="spacing" textLength="72.0029" x="5" y="115.292">Developer</text><ellipse cx="44.0015" cy="50.7969" fill="#E2E2F0" rx="8" ry="8" style="stroke:#181818;stroke-width:0.5;"/><path d="M44.0015,58.7969 L44.0015,85.7969 M31.0015,66.7969 L57.0015,66.7969 M44.0015,85.7969 L31.0015,100.7969 M44.0015,85.7969 L57.0015,100.7969" fill="none" style="stroke:#181818;stroke-width:0.5;"/></g><g class="participant participant-tail" data-entity-uid="part1" data-qualified-name="Dev" id="part1-tail"><text fill="#000000" font-family="sans-serif" font-size="14" lengthAdjust="spacing" textLength="72.0029" x="5" y="732.1123">Developer</text><ellipse cx="44.0015" cy="743.9141" fill="#E2E2F0" rx="8" ry="8" style="stroke:#181818;stroke-width:0.5;"/><path d="M44.0015,751.9141 L44.0015,778.9141 M31.0015,759.9141 L57.0015,759.9141 M44.0015,778.9141 L31.0015,793.9141 M44.0015,778.9141 L57.0015,793.9141" fill="none" style="stroke:#181818;stroke-width:0.5;"/></g><g class="participant participant-head" data-entity-uid="part2" data-qualified-name="Local" id="part2-head"><rect fill="#E2E2F0" height="30.2969" rx="2.5" ry="2.5" style="stroke:#181818;stroke-width:0.5;" width="73.2471" x="272.4404" y="87.2969"/><text fill="#000000" font-family="sans-serif" font-size="14" lengthAdjust="spacing" textLength="59.2471" x="279.4404" y="107.292">Local git</text></g><g class="participant participant-tail" data-entity-uid="part2" data-qualified-name="Local" id="part2-tail"><rect fill="#E2E2F0" height="30.2969" rx="2.5" ry="2.5" style="stroke:#181818;stroke-width:0.5;" width="73.2471" x="272.4404" y="719.1172"/><text fill="#000000" font-family="sans-serif" font-size="14" lengthAdjust="spacing" textLength="59.2471" x="279.4404" y="739.1123">Local git</text></g><g class="participant participant-head" data-entity-uid="part3" data-qualified-name="Main" id="part3-head"><text fill="#000000" font-family="sans-serif" font-size="14" lengthAdjust="spacing" textLength="79.5566" x="475.9126" y="115.292">origin/main</text><path d="M500.6909,66.2969 C500.6909,56.2969 518.6909,56.2969 518.6909,56.2969 C518.6909,56.2969 536.6909,56.2969 536.6909,66.2969 L536.6909,92.2969 C536.6909,102.2969 518.6909,102.2969 518.6909,102.2969 C518.6909,102.2969 500.6909,102.2969 500.6909,92.2969 L500.6909,66.2969" fill="#E2E2F0" style="stroke:#181818;stroke-width:0.5;"/><path d="M500.6909,66.2969 C500.6909,76.2969 518.6909,76.2969 518.6909,76.2969 C518.6909,76.2969 536.6909,76.2969 536.6909,66.2969" fill="none" style="stroke:#181818;stroke-width:0.5;"/></g><g class="participant participant-tail" data-entity-uid="part3" data-qualified-name="Main" id="part3-tail"><text fill="#000000" font-family="sans-serif" font-size="14" lengthAdjust="spacing" textLength="79.5566" x="475.9126" y="732.1123">origin/main</text><path d="M500.6909,745.4141 C500.6909,735.4141 518.6909,735.4141 518.6909,735.4141 C518.6909,735.4141 536.6909,735.4141 536.6909,745.4141 L536.6909,771.4141 C536.6909,781.4141 518.6909,781.4141 518.6909,781.4141 C518.6909,781.4141 500.6909,781.4141 500.6909,771.4141 L500.6909,745.4141" fill="#E2E2F0" style="stroke:#181818;stroke-width:0.5;"/><path d="M500.6909,745.4141 C500.6909,755.4141 518.6909,755.4141 518.6909,755.4141 C518.6909,755.4141 536.6909,755.4141 536.6909,745.4141" fill="none" style="stroke:#181818;stroke-width:0.5;"/></g><g class="participant participant-head" data-entity-uid="part4" data-qualified-name="Staging" id="part4-head"><text fill="#000000" font-family="sans-serif" font-size="14" lengthAdjust="spacing" textLength="96.4756" x="571.4692" y="115.292">origin/staging</text><path d="M604.707,66.2969 C604.707,56.2969 622.707,56.2969 622.707,56.2969 C622.707,56.2969 640.707,56.2969 640.707,66.2969 L640.707,92.2969 C640.707,102.2969 622.707,102.2969 622.707,102.2969 C622.707,102.2969 604.707,102.2969 604.707,92.2969 L604.707,66.2969" fill="#E2E2F0" style="stroke:#181818;stroke-width:0.5;"/><path d="M604.707,66.2969 C604.707,76.2969 622.707,76.2969 622.707,76.2969 C622.707,76.2969 640.707,76.2969 640.707,66.2969" fill="none" style="stroke:#181818;stroke-width:0.5;"/></g><g class="participant participant-tail" data-entity-uid="part4" data-qualified-name="Staging" id="part4-tail"><text fill="#000000" font-family="sans-serif" font-size="14" lengthAdjust="spacing" textLength="96.4756" x="571.4692" y="732.1123">origin/staging</text><path d="M604.707,745.4141 C604.707,735.4141 622.707,735.4141 622.707,735.4141 C622.707,735.4141 640.707,735.4141 640.707,745.4141 L640.707,771.4141 C640.707,781.4141 622.707,781.4141 622.707,781.4141 C622.707,781.4141 604.707,781.4141 604.707,771.4141 L604.707,745.4141" fill="#E2E2F0" style="stroke:#181818;stroke-width:0.5;"/><path d="M604.707,745.4141 C604.707,755.4141 622.707,755.4141 622.707,755.4141 C622.707,755.4141 640.707,755.4141 640.707,745.4141" fill="none" style="stroke:#181818;stroke-width:0.5;"/></g><g><title>Local git</title><rect fill="#FFFFFF" height="145.5313" style="stroke:#181818;stroke-width:1;" width="10" x="304.064" y="405.9219"/></g><g><title>origin.main</title><rect fill="#FFFFFF" height="30" style="stroke:#181818;stroke-width:1;" width="10" x="513.6909" y="192.8594"/></g><g><title>origin.staging</title><rect fill="#FFFFFF" height="30" style="stroke:#181818;stroke-width:1;" width="10" x="617.707" y="521.4531"/></g><rect fill="#EEEEEE" height="3" style="stroke:#EEEEEE;stroke-width:1;" width="817.6011" x="0" y="149.1602"/><line style="stroke:#000000;stroke-width:1;" x1="0" x2="817.6011" y1="149.1602" y2="149.1602"/><line style="stroke:#000000;stroke-width:1;" x1="0" x2="817.6011" y1="152.1602" y2="152.1602"/><rect fill="#EEEEEE" height="23.1328" style="stroke:#000000;stroke-width:2;" width="67.0664" x="375.2673" y="138.5938"/><text fill="#000000" font-family="sans-serif" font-size="13" font-weight="bold" lengthAdjust="spacing" textLength="48.5405" x="381.2673" y="154.6606">Before</text><g class="message" data-entity-1="part1" data-entity-2="part3" id="msg1"><polygon fill="#181818" points="501.6909,188.8594,511.6909,192.8594,501.6909,196.8594,505.6909,192.8594" style="stroke:#181818;stroke-width:1;"/><line style="stroke:#181818;stroke-width:1;" x1="44.0015" x2="507.6909" y1="192.8594" y2="192.8594"/><text fill="#000000" font-family="sans-serif" font-size="13" lengthAdjust="spacing" textLength="228.2998" x="51.0015" y="187.7935">PR staging &#8594; main (squash-merge)</text></g><path d="M523,235.8594 L523,335.8594 L721,335.8594 L721,245.8594 L711,235.8594 L523,235.8594" fill="#FEFFDD" style="stroke:#181818;stroke-width:0.5;"/><path d="M711,235.8594 L711,245.8594 L721,245.8594 L711,235.8594" fill="#FEFFDD" style="stroke:#181818;stroke-width:0.5;"/><text fill="#000000" font-family="sans-serif" font-size="13" lengthAdjust="spacing" textLength="158.9326" x="529" y="252.9263">main advances to a new</text><text fill="#000000" font-family="sans-serif" font-size="13" lengthAdjust="spacing" textLength="108.9321" x="529" y="268.0591">squash SHA (say</text><text fill="#000000" font-family="sans-serif" font-size="13" font-weight="bold" lengthAdjust="spacing" textLength="9.9087" x="642.0645" y="268.0591">B</text><text fill="#000000" font-family="sans-serif" font-size="13" lengthAdjust="spacing" textLength="9.2041" x="651.9731" y="268.0591">).</text><text fill="#000000" font-family="sans-serif" font-size="13" lengthAdjust="spacing" textLength="148.8145" x="529" y="283.1919">staging still carries the</text><text fill="#000000" font-family="sans-serif" font-size="13" lengthAdjust="spacing" textLength="177.4424" x="529" y="298.3247">pre-squash commits a1, a2</text><text fill="#000000" font-family="sans-serif" font-size="13" lengthAdjust="spacing" textLength="156.9775" x="529" y="313.4575">&#8212; same tree as B, but a</text><text fill="#000000" font-family="sans-serif" font-size="13" lengthAdjust="spacing" textLength="149.043" x="529" y="328.5903">different parent graph.</text><rect fill="#EEEEEE" height="3" style="stroke:#EEEEEE;stroke-width:1;" width="817.6011" x="0" y="362.2227"/><line style="stroke:#000000;stroke-width:1;" x1="0" x2="817.6011" y1="362.2227" y2="362.2227"/><line style="stroke:#000000;stroke-width:1;" x1="0" x2="817.6011" y1="365.2227" y2="365.2227"/><rect fill="#EEEEEE" height="23.1328" style="stroke:#000000;stroke-width:2;" width="53.3237" x="382.1387" y="351.6563"/><text fill="#000000" font-family="sans-serif" font-size="13" font-weight="bold" lengthAdjust="spacing" textLength="34.7979" x="388.1387" y="367.7231">Sync</text><g class="message" data-entity-1="part1" data-entity-2="part2" id="msg2"><polygon fill="#181818" points="292.064,401.9219,302.064,405.9219,292.064,409.9219,296.064,405.9219" style="stroke:#181818;stroke-width:1;"/><line style="stroke:#181818;stroke-width:1;" x1="44.0015" x2="298.064" y1="405.9219" y2="405.9219"/><text fill="#000000" font-family="sans-serif" font-size="13" lengthAdjust="spacing" textLength="123.0239" x="51.0015" y="400.856">make sync-staging</text></g><g class="message" data-entity-1="part2" data-entity-2="part3" id="msg3"><polygon fill="#181818" points="506.6909,431.0547,516.6909,435.0547,506.6909,439.0547,510.6909,435.0547" style="stroke:#181818;stroke-width:1;"/><line style="stroke:#181818;stroke-width:1;" x1="314.064" x2="512.6909" y1="435.0547" y2="435.0547"/><text fill="#000000" font-family="sans-serif" font-size="13" lengthAdjust="spacing" textLength="146.8848" x="321.064" y="429.9888">git fetch origin --prune</text></g><g class="message" data-entity-1="part2" data-entity-2="part2" id="msg4"><line style="stroke:#181818;stroke-width:1;" x1="314.064" x2="356.064" y1="479.3203" y2="479.3203"/><line style="stroke:#181818;stroke-width:1;" x1="356.064" x2="356.064" y1="479.3203" y2="492.3203"/><line style="stroke:#181818;stroke-width:1;" x1="315.064" x2="356.064" y1="492.3203" y2="492.3203"/><polygon fill="#181818" points="325.064,488.3203,315.064,492.3203,325.064,496.3203,321.064,492.3203" style="stroke:#181818;stroke-width:1;"/><text fill="#000000" font-family="sans-serif" font-size="13" lengthAdjust="spacing" textLength="114.918" x="321.064" y="459.1216">git switch staging</text><text fill="#000000" font-family="sans-serif" font-size="13" lengthAdjust="spacing" textLength="175.627" x="321.064" y="474.2544">git reset --hard origin/main</text></g><g class="message" data-entity-1="part2" data-entity-2="part4" id="msg5"><polygon fill="#181818" points="605.707,517.4531,615.707,521.4531,605.707,525.4531,609.707,521.4531" style="stroke:#181818;stroke-width:1;"/><line style="stroke:#181818;stroke-width:1;" x1="314.064" x2="611.707" y1="521.4531" y2="521.4531"/><text fill="#000000" font-family="sans-serif" font-size="13" lengthAdjust="spacing" textLength="263.9102" x="321.064" y="516.3872">git push --force-with-lease origin staging</text></g><path d="M627,564.4531 L627,619.4531 L812,619.4531 L812,574.4531 L802,564.4531 L627,564.4531" fill="#FEFFDD" style="stroke:#181818;stroke-width:0.5;"/><path d="M802,564.4531 L802,574.4531 L812,574.4531 L802,564.4531" fill="#FEFFDD" style="stroke:#181818;stroke-width:0.5;"/><text fill="#000000" font-family="sans-serif" font-size="13" lengthAdjust="spacing" textLength="164.6011" x="633" y="581.52">origin/staging now points</text><text fill="#000000" font-family="sans-serif" font-size="13" lengthAdjust="spacing" textLength="127.9878" x="633" y="596.6528">at the same SHA as</text><text fill="#000000" font-family="sans-serif" font-size="13" lengthAdjust="spacing" textLength="83.0781" x="633" y="611.7856">origin/main (</text><text fill="#000000" font-family="sans-serif" font-size="13" font-weight="bold" lengthAdjust="spacing" textLength="9.9087" x="716.0781" y="611.7856">B</text><text fill="#000000" font-family="sans-serif" font-size="13" lengthAdjust="spacing" textLength="9.2041" x="725.9868" y="611.7856">).</text><rect fill="#EEEEEE" height="3" style="stroke:#EEEEEE;stroke-width:1;" width="817.6011" x="0" y="645.418"/><line style="stroke:#000000;stroke-width:1;" x1="0" x2="817.6011" y1="645.418" y2="645.418"/><line style="stroke:#000000;stroke-width:1;" x1="0" x2="817.6011" y1="648.418" y2="648.418"/><rect fill="#EEEEEE" height="23.1328" style="stroke:#000000;stroke-width:2;" width="55.6851" x="380.958" y="634.8516"/><text fill="#000000" font-family="sans-serif" font-size="13" font-weight="bold" lengthAdjust="spacing" textLength="37.1592" x="386.958" y="650.9185">After</text><g class="message" data-entity-1="part1" data-entity-2="part1" id="msg6"><line style="stroke:#181818;stroke-width:1;" x1="44.0015" x2="86.0015" y1="689.1172" y2="689.1172"/><line style="stroke:#181818;stroke-width:1;" x1="86.0015" x2="86.0015" y1="689.1172" y2="702.1172"/><line style="stroke:#181818;stroke-width:1;" x1="45.0015" x2="86.0015" y1="702.1172" y2="702.1172"/><polygon fill="#181818" points="55.0015,698.1172,45.0015,702.1172,55.0015,706.1172,51.0015,702.1172" style="stroke:#181818;stroke-width:1;"/><text fill="#000000" font-family="sans-serif" font-size="13" lengthAdjust="spacing" textLength="251.0625" x="51.0015" y="684.0513">branch next feature/* from a single tip</text></g><?plantuml-src RLEnRjim4Dtv5G-U4Y5Aq8u6N216XmujKDHhbxDqaeXAf4AUx6Rhr0ye-eNvaXv5ERQHJYJlyTuTtpkAbPwnUtOLeb1hNGjgX0C8O_0r1Wuj6qEL-83LHpvmxqSEAr24din8GMnbHtA2rMTVKO_MoWpF9rEJq9uYO-M3LVw7WQoRyI-wUGilNSmtTdblp6Q3BJS-C3OROxGkoWzp_XfVlxqs_lBx3n8xRkBJHB4hv-PlK_FsGCAvelEwqrgTm3SvX9n6zO5SnH7YzVcEZmfa9km-FIehFQCejaLnUv-GfMeKs_UeA0IRKZjMR0nSBfcL7mOh4VJk3lHUiPTVVn5fO4XWJg_Stc4_2KYnsZOD1rOjLTUqj876xjwmgv7wDZLVFoOfCvjteSki-rgVz8CH5IkNJiywP6UoMwz2gcreMAeEsGcKvHWcn-Tx2t6w68ystLoOlxiK2nnPDAkZKEF2x3F1ucUc62TLfopLrOfBfUlAdjCWBDNVD7qQXcl_Jb7WUdvKhYD6Rvr4nKYICLdsP2N5SqAUc9El_rFwLECYb1LCwZ_El-L2VbtMs0UTf4vdw6SIbMGA_52W2NxGoOfAffzEx6Z-0G00?></g></svg>
