<?plantuml 1.2026.1?><svg xmlns="http://www.w3.org/2000/svg" xmlns:xlink="http://www.w3.org/1999/xlink" contentStyleType="text/css" data-diagram-type="DESCRIPTION" height="768px" preserveAspectRatio="none" style="width:928px;height:768px;background:#FFFFFF;" version="1.1" viewBox="0 0 928 768" width="928px" zoomAndPan="magnify"><title>ETR Study Monitoring &#8212; C4 Level 3 (components)</title><defs/><g><g class="title" data-source-line="274"><text fill="#0F172A" font-family="'Helvetica'" font-size="15" font-weight="bold" lengthAdjust="spacing" textLength="419.1504" x="247.6301" y="29.9233">ETR Study Monitoring &#8212; C4 Level 3 (components)</text></g><!--cluster MetricsP--><g class="cluster" data-qualified-name="MetricsP" data-source-line="282" id="ent0004"><rect fill="#F8FAFC" height="186.85" rx="4" ry="4" style="stroke:#1D4ED8;stroke-width:1.2;" width="296" x="290.21" y="179.2709"/><text fill="#0F172A" font-family="'Helvetica'" font-size="11" font-weight="bold" lengthAdjust="spacing" textLength="99.5693" x="388.4253" y="197.4814">Metrics pipeline</text></g><!--cluster LogP--><g class="cluster" data-qualified-name="LogP" data-source-line="288" id="ent0008"><rect fill="#F8FAFC" height="208.61" rx="4" ry="4" style="stroke:#1D4ED8;stroke-width:1.2;" width="234" x="425.21" y="554.3409"/><text fill="#0F172A" font-family="'Helvetica'" font-size="11" font-weight="bold" lengthAdjust="spacing" textLength="76.0815" x="504.1692" y="572.5514">Log pipeline</text><text fill="#0F172A" font-family="'Helvetica'" font-size="11" font-weight="bold" lengthAdjust="spacing" textLength="61.0962" x="511.6619" y="585.3561">(optional)</text></g><!--entity Prom--><g class="entity" data-qualified-name="MetricsP.Prom" data-source-line="283" id="ent0005"><rect fill="#F8FAFC" height="44.8047" rx="4" ry="4" style="stroke:#2563EB;stroke-width:1.2;" width="98.1235" x="464.15" y="297.3209"/><text fill="#0F172A" font-family="'Helvetica'" font-size="11" lengthAdjust="spacing" textLength="66.1235" x="480.15" y="323.5314">Prometheus</text></g><!--entity Bbx--><g class="entity" data-qualified-name="MetricsP.Bbx" data-source-line="284" id="ent0006"><rect fill="#F8FAFC" height="44.8047" rx="4" ry="4" style="stroke:#2563EB;stroke-width:1.2;" width="132.5952" x="429.92" y="230.2709"/><text fill="#0F172A" font-family="'Helvetica'" font-size="11" lengthAdjust="spacing" textLength="100.5952" x="445.92" y="256.4814">Blackbox exporter</text></g><!--entity Graf--><g class="entity" data-qualified-name="MetricsP.Graf" data-source-line="285" id="ent0007"><rect fill="#F8FAFC" height="44.8047" rx="4" ry="4" style="stroke:#2563EB;stroke-width:1.2;" width="76.1128" x="326.16" y="230.2709"/><text fill="#0F172A" font-family="'Helvetica'" font-size="11" lengthAdjust="spacing" textLength="44.1128" x="342.16" y="256.4814">Grafana</text></g><!--entity FB--><g class="entity" data-qualified-name="LogP.FB" data-source-line="289" id="ent0009"><rect fill="#F8FAFC" height="44.8047" rx="4" ry="4" style="stroke:#2563EB;stroke-width:1.2;" width="76.0107" x="449.21" y="618.3409"/><text fill="#0F172A" font-family="'Helvetica'" font-size="11" lengthAdjust="spacing" textLength="44.0107" x="465.21" y="644.5514">Filebeat</text></g><!--entity ES--><g class="entity" data-qualified-name="LogP.ES" data-source-line="290" id="ent0010"><path d="M448.88,695.1509 C448.88,685.1509 501.2181,685.1509 501.2181,685.1509 C501.2181,685.1509 553.5563,685.1509 553.5563,695.1509 L553.5563,728.9556 C553.5563,738.9556 501.2181,738.9556 501.2181,738.9556 C501.2181,738.9556 448.88,738.9556 448.88,728.9556 L448.88,695.1509" fill="#FFF7ED" style="stroke:#C2410C;stroke-width:1.4;"/><path d="M448.88,695.1509 C448.88,705.1509 501.2181,705.1509 501.2181,705.1509 C501.2181,705.1509 553.5563,705.1509 553.5563,695.1509" fill="none" style="stroke:#C2410C;stroke-width:1.4;"/><text fill="#0F172A" font-family="'Helvetica'" font-size="11" lengthAdjust="spacing" textLength="72.6763" x="464.88" y="725.3614">Elasticsearch</text></g><!--entity Kib--><g class="entity" data-qualified-name="LogP.Kib" data-source-line="291" id="ent0011"><rect fill="#F8FAFC" height="44.8047" rx="4" ry="4" style="stroke:#2563EB;stroke-width:1.2;" width="69.7051" x="553.36" y="618.3409"/><text fill="#0F172A" font-family="'Helvetica'" font-size="11" lengthAdjust="spacing" textLength="37.7051" x="569.36" y="644.5514">Kibana</text></g><!--entity Op--><g class="entity" data-qualified-name="Op" data-source-line="278" id="ent0002"><ellipse cx="494.2145" cy="72.4609" fill="#ECFDF5" rx="16" ry="16" style="stroke:#047857;stroke-width:1.2;"/><path d="M494.2145,92.4609 C498.2145,92.4609 501.2145,92.4609 505.2145,88.4609 C513.2145,88.4609 521.2145,96.4609 521.2145,104.4609 L521.2145,108.4609 C521.2145,112.4609 517.2145,116.4609 513.2145,116.4609 L475.2145,116.4609 C471.2145,116.4609 467.2145,112.4609 467.2145,108.4609 L467.2145,104.4609 C467.2145,96.4609 475.2145,88.4609 483.2145,88.4609 C487.2145,92.4609 490.2145,92.4609 494.2145,92.4609" fill="#ECFDF5" style="stroke:#047857;stroke-width:1.2;"/><text fill="#0F172A" font-family="'Helvetica'" font-size="11" font-weight="bold" lengthAdjust="spacing" textLength="55.7734" x="455.36" y="133.8714">Operator</text><text fill="#0F172A" font-family="'Helvetica'" font-size="11" font-weight="bold" lengthAdjust="spacing" textLength="77.709" x="455.36" y="146.6761">(maintainer)</text></g><!--entity Api--><g class="entity" data-qualified-name="Api" data-source-line="280" id="ent0003"><rect fill="#F8FAFC" height="57.6094" rx="4" ry="4" style="stroke:#2563EB;stroke-width:1.2;" width="109.4673" x="432.48" y="390.1209"/><text fill="#0F172A" font-family="'Helvetica'" font-size="11" lengthAdjust="spacing" textLength="77.4673" x="448.48" y="416.3314">ETR Study API</text><text fill="#0F172A" font-family="'Helvetica'" font-size="11" lengthAdjust="spacing" textLength="31.7002" x="448.48" y="429.1361">:8000</text></g><!--entity LogFile--><g class="entity" data-qualified-name="LogFile" data-source-line="294" id="ent0012"><rect fill="#F8FAFC" height="60.6094" rx="4" ry="4" style="stroke:#94A3B8;stroke-width:0.5;" width="111.8081" x="431.31" y="469.7309"/><polygon fill="#F8FAFC" points="526.1181,474.7309,526.1181,488.7309,538.1181,488.7309,538.1181,480.7309,532.1181,474.7309,526.1181,474.7309" style="stroke:#94A3B8;stroke-width:0.5;"/><line style="stroke:#94A3B8;stroke-width:0.5;" x1="532.1181" x2="532.1181" y1="474.7309" y2="480.7309"/><line style="stroke:#94A3B8;stroke-width:0.5;" x1="538.1181" x2="532.1181" y1="480.7309" y2="480.7309"/><text fill="#0F172A" font-family="'Helvetica'" font-size="11" lengthAdjust="spacing" textLength="69.8081" x="447.31" y="498.9414">NDJSON logs</text><text fill="#0F172A" font-family="'Helvetica'" font-size="11" lengthAdjust="spacing" textLength="16.7524" x="447.31" y="511.7461">file</text></g><g class="entity" data-qualified-name="GMN23" data-source-line="311" id="ent0024"><path d="M6,301.0809 L6,338.3622 A4,4 0 0 0 10,342.3622 L262.4268,342.3622 A4,4 0 0 0 266.4268,338.3622 L266.4268,307.0809 L256.4268,297.0809 L10,297.0809 A4,4 0 0 0 6,301.0809" fill="#FFFBEB" style="stroke:#D97706;stroke-width:1;"/><path d="M256.4268,297.0809 L256.4268,305.0809 A2,2 0 0 0 258.4268,307.0809 L266.4268,307.0809 L256.4268,297.0809" fill="#FFFBEB" style="stroke:#D97706;stroke-width:1;"/><text fill="#0F172A" font-family="'Helvetica'" font-size="10" lengthAdjust="spacing" textLength="227.4268" x="18" y="317.3632">Authority: ADR 0009 (health &amp; observability),</text><text fill="#0F172A" font-family="'Helvetica'" font-size="10" lengthAdjust="spacing" textLength="185.5176" x="18" y="329.0038">ADR 0011 (SLO / SLA / error budget).</text></g><g class="entity" data-qualified-name="GMN26" data-source-line="316" id="ent0027"><path d="M683.02,693.4109 L683.02,730.6922 A4,4 0 0 0 687.02,734.6922 L917.4106,734.6922 A4,4 0 0 0 921.4106,730.6922 L921.4106,699.4109 L911.4106,689.4109 L687.02,689.4109 A4,4 0 0 0 683.02,693.4109" fill="#FFFBEB" style="stroke:#D97706;stroke-width:1;"/><path d="M911.4106,689.4109 L911.4106,697.4109 A2,2 0 0 0 913.4106,699.4109 L921.4106,699.4109 L911.4106,689.4109" fill="#FFFBEB" style="stroke:#D97706;stroke-width:1;"/><text fill="#0F172A" font-family="'Helvetica'" font-size="10" lengthAdjust="spacing" textLength="205.3906" x="695.02" y="709.6932">Authority: ADR 0023 (structured logging,</text><text fill="#0F172A" font-family="'Helvetica'" font-size="10" lengthAdjust="spacing" textLength="138.1543" x="695.02" y="721.3338">local Elasticsearch for dev).</text></g><!--link Prom to Api--><g class="link" data-entity-1="ent0005" data-entity-2="ent0003" data-link-type="dependency" data-source-line="296" id="lnk13"><path d="M503.05,342.2309 C503.05,356.2909 503.05,368.5509 503.05,383.7209" fill="none" id="Prom-to-Api" style="stroke:#64748B;stroke-width:1.2;stroke-dasharray:7,7;"/><polygon fill="#64748B" points="503.05,389.7209,507.05,380.7209,503.05,384.7209,499.05,380.7209,503.05,389.7209" style="stroke:#64748B;stroke-width:1.2;"/><text fill="#475569" font-family="'Helvetica'" font-size="10" lengthAdjust="spacing" textLength="33.4473" x="445.1262" y="345.2632">scrape</text><text fill="#475569" font-family="'Helvetica'" font-size="10" lengthAdjust="spacing" textLength="69.5996" x="427.05" y="356.9038">:8000/metrics</text></g><!--link Bbx to Api--><g class="link" data-entity-1="ent0006" data-entity-2="ent0003" data-link-type="dependency" data-source-line="297" id="lnk14"><path d="M448.32,275.4409 C448.32,305.1509 448.32,351.1609 448.32,383.7309" fill="none" id="Bbx-to-Api" style="stroke:#64748B;stroke-width:1.2;stroke-dasharray:7,7;"/><polygon fill="#64748B" points="448.32,389.7309,452.32,380.7309,448.32,384.7309,444.32,380.7309,448.32,389.7309" style="stroke:#64748B;stroke-width:1.2;"/><text fill="#475569" font-family="'Helvetica'" font-size="10" lengthAdjust="spacing" textLength="29.0771" x="397.2038" y="311.8732">probe</text><text fill="#475569" font-family="'Helvetica'" font-size="10" lengthAdjust="spacing" textLength="60.8447" x="381.32" y="323.5138">:8000/ready</text></g><!--link Api to LogFile--><g class="link" data-entity-1="ent0003" data-entity-2="ent0012" data-link-type="dependency" data-source-line="299" id="lnk15"><path d="M487.21,448.2109 C487.21,455.1109 487.21,456.4809 487.21,463.4309" fill="none" id="Api-to-LogFile" style="stroke:#64748B;stroke-width:1.2;stroke-dasharray:7,7;"/><polygon fill="#64748B" points="487.21,469.4309,491.21,460.4309,487.21,464.4309,483.21,460.4309,487.21,469.4309" style="stroke:#64748B;stroke-width:1.2;"/><text fill="#475569" font-family="'Helvetica'" font-size="10" lengthAdjust="spacing" textLength="44.2432" x="512.5108" y="427.1032">structlog</text><text fill="#475569" font-family="'Helvetica'" font-size="10" lengthAdjust="spacing" textLength="39.8291" x="494.21" y="438.7438">NDJSON</text><text fill="#475569" font-family="'Helvetica'" font-size="10" lengthAdjust="spacing" textLength="3.1787" x="534.0391" y="438.7438">&#160;</text><text fill="#475569" font-family="'Helvetica'" font-size="10" lengthAdjust="spacing" textLength="18.0469" x="537.2178" y="438.7438">line</text><text fill="#475569" font-family="'Helvetica'" font-size="10" lengthAdjust="spacing" textLength="3.1787" x="555.2647" y="438.7438">&#160;</text><text fill="#475569" font-family="'Helvetica'" font-size="10" lengthAdjust="spacing" textLength="16.6113" x="558.4434" y="438.7438">per</text><text fill="#475569" font-family="'Helvetica'" font-size="10" lengthAdjust="spacing" textLength="28.4814" x="520.3916" y="450.3844">event</text></g><!--link LogFile to FB--><g class="link" data-entity-1="ent0012" data-entity-2="ent0009" data-link-type="dependency" data-source-line="300" id="lnk16"><path d="M487.21,530.5709 C487.21,556.9209 487.21,588.3809 487.21,612.1209" fill="none" id="LogFile-to-FB" style="stroke:#64748B;stroke-width:1.2;stroke-dasharray:7,7;"/><polygon fill="#64748B" points="487.21,618.1209,491.21,609.1209,487.21,613.1209,483.21,609.1209,487.21,618.1209" style="stroke:#64748B;stroke-width:1.2;"/><text fill="#475569" font-family="'Helvetica'" font-size="10" lengthAdjust="spacing" textLength="15.6055" x="465.21" y="565.6232">tail</text></g><!--link FB to ES--><g class="link" data-entity-1="ent0009" data-entity-2="ent0010" data-link-type="dependency" data-source-line="301" id="lnk17"><path d="M487.21,663.3009 C487.21,670.1609 487.21,671.7609 487.21,678.8909" fill="none" id="FB-to-ES" style="stroke:#64748B;stroke-width:1.2;"/><polygon fill="#64748B" points="487.21,684.8909,491.21,675.8909,487.21,679.8909,483.21,675.8909,487.21,684.8909" style="stroke:#64748B;stroke-width:1.2;"/><text fill="#475569" font-family="'Helvetica'" font-size="10" lengthAdjust="spacing" textLength="27.5342" x="494.21" y="665.3832">index</text></g><!--link Kib to ES--><g class="link" data-entity-1="ent0011" data-entity-2="ent0010" data-link-type="dependency" data-source-line="302" id="lnk18"><path d="M553.14,640.9509 C550.15,640.9509 548.24,640.9509 548.24,640.9509 C548.24,640.9509 548.24,658.7109 548.24,678.7609" fill="none" id="Kib-to-ES" style="stroke:#64748B;stroke-width:1.2;"/><polygon fill="#64748B" points="548.24,684.7609,552.24,675.7609,548.24,679.7609,544.24,675.7609,548.24,684.7609" style="stroke:#64748B;stroke-width:1.2;"/><text fill="#475569" font-family="'Helvetica'" font-size="10" lengthAdjust="spacing" textLength="28.8672" x="544.74" y="676.6932">query</text></g><!--link Graf to Prom--><g class="link" data-entity-1="ent0007" data-entity-2="ent0005" data-link-type="dependency" data-source-line="304" id="lnk19"><path d="M376.9,275.2609 C376.9,297.4309 376.9,327.9509 376.9,327.9509 C376.9,327.9509 418.96,327.9509 458,327.9509" fill="none" id="Graf-to-Prom" style="stroke:#64748B;stroke-width:1.2;"/><polygon fill="#64748B" points="464,327.9509,455,323.9509,459,327.9509,455,331.9509,464,327.9509" style="stroke:#64748B;stroke-width:1.2;"/><text fill="#475569" font-family="'Helvetica'" font-size="10" lengthAdjust="spacing" textLength="39.4434" x="348.11" y="344.2332">PromQL</text></g><!--link Graf to ES--><g class="link" data-entity-1="ent0007" data-entity-2="ent0010" data-link-type="dependency" data-source-line="305" id="lnk20"><path d="M351.53,275.5009 C351.53,368.3809 351.53,712.9509 351.53,712.9509 C351.53,712.9509 399.34,712.9509 442.44,712.9509" fill="none" id="Graf-to-ES" style="stroke:#64748B;stroke-width:1.2;stroke-dasharray:7,7;"/><polygon fill="#64748B" points="448.44,712.9509,439.44,708.9509,443.44,712.9509,439.44,716.9509,448.44,712.9509" style="stroke:#64748B;stroke-width:1.2;"/><text fill="#475569" font-family="'Helvetica'" font-size="10" lengthAdjust="spacing" textLength="40.5273" x="288.3576" y="521.9632">optional</text><text fill="#475569" font-family="'Helvetica'" font-size="10" lengthAdjust="spacing" textLength="36.0498" x="272.53" y="533.6038">Lucene</text><text fill="#475569" font-family="'Helvetica'" font-size="10" lengthAdjust="spacing" textLength="3.1787" x="308.5798" y="533.6038">&#160;</text><text fill="#475569" font-family="'Helvetica'" font-size="10" lengthAdjust="spacing" textLength="32.9541" x="311.7585" y="533.6038">panels</text></g><!--link Op to Graf--><g class="link" data-entity-1="ent0002" data-entity-2="ent0007" data-link-type="dependency" data-source-line="307" id="lnk21"><path d="M449.11,105.9509 C411.56,105.9509 364.21,105.9509 364.21,105.9509 C364.21,105.9509 364.21,182.9109 364.21,224.0709" fill="none" id="Op-to-Graf" style="stroke:#64748B;stroke-width:1.2;"/><polygon fill="#64748B" points="364.21,230.0709,368.21,221.0709,364.21,225.0709,360.21,221.0709,364.21,230.0709" style="stroke:#64748B;stroke-width:1.2;"/><text fill="#475569" font-family="'Helvetica'" font-size="10" lengthAdjust="spacing" textLength="20.6787" x="308.564" y="93.8432">web</text><text fill="#475569" font-family="'Helvetica'" font-size="10" lengthAdjust="spacing" textLength="3.1787" x="329.2427" y="93.8432">&#160;</text><text fill="#475569" font-family="'Helvetica'" font-size="10" lengthAdjust="spacing" textLength="10.2686" x="332.4214" y="93.8432">UI</text><text fill="#475569" font-family="'Helvetica'" font-size="10" lengthAdjust="spacing" textLength="58.2861" x="293.21" y="105.4838">dashboards</text><text fill="#475569" font-family="'Helvetica'" font-size="10" lengthAdjust="spacing" textLength="3.1787" x="351.4961" y="105.4838">&#160;</text><text fill="#475569" font-family="'Helvetica'" font-size="10" lengthAdjust="spacing" textLength="3.3691" x="354.6748" y="105.4838">/</text><text fill="#475569" font-family="'Helvetica'" font-size="10" lengthAdjust="spacing" textLength="28.3008" x="311.4766" y="117.1244">alerts</text></g><!--link Op to Kib--><g class="link" data-entity-1="ent0002" data-entity-2="ent0011" data-link-type="dependency" data-source-line="308" id="lnk22"><path d="M539.46,105.9509 C565.38,105.9509 592.79,105.9509 592.79,105.9509 C592.79,105.9509 592.79,510.3209 592.79,612.1109" fill="none" id="Op-to-Kib" style="stroke:#64748B;stroke-width:1.2;"/><polygon fill="#64748B" points="592.79,618.1109,596.79,609.1109,592.79,613.1109,588.79,609.1109,592.79,618.1109" style="stroke:#64748B;stroke-width:1.2;"/><text fill="#475569" font-family="'Helvetica'" font-size="10" lengthAdjust="spacing" textLength="20.6787" x="608.6572" y="314.6432">web</text><text fill="#475569" font-family="'Helvetica'" font-size="10" lengthAdjust="spacing" textLength="3.1787" x="629.3359" y="314.6432">&#160;</text><text fill="#475569" font-family="'Helvetica'" font-size="10" lengthAdjust="spacing" textLength="10.2686" x="632.5146" y="314.6432">UI</text><text fill="#475569" font-family="'Helvetica'" font-size="10" lengthAdjust="spacing" textLength="15.2441" x="599.79" y="326.2838">log</text><text fill="#475569" font-family="'Helvetica'" font-size="10" lengthAdjust="spacing" textLength="3.1787" x="615.0341" y="326.2838">&#160;</text><text fill="#475569" font-family="'Helvetica'" font-size="10" lengthAdjust="spacing" textLength="33.4375" x="618.2129" y="326.2838">search</text></g><!--link MetricsP to GMN23--><g class="link" data-entity-1="ent0004" data-entity-2="ent0024" data-link-type="association" data-source-line="311" id="lnk25"><path d="M290.155,312.9509 C290.0713,312.9509 289.987,312.9509 289.9022,312.9509 C289.7325,312.9509 289.5605,312.9509 289.3863,312.9509 C283.81,312.9509 275.905,312.9509 266.59,312.9509" fill="none" id="MetricsP-GMN23" style="stroke:#64748B;stroke-width:1.2;stroke-dasharray:7,7;"/></g><!--link LogP to GMN26--><g class="link" data-entity-1="ent0008" data-entity-2="ent0027" data-link-type="association" data-source-line="316" id="lnk28"><path d="M659.3229,712.9509 C659.4069,712.9509 659.4916,712.9509 659.5768,712.9509 C659.7473,712.9509 659.92,712.9509 660.095,712.9509 C665.695,712.9509 673.61,712.9509 682.87,712.9509" fill="none" id="LogP-GMN26" style="stroke:#64748B;stroke-width:1.2;stroke-dasharray:7,7;"/></g><?plantuml-src jHhjSjkuyR-UOgFBzEpKbcp7ZcDVSrDz9cdyTPRSzgRfH109IQmfWWU0jjLUP_eGVPV-xwFqIReBW1H5aOup8tCciStzn7vX0Uxty6w3J-rx6CoOv3vSXIpID-Tde6w32Fxtht-32g9fo469H7eSn0IqJFGC9aA27x2fP7Eu2rJ2GjMeVO-CXhD0mIH04lpvwbKG_Orx6Za7ypb70it31R29vX96lrUQIPtCmz6hLp1U8F58UJA8jMfAFkKHbuZ-nHUUQiIB4Omv2aLDUEIZJg1dFDD02_WanMsmWte2l-FIC7lLY8av995FueXH4ryqHx357pmUQnW5aHScFc-EjY68Pbm6MXd6Yiqvn2paMlCTvAKNiK19yMon0o5RY4Jl08jycF4mHjvpvacX6Z0K890jWes168Y8xuh995MKMCK87BsukFmo6FvyrXiXYf4O1X6jHwAroYnaZTiHqHsFT20YTOf_0kpYgn1TWnQuvP62hT6BbnUjynwk1_rf68i8-SKXG-_D-0FSiJ3Xoa1zxeNazOPX1N35vIuF-Hmb6F_735LM8Fc4InvvXjtShZj07zm5FhezNPe2DHD9w3jUMWWJFX5v0osfD4TpJ2HNCnXzzsVpZ73Hk4pa4KJeGPQoQhYbjOL4nodmc9GBc7CMeTzFOOmBW7V0uZWCF4R6s04XMJIbj-WD5Q0mL7V7gO8BGXa-0cV9d4NG1EPf8NSmRWKw6D__ad1asKGHIZ5aCquKHbA8qOV0Y2SQwHsp89f8re2MxwE-dhMziV3zZ5j7Ic5Z7mCuGPyYAEBtwPBEJQ2WcrxsXS2rZtPWz7AGZ7MWGsx-EAF8zmSQhSoaRrvzGFCuXs9qxGQHquKSOUqx5tumMMJfe3YkKmUUCYv0fHPMH_GYPG9_m0M1DvDYpcrSNGaqvU8KMjthtRszWptOwXp2RvVLm5l6tNO3RcAVJ3CMM0Tqbkwe3IKAMW2vW6PZVAV5bECR-GCi4ne6Vtolu3v0uj6StM8OObxkJeA7aOtwUrmsrPBDLZZajxkv1xdjDrPJR-C21ecSKDAYSKFhI8-5c7uHPtBtVeQPimDJXbNQ9GOcbvWR-uzDtZHgBrwstt-vQhtlWNtUGVsxlddg5ZQukUwtEhqCzhRVwdVgALtdaoCriFt-KV_4mIukXmMUxLxRmRfjW5NOSQ_hOAtEyF9w2Ujr-jt-aOFzTDExwUNeMYWlrRDpTddJpS7s-YSPh7Sn_3ZyUScptt-JmJvyVF_X3FyDBQpRxhNwFGTxVtrvSvNJfTS_83eqV5fsoEIXOFxk62rk38mbFKkj7oZqlLjCftUOVfYQmJmM4jDM6yDVNdTxrrykUZV3wzPPAkJaiFMw_RQ-X1UCt6btZthxUVZrn_FMzSyf_E3epMjdQ0ilB72_UzZhvlaNdD4vEDpVw-JW1OVi7Hw_FJhEmGjEEUwyRZbdklMj1aBtvFXuxuqnuiVerXQVREE4MO3vBxtPWWpqyU9JjZeZkhz_VD2gEyZvpR3NTKmFZu-EtfoaaDRrzUMV7EJDuV7XstPzyxbzW3jvflVc4nl3vzOMmFe77jvn_9lLJNIP9gPv5aJ90sWiqxltWOzeYasuNg1IbDnIt2ikaO-jvehggK66HDc-22ioVy0z3YPi7eIB7wZ5m0xbSc1Xk0SBbAgeQy9cZYEhJ8qTmdNo1VuoffADPHy6ZBgBETSoy7OzCO_nDLLuiuoM35YutQXbJGEs5XEMXBel8dr1hLH-fULeW-3lYBQ_NmwbKYiX7pKvl25jdajHLS8oD2iAXHsLGlKY9F1OO3DJ0hUgG9KoBOaEMiCp0Ls6bUcobuDUO6kG1vP3Km5LcjXE8iTdXOljFtBGarAW4v9RnCRpuNK3panBlM7Eo-Me6VF5FIM7VIPuMk4vEFNUMAXuMYknZiz43axnZfry5XlKf3Cw5kLmOkRTOk-OHayfZXHu5Ea8YOsGaVCs1xjYlh_K4E1D3XO9doiUPx23F25slhShm8Dy2iK1v9-JFDisgZnrEfdqSkq27JHOZ3M4DZIm9MZPooUAqpaDpqRmkuiVBNXawW0TUx2bUy2cLSyOKhhp05Osx6CYHZ6_F2vWVKbYouSQsR7ax1PHyUo1tQRhuV4WHFsoGkjEEJQ55Xr5u4BshEZDn-DXmwQdUhPuDEopz8NbnbR46LAB4U6f1DlDWyslzAXXYWaMTcejWSsntESyRKxOjWR396GAz_053qDnl_ribY5roiAI6eqYccdJSbRCzIIbg3bZ5k13t3rROJ2DpD4N8EGJlNbhlw4JGwInPKVROacA-VD5s9MjHaLJ0kHQ-nBqWacNHgqaoU-OzYdicpcyFEF2hfKZk4uBPraSk1DBANf5FAnlZ0MIrIGhGIlgNgLv9zqcdgRv4lt9cXT82kKX7zH-YU-T-zSrCUXhli_db3t7v4NqyRzI6UKYB7g9ZCT4O2HnMIAZF8WT-hgCOX2lL5aTu2bxpMCLgyZGYq8UMKKd58bVPIXpibr3_ZOp_KItLrK2p0bk3VaH0OyGBCFDzAJFiICTD_1u92GMZ6ShZLscsPWfNkhoRhiCiyhRZs3dRBNVE5oj4c68bONkqfvQ9vO4NwaKEQfUf0Ezg4WUUscoZlr8xgGIDktnjzXjqNMiCbsWuhyavgePrSBpMn2pI3zZ7qQ2LtSl-x1xF2FFUH6rAidCDSeQyYD9zWZ1Uf8LqDPtNBVdhcowcVMU5cDvWYVlHcj4LJjf3h6eVL7pDcdAP5NWPXTUPIJLqLj6HhsO5E7Jjx2Ku16_FbkMd61TJ5CZFK4zMrgaaixjvn3J6UUpmyC6XCiIWhMxZtp3LBm2aLnXBwDIAMsE1ml3m16PgwabEXxw76PsAx9wiZqg3xZYkNhjSDqM3wKuwNDOij2pO8B_eYUsg6jKJywmbF8zoeWhKi9SP5VIV5jEhD1-uCnVkGIgl6bAoQxJBuNVPfSbsQgsNxTBbpv2bhI8vGrYaQfgM_ygvLe9BfnvIj1NNV2u6J4YAvltQjs8wh4UFkj-D_ubR8-QDlgoz_oLYSIKsgQwR5kQCijy9SQMTAjxSid6R73BDkRIw4YHIzIfZWqYQcajWt5IVaLI4XahDAMds69HDYG36ZeeK-xHqa6KlJMVm5h7lFduspSj9EQQNZn_2AQIAgAmujoO4fM7ONKGhXAknU5QUsYGAsAhweE5eofSIgvGhLrEvcaghdRMFdauccx0vYBooqAuBAwAP1LxvnD87xt6MQUgo8Ad2An8Wz9ZupAUP2dDqloRJvo3Xlj8P0zVNiWmjB8B-Yrtzuj0wW2vRp_scHaNhlJpNG9RdIhlVLPgdCFz-gLFsNUnwZPrvKe6hV8DfmI3_eGpGe6aybXNm2khvy_vTMx_TGEkUQBCFC_SZI_PCIGtGhIzSPcjC4n5qT1JdD1_67Duxh1VexEn9lkXmfkPwQ-ryISxt8JsIIUijkeVXiEh0VptF_27mUK5_MooE6ZUxTUtKwEReSSvGnKy5XjfTdxGCB3ixEVHhNesBeLyQB0mdIPKv4SpV8XiYTzOQ2tcu4dk1zfyRhICQB9hgowvbejT-iY_r6BzCNhDw8jS49bXGSscbilgoDZM8pmi5pUs5Xeos3eq8sjgsnZhHd5GiPbt2HUdovayc_iCQmHdpXOWqJbcl8rJ0K63JP1jerPxaKI_98A6FcCfFEwJ-vOkU4cp2jkrrBZcpzeBr2H3hk3Wh9xIcqCeYgINq6oQrytcapWPipi-aQ39H0KNNymBSDDCDN2QaOa8vqcCYvweEHlBO3hJoFBNTtOy47yw9_nAR-r08ZJTW6Bk-HL-vyQaVanHbsEFID2w-fX7jHDSAMfk5X9HVQQPqZIfP57DO5QAQiOQ4Mdixb9M5B2pNuIAQx4hAbZ3naDlU8rjOE8lu5n40OgYCpK5NESGY-uT3-4rR6NVqZ7WQbh4z1tOfOUTViM5rMhM8FNBcEPFXFmSRSrPuBwTRTV9NvTnhPPzOuVwKZQQv7Dq-dPlRy_WjUAWLdCVvw5-RWPO5CH1p2c938fxUGN_G5lyvOfg6XQNHFsLWFGdlMw7o6Ci7jndSIuDj3r-8E1xoIOiOkOL_LxxPqxccPXcyd0XmiGz2-qo4EZazeEGZpdJXacV0j1tDyguEgpyLD0upKyPkjw0Q3u5urGi_afIcVj20VMBhYbnePYgpn5DQARoI52jHkk2HkD7CX2SWl8aYxapNDFE-QWQBY-7W_uUPoYICtzHgn64C1nVugHbucaK-pbALQ1gHMFId8P8QoagaVNRI85k3Mlus-xkZxWkV15WmNseuOgMh_2CAr4S6TUyDEgVcXy_dTdNnC_WfXR-79qbM2ReCZdYeQhLBcD3Qx1FuPwFuGPZnMTgDXOqTKgZmI6NMgMOfC8I4TS4rWKrMpPSt8f95aBeb5QYiKfZHsV6QG5jTG9RCyv2h9-_0J5MNDwnSH0YnlOEuHka_NtO6fnTeWQ3inR-px6pbZ1E_2dNsurb5IeAflWf4tg0gMOzaT1SFwe-nMmaUQ7mM0Wh4MMd-VbTNj3_0G00?></g></svg>
