<?plantuml 1.2026.1?><svg xmlns="http://www.w3.org/2000/svg" xmlns:xlink="http://www.w3.org/1999/xlink" contentStyleType="text/css" data-diagram-type="DESCRIPTION" height="689.7281px" preserveAspectRatio="none" style="width:960px;height:689px;background:#FFFFFF;" version="1.1" viewBox="0 0 960 689" width="960.1926px" zoomAndPan="magnify"><title>ETR Study Portal &#8212; C4 Level 3 (components)</title><defs/><g><g class="title" data-source-line="274"><text fill="#0F172A" font-family="'Helvetica'" font-size="13.1293" font-weight="bold" lengthAdjust="spacing" textLength="330.6825" x="308.9694" y="26.1916">ETR Study Portal &#8212; C4 Level 3 (components)</text></g><!--cluster Sources--><g class="cluster" data-qualified-name="Sources" data-source-line="281" id="ent0004"><rect fill="#F8FAFC" height="113.28" rx="3.5012" ry="3.5012" style="stroke:#1D4ED8;stroke-width:1.0503;" width="491.0374" x="464.5862" y="50.295"/><text fill="#0F172A" font-family="'Helvetica'" font-size="9.6282" font-weight="bold" lengthAdjust="spacing" textLength="95.8164" x="662.1966" y="66.2344">Authored sources</text></g><!--cluster Build--><g class="cluster" data-qualified-name="Build" data-source-line="288" id="ent0009"><rect fill="#F8FAFC" height="113.4463" rx="3.5012" ry="3.5012" style="stroke:#1D4ED8;stroke-width:1.0503;" width="576.8158" x="249.2649" y="184.5819"/><text fill="#0F172A" font-family="'Helvetica'" font-size="9.6282" font-weight="bold" lengthAdjust="spacing" textLength="74.6372" x="500.3542" y="200.5213">Build pipeline</text><text fill="#0F172A" font-family="'Helvetica'" font-size="9.6282" font-weight="bold" lengthAdjust="spacing" textLength="156.0772" x="459.6342" y="211.7291">(scripts/regenerate_docs.py)</text></g><!--cluster Output--><g class="cluster" data-qualified-name="Output" data-source-line="295" id="ent0014"><rect fill="#F8FAFC" height="185.9202" rx="3.5012" ry="3.5012" style="stroke:#1D4ED8;stroke-width:1.0503;" width="295.8478" x="318.4128" y="326.0374"/><text fill="#0F172A" font-family="'Helvetica'" font-size="9.6282" font-weight="bold" lengthAdjust="spacing" textLength="67.6512" x="432.5112" y="341.9768">Static portal</text><text fill="#0F172A" font-family="'Helvetica'" font-size="9.6282" font-weight="bold" lengthAdjust="spacing" textLength="93.0427" x="419.8154" y="353.1846">(services/portal/)</text></g><!--entity HTML--><g class="entity" data-qualified-name="Sources.HTML" data-source-line="282" id="ent0005"><rect fill="#F8FAFC" height="61.6327" rx="3.5012" ry="3.5012" style="stroke:#2563EB;stroke-width:1.0503;" width="144.4266" x="796.7498" y="87.9324"/><text fill="#0F172A" font-family="'Helvetica'" font-size="9.6282" lengthAdjust="spacing" textLength="58.9162" x="810.7544" y="110.8741">HTML pages</text><text fill="#0F172A" font-family="'Helvetica'" font-size="9.6282" lengthAdjust="spacing" textLength="116.4173" x="810.7544" y="122.0819">(ADRs, RFCs, handbook,</text><text fill="#0F172A" font-family="'Helvetica'" font-size="9.6282" lengthAdjust="spacing" textLength="111.9229" x="810.7544" y="133.2897">specs, audits, analysis)</text></g><!--entity PUML--><g class="entity" data-qualified-name="Sources.PUML" data-source-line="283" id="ent0006"><rect fill="#F8FAFC" height="50.4249" rx="3.5012" ry="3.5012" style="stroke:#2563EB;stroke-width:1.0503;" width="72.9862" x="478.8534" y="93.543"/><text fill="#0F172A" font-family="'Helvetica'" font-size="9.6282" lengthAdjust="spacing" textLength="44.977" x="492.858" y="116.4847">PlantUML</text><text fill="#0F172A" font-family="'Helvetica'" font-size="9.6282" lengthAdjust="spacing" textLength="27.3284" x="492.858" y="127.6925">.puml</text></g><!--entity PySrc--><g class="entity" data-qualified-name="Sources.PySrc" data-source-line="284" id="ent0007"><rect fill="#F8FAFC" height="50.4249" rx="3.5012" ry="3.5012" style="stroke:#2563EB;stroke-width:1.0503;" width="105.5425" x="666.5242" y="93.543"/><text fill="#0F172A" font-family="'Helvetica'" font-size="9.6282" lengthAdjust="spacing" textLength="77.5332" x="680.5288" y="116.4847">Python modules</text><text fill="#0F172A" font-family="'Helvetica'" font-size="9.6282" lengthAdjust="spacing" textLength="57.4635" x="680.5288" y="127.6925">(docstrings)</text></g><!--entity CSS--><g class="entity" data-qualified-name="Sources.CSS" data-source-line="285" id="ent0008"><rect fill="#F8FAFC" height="50.4249" rx="3.5012" ry="3.5012" style="stroke:#2563EB;stroke-width:1.0503;" width="65.2715" x="576.3694" y="93.543"/><text fill="#0F172A" font-family="'Helvetica'" font-size="9.6282" lengthAdjust="spacing" textLength="37.2622" x="590.374" y="116.4847">CSS / JS</text><text fill="#0F172A" font-family="'Helvetica'" font-size="9.6282" lengthAdjust="spacing" textLength="30.6475" x="590.374" y="127.6925">assets</text></g><!--entity KrokiRender--><g class="entity" data-qualified-name="Build.KrokiRender" data-source-line="289" id="ent0010"><rect fill="#F8FAFC" height="50.4249" rx="3.5012" ry="3.5012" style="stroke:#2563EB;stroke-width:1.0503;" width="108.0247" x="263.5234" y="233.5981"/><text fill="#0F172A" font-family="'Helvetica'" font-size="9.6282" lengthAdjust="spacing" textLength="80.0155" x="277.528" y="256.5398">PlantUML render</text><text fill="#0F172A" font-family="'Helvetica'" font-size="9.6282" lengthAdjust="spacing" textLength="41.7472" x="277.528" y="267.7476">via Kroki</text></g><!--entity Pdoc--><g class="entity" data-qualified-name="Build.Pdoc" data-source-line="290" id="ent0011"><rect fill="#F8FAFC" height="50.4249" rx="3.5012" ry="3.5012" style="stroke:#2563EB;stroke-width:1.0503;" width="118.9787" x="693.063" y="233.5981"/><text fill="#0F172A" font-family="'Helvetica'" font-size="9.6282" lengthAdjust="spacing" textLength="23.4076" x="707.0676" y="256.5398">pdoc</text><text fill="#0F172A" font-family="'Helvetica'" font-size="9.6282" lengthAdjust="spacing" textLength="90.9694" x="707.0676" y="267.7476">API code reference</text></g><!--entity Indexer--><g class="entity" data-qualified-name="Build.Indexer" data-source-line="291" id="ent0012"><rect fill="#F8FAFC" height="50.4249" rx="3.5012" ry="3.5012" style="stroke:#2563EB;stroke-width:1.0503;" width="162.014" x="395.8322" y="233.5981"/><text fill="#0F172A" font-family="'Helvetica'" font-size="9.6282" lengthAdjust="spacing" textLength="98.3222" x="409.8368" y="256.5398">Docs search indexer</text><text fill="#0F172A" font-family="'Helvetica'" font-size="9.6282" lengthAdjust="spacing" textLength="134.0048" x="409.8368" y="267.7476">build_docs_search_index.py</text></g><!--entity Assets--><g class="entity" data-qualified-name="Build.Assets" data-source-line="292" id="ent0013"><rect fill="#F8FAFC" height="50.4249" rx="3.5012" ry="3.5012" style="stroke:#2563EB;stroke-width:1.0503;" width="86.6857" x="582.2951" y="233.5981"/><text fill="#0F172A" font-family="'Helvetica'" font-size="9.6282" lengthAdjust="spacing" textLength="58.6764" x="596.2997" y="256.5398">Asset copy /</text><text fill="#0F172A" font-family="'Helvetica'" font-size="9.6282" lengthAdjust="spacing" textLength="50.783" x="596.2997" y="267.7476">fingerprint</text></g><!--entity Public--><g class="entity" data-qualified-name="Output.Public" data-source-line="296" id="ent0015"><rect fill="#F8FAFC" height="50.4249" rx="3.5012" ry="3.5012" style="stroke:#2563EB;stroke-width:1.0503;" width="109.0261" x="346.177" y="440.5253"/><text fill="#0F172A" font-family="'Helvetica'" font-size="9.6282" lengthAdjust="spacing" textLength="32.213" x="360.1816" y="463.467">public/</text><text fill="#0F172A" font-family="'Helvetica'" font-size="9.6282" lengthAdjust="spacing" textLength="81.0168" x="360.1816" y="474.6748">integrator-facing</text></g><!--entity Internal--><g class="entity" data-qualified-name="Output.Internal" data-source-line="297" id="ent0016"><rect fill="#F8FAFC" height="50.4249" rx="3.5012" ry="3.5012" style="stroke:#2563EB;stroke-width:1.0503;" width="113.3466" x="479.6849" y="440.5253"/><text fill="#0F172A" font-family="'Helvetica'" font-size="9.6282" lengthAdjust="spacing" textLength="40.3556" x="493.6895" y="463.467">internal/</text><text fill="#0F172A" font-family="'Helvetica'" font-size="9.6282" lengthAdjust="spacing" textLength="85.3373" x="493.6895" y="474.6748">maintainer-facing</text></g><!--entity RenderedSvg--><g class="entity" data-qualified-name="Output.RenderedSvg" data-source-line="298" id="ent0017"><rect fill="#F8FAFC" height="39.2171" rx="3.5012" ry="3.5012" style="stroke:#2563EB;stroke-width:1.0503;" width="99.9668" x="349.8269" y="382.0559"/><text fill="#0F172A" font-family="'Helvetica'" font-size="9.6282" lengthAdjust="spacing" textLength="71.9575" x="363.8316" y="404.9977">rendered/*.svg</text></g><!--entity SearchIdx--><g class="entity" data-qualified-name="Output.SearchIdx" data-source-line="299" id="ent0018"><rect fill="#F8FAFC" height="39.2171" rx="3.5012" ry="3.5012" style="stroke:#2563EB;stroke-width:1.0503;" width="112.9329" x="474.6345" y="382.0559"/><text fill="#0F172A" font-family="'Helvetica'" font-size="9.6282" lengthAdjust="spacing" textLength="84.9236" x="488.6391" y="404.9977">search-index.json</text></g><!--entity Integrator--><g class="entity" data-qualified-name="Integrator" data-source-line="278" id="ent0002"><ellipse cx="407.689" cy="617.7014" fill="#ECFDF5" rx="14.0046" ry="14.0046" style="stroke:#047857;stroke-width:1.0503;"/><path d="M407.689,635.2072 C411.1901,635.2072 413.816,635.2072 417.3171,631.706 C424.3195,631.706 431.3218,638.7083 431.3218,645.7106 L431.3218,649.2118 C431.3218,652.7129 427.8206,656.2141 424.3195,656.2141 L391.0585,656.2141 C387.5573,656.2141 384.0561,652.7129 384.0561,649.2118 L384.0561,645.7106 C384.0561,638.7083 391.0585,631.706 398.0608,631.706 C401.5619,635.2072 404.1878,635.2072 407.689,635.2072" fill="#ECFDF5" style="stroke:#047857;stroke-width:1.0503;"/><text fill="#0F172A" font-family="'Helvetica'" font-size="9.6282" font-weight="bold" lengthAdjust="spacing" textLength="55.6723" x="367.1664" y="671.4533">Integrator</text><text fill="#0F172A" font-family="'Helvetica'" font-size="9.6282" font-weight="bold" lengthAdjust="spacing" textLength="81.0451" x="367.1664" y="682.6611">(public reader)</text></g><!--entity Maintainer--><g class="entity" data-qualified-name="Maintainer" data-source-line="279" id="ent0003"><ellipse cx="528.4828" cy="617.7014" fill="#ECFDF5" rx="14.0046" ry="14.0046" style="stroke:#047857;stroke-width:1.0503;"/><path d="M528.4828,635.2072 C531.984,635.2072 534.6098,635.2072 538.111,631.706 C545.1133,631.706 552.1156,638.7083 552.1156,645.7106 L552.1156,649.2118 C552.1156,652.7129 548.6145,656.2141 545.1133,656.2141 L511.8523,656.2141 C508.3511,656.2141 504.85,652.7129 504.85,649.2118 L504.85,645.7106 C504.85,638.7083 511.8523,631.706 518.8546,631.706 C522.3558,635.2072 524.9816,635.2072 528.4828,635.2072" fill="#ECFDF5" style="stroke:#047857;stroke-width:1.0503;"/><text fill="#0F172A" font-family="'Helvetica'" font-size="9.6282" font-weight="bold" lengthAdjust="spacing" textLength="58.7658" x="483.0898" y="671.4533">Maintainer</text><text fill="#0F172A" font-family="'Helvetica'" font-size="9.6282" font-weight="bold" lengthAdjust="spacing" textLength="90.7861" x="483.0898" y="682.6611">(internal reader)</text></g><!--entity Nginx--><g class="entity" data-qualified-name="Nginx" data-source-line="302" id="ent0019"><rect fill="#F8FAFC" height="50.4249" rx="3.5012" ry="3.5012" style="stroke:#2563EB;stroke-width:1.0503;" width="135.8797" x="400.1473" y="532.9646"/><text fill="#0F172A" font-family="'Helvetica'" font-size="9.6282" lengthAdjust="spacing" textLength="59.5509" x="414.152" y="555.9063">nginx-alpine</text><text fill="#0F172A" font-family="'Helvetica'" font-size="9.6282" lengthAdjust="spacing" textLength="107.8705" x="414.152" y="567.1141">image (per ADR 0028)</text></g><g class="entity" data-qualified-name="GMN37" data-source-line="326" id="ent0038"><path d="M5.2517,449.427 L5.2517,482.0588 A3.5012,3.5012 0 0 0 8.7529,485.56 L293.7049,485.56 A3.5012,3.5012 0 0 0 297.2061,482.0588 L297.2061,454.6787 L288.4532,445.9258 L8.7529,445.9258 A3.5012,3.5012 0 0 0 5.2517,449.427" fill="#FFFBEB" style="stroke:#D97706;stroke-width:0.8753;"/><path d="M288.4532,445.9258 L288.4532,452.9281 A1.7506,1.7506 0 0 0 290.2038,454.6787 L297.2061,454.6787 L288.4532,445.9258" fill="#FFFBEB" style="stroke:#D97706;stroke-width:0.8753;"/><text fill="#0F172A" font-family="'Helvetica'" font-size="8.7529" lengthAdjust="spacing" textLength="220.9379" x="15.7552" y="463.6786">Build is offline-friendly: Kroki is invoked only when</text><text fill="#0F172A" font-family="'Helvetica'" font-size="8.7529" lengthAdjust="spacing" textLength="263.0698" x="15.7552" y="473.8675">PUML sources change (input-hashes.json fingerprint cache).</text></g><!--link PUML to KrokiRender--><g class="link" data-entity-1="ent0006" data-entity-2="ent0010" data-link-type="dependency" data-source-line="304" id="lnk20"><path d="M478.6083,119.4953 C421.3994,119.4953 317.5375,119.4953 317.5375,119.4953 C317.5375,119.4953 317.5375,187.7854 317.5375,228.005" fill="none" id="PUML-to-KrokiRender" style="stroke:#64748B;stroke-width:1.0503;"/><polygon fill="#64748B" points="317.5375,233.2567,321.0387,225.3791,317.5375,228.8803,314.0364,225.3791,317.5375,233.2567" style="stroke:#64748B;stroke-width:1.0503;"/></g><!--link PySrc to Pdoc--><g class="link" data-entity-1="ent0007" data-entity-2="ent0011" data-link-type="dependency" data-source-line="305" id="lnk21"><path d="M732.5648,144.1172 C732.5648,169.3431 732.5648,202.5866 732.5648,227.9087" fill="none" id="PySrc-to-Pdoc" style="stroke:#64748B;stroke-width:1.0503;"/><polygon fill="#64748B" points="732.5648,233.1604,736.0659,225.2828,732.5648,228.784,729.0636,225.2828,732.5648,233.1604" style="stroke:#64748B;stroke-width:1.0503;"/></g><!--link HTML to Indexer--><g class="link" data-entity-1="ent0005" data-entity-2="ent0012" data-link-type="dependency" data-source-line="306" id="lnk22"><path d="M804.3998,149.8766 C804.3998,169.877 804.3998,192.1444 804.3998,192.1444 C804.3998,192.1444 515.3529,192.1444 515.3529,192.1444 C515.3529,192.1444 515.3529,209.1775 515.3529,227.97" fill="none" id="HTML-to-Indexer" style="stroke:#64748B;stroke-width:1.0503;"/><polygon fill="#64748B" points="515.3529,233.2217,518.8541,225.3441,515.3529,228.8453,511.8518,225.3441,515.3529,233.2217" style="stroke:#64748B;stroke-width:1.0503;"/></g><!--link CSS to Assets--><g class="link" data-entity-1="ent0008" data-entity-2="ent0013" data-link-type="dependency" data-source-line="307" id="lnk23"><path d="M611.9674,144.1172 C611.9674,169.3431 611.9674,202.5866 611.9674,227.9087" fill="none" id="CSS-to-Assets" style="stroke:#64748B;stroke-width:1.0503;"/><polygon fill="#64748B" points="611.9674,233.1604,615.4686,225.2828,611.9674,228.784,608.4662,225.2828,611.9674,233.1604" style="stroke:#64748B;stroke-width:1.0503;"/></g><!--link KrokiRender to RenderedSvg--><g class="link" data-entity-1="ent0010" data-entity-2="ent0017" data-link-type="dependency" data-source-line="309" id="lnk24"><path d="M360.6893,284.3474 C360.6893,312.1991 360.6893,350.9306 360.6893,376.3928" fill="none" id="KrokiRender-to-RenderedSvg" style="stroke:#64748B;stroke-width:1.0503;"/><polygon fill="#64748B" points="360.6893,381.6445,364.1904,373.7669,360.6893,377.2681,357.1881,373.7669,360.6893,381.6445" style="stroke:#64748B;stroke-width:1.0503;"/></g><!--link Pdoc to Internal--><g class="link" data-entity-1="ent0011" data-entity-2="ent0016" data-link-type="dependency" data-source-line="310" id="lnk25"><path d="M752.5564,284.2248 C752.5564,339.5869 752.5564,466.11 752.5564,466.11 C752.5564,466.11 662.7429,466.11 598.698,466.11" fill="none" id="Pdoc-to-Internal" style="stroke:#64748B;stroke-width:1.0503;"/><polygon fill="#64748B" points="593.4463,466.11,601.3239,469.6111,597.8227,466.11,601.3239,462.6088,593.4463,466.11" style="stroke:#64748B;stroke-width:1.0503;"/></g><!--link Indexer to SearchIdx--><g class="link" data-entity-1="ent0012" data-entity-2="ent0018" data-link-type="dependency" data-source-line="311" id="lnk26"><path d="M516.237,284.3474 C516.237,312.1991 516.237,350.9306 516.237,376.3928" fill="none" id="Indexer-to-SearchIdx" style="stroke:#64748B;stroke-width:1.0503;"/><polygon fill="#64748B" points="516.237,381.6445,519.7381,373.7669,516.237,377.2681,512.7358,373.7669,516.237,381.6445" style="stroke:#64748B;stroke-width:1.0503;"/></g><!--link Assets to Public--><g class="link" data-entity-1="ent0013" data-entity-2="ent0015" data-link-type="dependency" data-source-line="312" id="lnk27"><path d="M618.3483,284.2073 C618.3483,331.543 618.3483,428.4725 618.3483,428.4725 C618.3483,428.4725 399.8147,428.4725 399.8147,428.4725 C399.8147,428.4725 399.8147,428.4638 399.8147,435.0109" fill="none" id="Assets-to-Public" style="stroke:#64748B;stroke-width:1.0503;"/><polygon fill="#64748B" points="399.8147,440.2627,403.3159,432.3851,399.8147,435.8862,396.3136,432.3851,399.8147,440.2627" style="stroke:#64748B;stroke-width:1.0503;"/></g><!--link Assets to Internal--><g class="link" data-entity-1="ent0013" data-entity-2="ent0016" data-link-type="dependency" data-source-line="313" id="lnk28"><path d="M643.6616,284.3036 C643.6616,337.1798 643.6616,453.8559 643.6616,453.8559 C643.6616,453.8559 624.344,453.8559 598.7155,453.8559" fill="none" id="Assets-to-Internal" style="stroke:#64748B;stroke-width:1.0503;"/><polygon fill="#64748B" points="593.4638,453.8559,601.3414,457.3571,597.8402,453.8559,601.3414,450.3548,593.4638,453.8559" style="stroke:#64748B;stroke-width:1.0503;"/></g><!--link HTML to Public--><g class="link" data-entity-1="ent0005" data-entity-2="ent0015" data-link-type="dependency" data-source-line="314" id="lnk29"><path d="M855.0878,149.9029 C855.0878,229.5805 855.0878,434.5996 855.0878,434.5996 C855.0878,434.5996 424.8042,434.5996 424.8042,434.5996 C424.8042,434.5996 424.8042,431.6761 424.8042,435.0635" fill="none" id="HTML-to-Public" style="stroke:#64748B;stroke-width:1.0503;"/><polygon fill="#64748B" points="424.8042,440.3152,428.3054,432.4376,424.8042,435.9387,421.3031,432.4376,424.8042,440.3152" style="stroke:#64748B;stroke-width:1.0503;"/></g><!--link HTML to Internal--><g class="link" data-entity-1="ent0005" data-entity-2="ent0016" data-link-type="dependency" data-source-line="315" id="lnk30"><path d="M898.1345,149.7278 C898.1345,236.9504 898.1345,478.364 898.1345,478.364 C898.1345,478.364 700.4154,478.364 598.5317,478.364" fill="none" id="HTML-to-Internal" style="stroke:#64748B;stroke-width:1.0503;"/><polygon fill="#64748B" points="593.28,478.364,601.1576,481.8652,597.6564,478.364,601.1576,474.8629,593.28,478.364" style="stroke:#64748B;stroke-width:1.0503;"/></g><!--link RenderedSvg to Public--><g class="link" data-entity-1="ent0017" data-entity-2="ent0015" data-link-type="dependency" data-source-line="316" id="lnk31"><path d="M374.8165,421.584 C374.8165,427.4659 374.8165,428.7264 374.8165,434.9059" fill="none" id="RenderedSvg-to-Public" style="stroke:#64748B;stroke-width:1.0503;"/><polygon fill="#64748B" points="374.8165,440.1576,378.3176,432.28,374.8165,435.7812,371.3153,432.28,374.8165,440.1576" style="stroke:#64748B;stroke-width:1.0503;"/></g><!--link RenderedSvg to Internal--><g class="link" data-entity-1="ent0017" data-entity-2="ent0016" data-link-type="dependency" data-source-line="317" id="lnk32"><path d="M450.1439,402.2138 C458.7217,402.2138 464.9188,402.2138 464.9188,402.2138 C464.9188,402.2138 464.9188,466.11 464.9188,466.11 C464.9188,466.11 465.6365,466.11 474.1268,466.11" fill="none" id="RenderedSvg-to-Internal" style="stroke:#64748B;stroke-width:1.0503;"/><polygon fill="#64748B" points="479.3785,466.11,471.5009,462.6088,475.0021,466.11,471.5009,469.6111,479.3785,466.11" style="stroke:#64748B;stroke-width:1.0503;"/></g><!--link Public to Nginx--><g class="link" data-entity-1="ent0015" data-entity-2="ent0019" data-link-type="dependency" data-source-line="319" id="lnk33"><path d="M427.6752,491.2395 C427.6752,504.1763 427.6752,514.5835 427.6752,527.5028" fill="none" id="Public-to-Nginx" style="stroke:#64748B;stroke-width:1.0503;stroke-dasharray:6.127,6.127;"/><polygon fill="#64748B" points="427.6752,532.7545,431.1764,524.8769,427.6752,528.3781,424.174,524.8769,427.6752,532.7545" style="stroke:#64748B;stroke-width:1.0503;"/></g><!--link Internal to Nginx--><g class="link" data-entity-1="ent0016" data-entity-2="ent0019" data-link-type="dependency" data-source-line="320" id="lnk34"><path d="M507.8517,491.2395 C507.8517,504.1763 507.8517,514.5835 507.8517,527.5028" fill="none" id="Internal-to-Nginx" style="stroke:#64748B;stroke-width:1.0503;stroke-dasharray:6.127,6.127;"/><polygon fill="#64748B" points="507.8517,532.7545,511.3529,524.8769,507.8517,528.3781,504.3506,524.8769,507.8517,532.7545" style="stroke:#64748B;stroke-width:1.0503;"/></g><!--link Nginx to Integrator--><g class="link" data-entity-1="ent0019" data-entity-2="ent0002" data-link-type="dependency" data-source-line="322" id="lnk35"><path d="M426.7999,583.6964 C426.7999,589.6046 426.7999,590.8037 426.7999,597.2458" fill="none" id="Nginx-to-Integrator" style="stroke:#64748B;stroke-width:1.0503;"/><polygon fill="#64748B" points="426.7999,602.4976,430.3011,594.62,426.7999,598.1211,423.2987,594.62,426.7999,602.4976" style="stroke:#64748B;stroke-width:1.0503;"/><text fill="#475569" font-family="'Helvetica'" font-size="8.7529" lengthAdjust="spacing" textLength="28.1093" x="360.2779" y="585.4664">HTTPS</text><text fill="#475569" font-family="'Helvetica'" font-size="8.7529" lengthAdjust="spacing" textLength="2.7823" x="388.3872" y="585.4664">&#160;</text><text fill="#475569" font-family="'Helvetica'" font-size="8.7529" lengthAdjust="spacing" textLength="2.7823" x="391.1695" y="585.4664">&#183;</text><text fill="#475569" font-family="'Helvetica'" font-size="8.7529" lengthAdjust="spacing" textLength="2.7823" x="393.9518" y="585.4664">&#160;</text><text fill="#475569" font-family="'Helvetica'" font-size="8.7529" lengthAdjust="spacing" textLength="24.032" x="396.7341" y="585.4664">static</text></g><!--link Nginx to Maintainer--><g class="link" data-entity-1="ent0019" data-entity-2="ent0003" data-link-type="dependency" data-source-line="323" id="lnk36"><path d="M506.9327,583.6964 C506.9327,589.6046 506.9327,590.8037 506.9327,597.2458" fill="none" id="Nginx-to-Maintainer" style="stroke:#64748B;stroke-width:1.0503;"/><polygon fill="#64748B" points="506.9327,602.4976,510.4338,594.62,506.9327,598.1211,503.4315,594.62,506.9327,602.4976" style="stroke:#64748B;stroke-width:1.0503;"/><text fill="#475569" font-family="'Helvetica'" font-size="8.7529" lengthAdjust="spacing" textLength="28.1093" x="513.0597" y="585.4664">HTTPS</text><text fill="#475569" font-family="'Helvetica'" font-size="8.7529" lengthAdjust="spacing" textLength="2.7823" x="541.169" y="585.4664">&#160;</text><text fill="#475569" font-family="'Helvetica'" font-size="8.7529" lengthAdjust="spacing" textLength="2.7823" x="543.9512" y="585.4664">&#183;</text><text fill="#475569" font-family="'Helvetica'" font-size="8.7529" lengthAdjust="spacing" textLength="2.7823" x="546.7335" y="585.4664">&#160;</text><text fill="#475569" font-family="'Helvetica'" font-size="8.7529" lengthAdjust="spacing" textLength="24.032" x="549.5158" y="585.4664">static</text></g><!--link Output to GMN37--><g class="link" data-entity-1="ent0014" data-entity-2="ent0038" data-link-type="association" data-source-line="326" id="lnk39"><path d="M318.4096,402.2138 C318.3479,402.2138 318.2858,402.2138 318.2235,402.2138 C317.9741,402.2138 317.7199,402.2138 317.4612,402.2138 C316.9439,402.2138 316.4085,402.2138 315.8575,402.2138 C311.4493,402.2138 306.0362,402.2138 300.7779,402.2138 C290.2613,402.2138 280.364,402.2138 280.364,402.2138 C280.364,402.2138 280.364,427.0283 280.364,445.637" fill="none" id="Output-GMN37" style="stroke:#64748B;stroke-width:1.0503;stroke-dasharray:6.127,6.127;"/></g><?plantuml-src jLhhSjl65VxFfrWpdedaYgGaIvRjn9vIlDXAT0j9jStK6NC9B4L481R10fBOf3DzYBvB__TH-YJzpku21450bcSepDYISAvxRdjsSRvbxpRurBvbmncFXCikVHx4LsUdJDru0VlVl_xDb1TS-u8fcKIEO7BAuYY9Psmg8-Pw_3hYStRhgOJxgbdx5en6Cq-ngGSI_7pnmWj-5KuCpjvyBa0G2t_1-3GM4Hl_MSKyYfEvFtxnWaqM81uh9_B2MBKYSIq24G7zioiTrGmNOpOH40fDHE129nRFHAP1BDcFaRpnTg0d4xSYqinUD4DYpfB09N74g8KNhJ7R4lUE26CszWB7JrpH6cypBvY9o8kLPgpuNB2G-oAEnGvunOjGGb8uM-mmdoza4kym7hXi9lmGlEVSYQHgif5a4cm1rWRYJ0QY8QVJL55Y5G8uVdP-yNau-lcqDmQAbkXx0QqdWhNAB6ICsv71hGXYJmRgBVvah85NFbm32zo8GB6jyRFdv-sp7jO3Vsh6CW2_qEVmtapSirlk9q9fg2iSdxpUrAmOknHHG_XY3WdQ_o67oef5OYeY4JYQtToisuCFRZqNRa-NffYQoSHtBQzOIXq-0Na3bbInW3ccaL0pDlxcR_ePOz5O9dXu0Jp8KrPDkxHZ6S5nYZayYXPiBdW0lxzb4oo0lMCy37tFuMIC7IOZ7bpJMtX3UH06TNUiAbWGPBW0pf8v3rYBSIUMqGxYLiB1UFzR8i2o1H5ASR2P90gHv2Fw00n44eFUClE2QSIRhEswqDSnjjSMlfi9uyX8cjX702VmAK21k4kNTAO31MvwtfSIQn_liF7pOJA9lTWN-ezJYdnt6CFAF7BrguymZtKeeglX1LONSeInxrowtdIHfOCIM6ViEKgx04ejZ8xm8cM2kCU2c3EBv5oOkBgKCENYBMjt1utTtVrTjjKvO7zQLWDd6NVRJNOLkcIQYKGTYBDqXpQKAB00kB2OJ_0kbjS2RwBls3AXsV0l7nIxyq0ydlCRX27oiZ7rxiScwk-mRAebcwrmuDVOt0DkUytLrDkuW64IJIbfOLpVEDBXFj8l43ngtCsGEJlicgDAsyH0Sicvjlz4vqspzkpvyOVFb-qFFMQUTwp-JLy_TGCRNWtwxKulWxtkj_kTUahN-T6IQjXU_x3_niBEBqO5diUzOmlh7ZEs2ZlgTIsitHbT39QmNgVVxHzQs4zNlQjUZguDUQcUdTEBgsuEjjj_ay5wvwEJqSzBdlt-gmpsyUJ3nrFy6nbOzxZNxlSixCFWukeofqkllqzqC7nQTiZalkHkOmABQmEZf6UfzHs5ldE3T7g7z4DgUlDGHaZRM1l-Oj3j3JwVzwv6W_PfAkJDGVlbyUlw4bumSkUuUzZRoyC79sVjmSyfVF_mrKjhQ0ClB72lUz3hvlaNdD7PFzZRxUJW1OVi7XozFZpAmGjEEUgyR5jdslMj1aBtpT7HxYjjn9FWnXIVREDaCm_v7pcp1HdevFp7R7LQT7_lQBzTjv2pgr6lQvaU71qUldgJGjg3mSLVBUJLmT71w-FwvdDx7pjvflVc4nlXSsCAOFsZy6y5_kPr7LswYMcTUa5opsAKwSQTvm9DyQc85r2AaZkITqf4u6EgkQ9wgf5PeanVX8eixh77iIcVU_xYEsenqA5S30qCUx24L4LT4vev0LQP6Zk4Q-LB_3AXaesopuQSkekvY2FFQJXo7k8rLNYzZ7RaSN-xMSkQ1hGMKvxuSLy6yJcrKlcLbgCDlNy0RM-l74gbDcBvgCdXZMZpN8gg4fQX6L4GTbWAZHS-WISIpKm9tAZ2gfHfHt3G6fuEw3AiJ9VT7FGShK4UM0vD1LHfOZg979yLBgR_o47Vb0AjaDmYDfuFBvliLBVK6-QyN8wQSLVUKNAOPuhJYiZ1gVT6eH9fhKGTdyaSdE8TdNmM6zIaSpeMvN12xjoWTqoZfnGdaZYAT6I4HaZBUPs3NNBNNMh8sAiSB92kK2BCOFjvGdI-Dol0_NmAXHxBFs_oR8-XyhNLIQUNRHVeeC53r13Qq9WfGSjUFb62pcau6x7lpzyRy5ZN0JhseAMxHzCQppWexNa0bGrzJC0fvfV71TIN93Hyg96TH8BV01Ld3tIRjeV7GOZwPGNhNWiqXGOT8h2GNIDwy_5uq3JfgPui7ZNxB7tPScChueoenGXmAa6xkR_vbHusTJ51OQVMal4vodtEq_g4RMemc_fSOGzV2D-NTzjFPXbIfomigT4eekasBMV5N4zIYfepPW4-mkxPzhthG1zz6VF5DDwyjL_HYI68qRB3jYX9eNYw2BiqrQXeIiPohNq9Ui6aIwDMakHtJFCKziqSNfvnOTVA4GpImbaM1_R4KefU4G_h6sE1P3N9Ij2AkbTftactYSTflaH_jEO5aa9vo0UrM-9xw_vrJJJwck_pEMNECNaHVVnNAgDSX44laV6G24IIY4fab0UnHL-NKGpYbIeRUpXbhtciOXKPUb780wle-39ngmobJxPho5zdff_ezgfAW3x1hI4_8E01WcMuwPxqANQaeoQEHp92mNYoqjZbCPzm9KfTtZqkmwpozWFOELljDGzMguJlexBGNTfZwyIIu0kL8aVL2s8lNbGaZxaqMST-87TI2Pls-6jqMtGTgtGNgCHlYRvgXbeultaX3-8dxCD8yEhkPHv-XpFoN1HHgv9CNwEi8J-GP0yGh2TP0MrznxLxxigccrdlSJ6M9tZqRhH6LBMJvX2BsXSrFoPDULGLkDc5Lnb9TVIMaL4l5ad_yLjOIl20NvyiIzwWBgQfaPwWdYmjKabdvdE8xeppsU6W0H5H2S7QtKU-OIfUWKH2ePTHgPHZWOE5Pc29zDNK4Xs7FekPtOgidcmFomEkUAvUErmVo_jIdFGvA5degJV5l-2HBUeQrQCpBANy01bXHKheY-nAcg_BYHNQZuAxAvT0bJTDATaW_LBuTNPPagrg-sMxTEaZP4cBMDuW5gcgjlKlKgwLuCAPfmHzrGKFcn4HMTcyL-j6L0_ry5dtk_4lORlKjD6NlQUlJ2Icr3RLPTlGb5dc2p6sf5lTaqisPerRjZ6NHaUANA9ETMmGKJkE8s-Ib5-Hb4J62atfARPOb3N9a8OEofHxi7GGPM_D9sojOzvy_Etf5XAv5Y-UFWHJIHLHM75kJ8dAmx0w25S9r-9mhJtKo1MnLVN1mb8LBYLNgDOk9_Cq5LSxQvyyB4tNutCPk6KXN1PNHRAAlVCHf0zUuwnJLMJ1OmHMf47fiN4PJr4fpTBycq-S_QRzI6GENuxF4LhP1VsMlVi5a3f0uPgFVNh6HQZuwIw1ZKwLzpuhDSxYVldIf-oxM7MRkd8b0wjynIb1ep_YZ50WgJpM5V3AwlbJVftRUzba0v4eFSypj-DBPWp9ZX1jRrncs_TJKJJq52Rq7s8EvmxpDJeRQp8VAfoPdlvQ6tyomqsmJpfXjLN_E1fT3jb__yD-65wSqyyM3xtMxLvzEpMw7dgSSwZWy51BC_E3ce5XPpwFRjMpSIdmeS72T9fGaH_ry27O4h-9Z6CvPquaN2_MdniD8vhisgf78euM3Vh8lzHY_T5wpUYBd1VeOS6ONnikgoDZMm_mC5pis9gloTZMWHvPKzlQM5TAC1NgUHT_yNOvasTodwD626vjmI8uHu-t2IeWCDWKR9krshCa-2sHDFGPHj8HBhblwOBdDAkmNKkDg_-iFOCc6N851slrb5uVGY6INh9MIxzkjHx5IPlTyWaaJIOgTlvPls1scgd6h6Pa8i9v5EEY9shMnf5tFOl1yeztPZmGFwqJ_g2tPY2HjUo0OkxvWtrlnwJUfwZBiKSGj2zFygXcWYj5pSr20jNbCLSnJIePL3sObQBgiKOWJUnToee2PlQBKB4MiwA2DKmyz4O3j869ks2ND0dbws3h7A3WtWgVlMHRsNTq15ijbY5z0xQfOIPViQXQpHYZVWB_8lBm-wTWAqmcM3Ns7JgIRjV9OKjuId76FVjv3HGUXKS09V8qIunQpNwmP_Ls4YEju4Wpuwmqvj3ypdw7UVx-SNHsQZv1Wp6INksmGR-3_r5tt8cKDpkV0XKA1szuWWoddn2zWFMtVo5kn80OfGELdm9T7JJiyih25b0Ze57EnDU2Q2uofaIqJ2uNmyWXpCvm25VzCFmKO3yGiT9GlApzCxUguyJp4PjUAAXOW5trQBMnZI7uFQ-c7J7w5DnwtCmcQL7wju464NO8Dfy2YaH7kc8vBcoK1f2GkX25mappNpGyBEw9xOH4QYq-6z1d3O9AlnWFQpmYRzD2mJzSiDQdO0gZY2Y4RMADgA5gPVbq7470w94ydrOlebiF3csPDospveiafd5ilMWJOk3kPO7Lc787ein2D9WGqyW2wZoBfppgYKKWP6D1uRPUDDMj0G_ig-7jDM6ObJVCodzLCj18G_tsnBsdLMMp9AmUN7l1VOFxeNQgDwV5Rj48EWtTOYzwRHPsJcYr6iKMzkRtAoxJSQJVQkVeuAQ_KdDJUD7Vrggr7Ar-dzUVE5XYksRBHRzSBiBmCaAD8NDlCjfC5OkJKyrYv6Jd4OklC_oQGM3DvdjhanIKUrNJFp92utlsbcMzWjB1b4DRrf4IDBEbsBecfpR8u6gJOPx2ooabPMCQULHHiSzg6nF82sxb3MfHDbCEEkr5MvpINWVr3KmRCwvcGkcmORciGElYpCHsSxbx_Hy0?></g></svg>
